<svg width="28" height="30" viewBox="0 0 28 30" fill="none" xmlns="http://www.w3.org/2000/svg">
<g clip-path="url(#clip0)">
<path d="M11.2356 10.1374L11.2356 10.1372C11.294 9.98536 11.4184 9.91318 11.5284 9.91318H12.8909H13.3899V9.41416V0.878908C13.3899 0.636066 13.5656 0.499024 13.7112 0.499024H18.1043C18.25 0.499024 18.4256 0.636066 18.4256 0.878908V9.41416V9.91318H18.9247H20.3854C20.4951 9.91318 20.6196 9.98528 20.678 10.1372L20.678 10.1373C20.738 10.2932 20.7002 10.4681 20.5995 10.5752L16.171 15.282L16.1708 15.2822C16.1055 15.3517 16.0282 15.3799 15.9568 15.3799C15.8853 15.3799 15.8081 15.3517 15.7428 15.2822L15.7426 15.282L11.314 10.575L11.3139 10.575C11.2134 10.4681 11.1755 10.2934 11.2356 10.1374Z" stroke="#F3B917" stroke-width="0.998049"/>
<path d="M10.7512 5.20599V7.26599C9.86486 7.51947 9.13775 8.19724 8.78707 9.10964C8.33912 10.2747 8.58545 11.6073 9.43129 12.5067L9.43138 12.5068L13.8602 17.2137C13.8602 17.2138 13.8602 17.2138 13.8602 17.2138C14.4147 17.8032 15.16 18.1358 15.9568 18.1358C16.7533 18.1358 17.4986 17.8035 18.0531 17.214C18.0532 17.214 18.0532 17.214 18.0532 17.214L22.482 12.5068L22.482 12.5068C23.3281 11.6073 23.5745 10.2747 23.1265 9.10965C22.7628 8.16377 21.9943 7.47 21.0643 7.23987V5.20599H25.1471C25.8225 5.20599 26.4201 5.48928 26.844 6.00787C27.2698 6.52909 27.4648 7.22213 27.3713 7.97352L26.1947 17.4286L26.1947 17.4287C26.1059 18.1429 25.7626 18.8153 25.2255 19.3189L25.2255 19.319C24.6884 19.8227 24.0346 20.0869 23.3898 20.0869H7.1931H6.62815L6.69789 20.6475L6.86943 22.0265L6.86944 22.0266C7.00316 23.1008 7.95945 24.0341 9.03859 24.0341H25.5865C25.732 24.0341 25.9078 24.1713 25.9078 24.414C25.9078 24.6568 25.7321 24.7938 25.5865 24.7938H23.4372H22.6437L22.9875 25.5091C23.1685 25.8856 23.2719 26.3128 23.2719 26.7676C23.2719 28.3072 22.1099 29.501 20.7539 29.501C19.3979 29.501 18.2359 28.3072 18.2359 26.7676C18.2359 26.3128 18.3394 25.8856 18.5204 25.5091L18.8641 24.7938H18.0706H13.7721H12.9785L13.3223 25.5091C13.5033 25.8856 13.6067 26.3128 13.6067 26.7676C13.6067 28.3072 12.4448 29.501 11.0887 29.501C9.73277 29.501 8.57097 28.3073 8.57097 26.7676C8.57097 26.2904 8.68391 25.8435 8.881 25.455L9.17528 24.8749L8.53872 24.7409C8.06373 24.641 7.60071 24.3993 7.20301 24.0262L10.7512 5.20599ZM10.7512 5.20599H5.2173H4.77654L4.72209 4.76861L4.5215 3.15731C4.5215 3.1573 4.5215 3.15729 4.5215 3.15728C4.42409 2.37515 4.12233 1.69264 3.72651 1.21548C3.32754 0.734513 2.86867 0.499024 2.44874 0.499024H0.984346C0.838723 0.499024 0.663056 0.636065 0.663056 0.878908C0.663056 1.12175 0.838723 1.25879 0.984346 1.25879H2.44874C2.68055 1.25879 2.87414 1.37703 2.99682 1.47274C3.13568 1.58107 3.26709 1.72592 3.3832 1.89372C3.6167 2.23119 3.81516 2.7001 3.88559 3.26632C3.88559 3.26634 3.8856 3.26635 3.8856 3.26636L4.18013 5.63317C4.18074 5.63762 4.18127 5.64192 4.18172 5.64607L5.05497 12.6642L5.05497 12.6642L6.23373 22.1358C6.23374 22.1358 6.23374 22.1358 6.23374 22.1358C6.32272 22.85 6.66595 23.5223 7.20298 24.0262L10.7512 5.20599ZM4.18475 5.70056C4.18474 5.70006 4.18474 5.69934 4.18474 5.69856L4.18475 5.70045V5.70056ZM4.18475 5.70056C4.18475 5.70108 4.18475 5.70137 4.18475 5.70123V5.70117V5.70102L4.18475 5.70056Z" stroke="#F3B917" stroke-width="0.998049"/>
</g>
<defs>
<clipPath id="clip0">
<rect width="28" height="30" fill="white"/>
</clipPath>
</defs>
</svg>
