<svg width="52" height="52" viewBox="0 0 52 52" fill="none" xmlns="http://www.w3.org/2000/svg">
<g clip-path="url(#clip0)">
<path d="M49.6476 45.2358L35.6135 31.2012C35.3828 31.3668 35.1582 31.5285 34.9421 31.6848C33.8378 32.4984 32.9359 33.1374 32.239 33.5981M49.6476 45.2358L19.7604 33.5981C20.4832 34.0775 21.4291 34.5556 22.5869 35.0361C23.7747 35.5296 24.904 35.785 25.9708 35.785H25.9997H26.0286C27.0954 35.785 28.2247 35.5295 29.4126 35.036C30.5699 34.5555 31.5156 34.0774 32.239 33.5981M49.6476 45.2358C48.9773 45.6973 48.2187 45.9286 47.3568 45.9286H4.64303C3.78117 45.9286 3.02211 45.6972 2.35169 45.2358L16.388 31.1979C16.625 31.3691 16.8483 31.5316 17.0561 31.6839C17.0562 31.684 17.0563 31.684 17.0564 31.6841L17.352 31.2809L49.6476 45.2358ZM32.239 33.5981C32.239 33.5981 32.2391 33.5981 32.2391 33.598L31.9629 33.1812L32.2386 33.5983C32.2388 33.5983 32.2389 33.5982 32.239 33.5981Z" stroke="#F3B917"/>
<path d="M0.5 39.9534V19.9746C1.15762 20.597 1.87528 21.1672 2.65189 21.6851C6.50556 24.3039 9.68773 26.4879 12.2094 28.244L0.5 39.9534Z" stroke="#F3B917"/>
<path d="M49.3784 21.6844L49.3806 21.6829C50.1495 21.1566 50.8561 20.5881 51.4999 19.9767V39.9539L39.7957 28.2491C42.4635 26.3907 45.6576 24.2028 49.3784 21.6844Z" stroke="#F3B917"/>
<path d="M1.59666 7.39185L1.5966 7.39192C0.875992 8.29429 0.501709 9.43643 0.501709 10.8522C0.501709 11.9233 0.970374 13.1399 1.99787 14.514C3.03543 15.901 4.12855 16.9756 5.27293 17.7507L5.28112 17.7562L5.28106 17.7563C5.93626 18.2192 7.91687 19.5961 11.2262 21.8889L11.2262 21.8889C13.0124 23.1267 14.566 24.2057 15.9012 25.137C17.0391 25.9298 18.0206 26.6166 18.8313 27.1867C18.8314 27.1867 18.8315 27.1868 18.8315 27.1868L18.5439 27.5958C18.6336 27.6587 18.7727 27.7582 18.9564 27.8896L1.59666 7.39185ZM1.59666 7.39185C2.28879 6.52483 3.27937 6.07135 4.64427 6.07135H47.3579C48.4796 6.07135 49.4429 6.47118 50.2714 7.29044M1.59666 7.39185L1.2059 7.07991C2.00847 6.07455 3.15412 5.57135 4.64427 5.57135H47.3579C48.6153 5.57135 49.7038 6.02602 50.623 6.9349M33.026 27.9049C33.2202 27.7656 33.3663 27.6616 33.4599 27.5958C34.0909 27.1567 35.0743 26.4731 36.3964 25.5551M33.026 27.9049L32.735 27.4983C32.7348 27.4984 32.7346 27.4986 32.7345 27.4987M33.026 27.9049L32.7345 27.4987M33.026 27.9049C32.8169 28.0546 32.5522 28.2453 32.2264 28.481M32.7345 27.4987C32.9293 27.3589 33.0768 27.2539 33.1722 27.1869L33.1743 27.1854C33.8055 26.7462 34.7889 26.0625 36.1111 25.1445M32.7345 27.4987C32.5244 27.649 32.2592 27.8401 31.9334 28.0759M36.1111 25.1445L36.3964 25.5551M36.1111 25.1445C36.1111 25.1444 36.1112 25.1444 36.1112 25.1444L36.3964 25.5551M36.1111 25.1445C38.5169 23.4729 42.0598 21.0127 46.7549 17.7541M36.3964 25.5551C38.8021 23.8836 42.3451 21.4234 47.0402 18.1647M47.0402 18.1647L46.7539 17.7547C46.7542 17.7545 46.7546 17.7543 46.7549 17.7541M47.0402 18.1647C48.4523 17.1784 49.632 15.9882 50.5802 14.5957M47.0402 18.1647L46.7551 17.7539C46.755 17.754 46.755 17.754 46.7549 17.7541M46.7549 17.7541C48.1176 16.8021 49.2536 15.6554 50.1667 14.3146M50.5802 14.5957L50.1667 14.3146M50.5802 14.5957C51.5266 13.2033 52.0011 11.7427 52.0011 10.2144C52.0011 8.9375 51.5411 7.84491 50.623 6.9349M50.5802 14.5957L50.1669 14.3143C50.1668 14.3144 50.1668 14.3145 50.1667 14.3146M50.1667 14.3146C51.0629 12.9961 51.5011 11.6321 51.5011 10.2144C51.5011 9.0733 51.0961 8.10804 50.2714 7.29044M50.623 6.9349L50.2714 7.29044M50.623 6.9349L50.271 7.29002C50.2711 7.29016 50.2713 7.2903 50.2714 7.29044M31.9334 28.0759L32.2264 28.481M31.9334 28.0759C31.3072 28.5288 30.7898 28.8927 30.38 29.1693M31.9334 28.0759C31.9334 28.0759 31.9333 28.0759 31.9333 28.0759L32.2264 28.481M32.2264 28.481C31.5977 28.9358 31.0754 29.3032 30.6594 29.584M30.38 29.1693C30.3802 29.1692 30.3803 29.1692 30.3804 29.1691L30.6594 29.584M30.38 29.1693C29.9736 29.4426 29.4798 29.7516 28.8961 30.0963M30.38 29.1693C30.3799 29.1694 30.3798 29.1695 30.3797 29.1696L30.6594 29.584M30.6594 29.584C30.2427 29.8642 29.7401 30.1786 29.1502 30.5269M28.8961 30.0963L29.1502 30.5269M28.8961 30.0963C28.329 30.431 27.8053 30.6756 27.3236 30.8361M28.8961 30.0963C28.896 30.0964 28.896 30.0964 28.8959 30.0964L29.1502 30.5269M29.1502 30.5269C28.5598 30.8754 28.0038 31.1365 27.4816 31.3104M27.3236 30.8361C27.3236 30.8361 27.3237 30.8361 27.3237 30.836L27.4816 31.3104M27.3236 30.8361C26.8403 30.9969 26.4106 31.0716 26.0307 31.0716H26.0018H25.973C25.593 31.0716 25.1634 30.9969 24.6801 30.836M27.3236 30.8361L27.4816 31.3104M27.4816 31.3104C26.9592 31.4844 26.4755 31.5716 26.0307 31.5716H26.0018H25.973C25.5281 31.5716 25.0445 31.4844 24.5222 31.3104M24.6801 30.836C24.6801 30.8361 24.6802 30.8361 24.6802 30.8361L24.5222 31.3104M24.6801 30.836C24.1984 30.6756 23.6743 30.4305 23.1075 30.0963M24.6801 30.836L24.5222 31.3104M24.5222 31.3104C23.9999 31.1365 23.4435 30.8748 22.8535 30.5269M23.1075 30.0963C23.1075 30.0963 23.1075 30.0963 23.1076 30.0963L22.8535 30.5269M23.1075 30.0963L22.8535 30.5269M23.1075 30.0963L21.3444 29.584C21.7598 29.8649 22.2631 30.1786 22.8535 30.5269" stroke="#F3B917"/>
</g>
<defs>
<clipPath id="clip0">
<rect width="52" height="52" fill="white"/>
</clipPath>
</defs>
</svg>
