<svg width="52" height="52" viewBox="0 0 52 52" fill="none" xmlns="http://www.w3.org/2000/svg">
<g clip-path="url(#clip0)">
<path d="M49.6476 45.2357L35.6135 31.201C35.3828 31.3667 35.1582 31.5283 34.9421 31.6846C33.8378 32.4982 32.9359 33.1372 32.239 33.5979M49.6476 45.2357L19.7604 33.5979C20.4832 34.0773 21.4291 34.5554 22.5869 35.0359C23.7747 35.5294 24.904 35.7848 25.9708 35.7848H25.9997H26.0286C27.0954 35.7848 28.2247 35.5293 29.4126 35.0358C30.5699 34.5553 31.5156 34.0772 32.239 33.5979M49.6476 45.2357C48.9773 45.6971 48.2187 45.9284 47.3568 45.9284H4.64303C3.78117 45.9284 3.02211 45.697 2.35169 45.2356L16.388 31.1977C16.625 31.3689 16.8483 31.5314 17.0561 31.6837C17.0562 31.6838 17.0563 31.6839 17.0564 31.6839L17.352 31.2807L49.6476 45.2357ZM32.239 33.5979C32.239 33.5979 32.2391 33.5979 32.2391 33.5979L31.9629 33.1811L32.2386 33.5982C32.2388 33.5981 32.2389 33.598 32.239 33.5979Z" stroke="#F3B917"/>
<path d="M0.5 39.9533V19.9745C1.15762 20.5969 1.87528 21.1671 2.65189 21.685C6.50556 24.3038 9.68773 26.4879 12.2094 28.244L0.5 39.9533Z" stroke="#F3B917"/>
<path d="M49.3785 21.6843L49.3807 21.6828C50.1496 21.1565 50.8562 20.588 51.5 19.9766V39.9538L39.7958 28.2491C42.4636 26.3906 45.6576 24.2027 49.3785 21.6843Z" stroke="#F3B917"/>
<path d="M1.59659 7.39179L1.59654 7.39186C0.875931 8.29423 0.501648 9.43637 0.501648 10.8521C0.501648 11.9233 0.970313 13.1399 1.99781 14.5139C3.03537 15.9009 4.12849 16.9755 5.27287 17.7506L5.28106 17.7562L5.281 17.7562C5.9362 18.2192 7.91681 19.5961 11.2261 21.8888L11.2262 21.8888C13.0123 23.1266 14.5659 24.2056 15.9011 25.1369C17.039 25.9297 18.0206 26.6165 18.8312 27.1866C18.8313 27.1867 18.8314 27.1867 18.8315 27.1868L18.5439 27.5958C18.6335 27.6587 18.7726 27.7581 18.9564 27.8895L1.59659 7.39179ZM1.59659 7.39179C2.28873 6.52477 3.27931 6.07129 4.64421 6.07129H47.3579C48.4795 6.07129 49.4428 6.47112 50.2713 7.29038M1.59659 7.39179L1.20583 7.07985C2.00841 6.07449 3.15406 5.57129 4.64421 5.57129H47.3579C48.6153 5.57129 49.7037 6.02596 50.6229 6.93484M33.0259 27.9049C33.2201 27.7655 33.3663 27.6616 33.4598 27.5958C34.0908 27.1567 35.0742 26.4731 36.3963 25.555M33.0259 27.9049L32.7349 27.4982C32.7348 27.4984 32.7346 27.4985 32.7344 27.4986M33.0259 27.9049L32.7344 27.4986M33.0259 27.9049C32.8168 28.0545 32.5522 28.2452 32.2264 28.4809M32.7344 27.4986C32.9292 27.3588 33.0768 27.2539 33.1722 27.1868L33.1742 27.1854C33.8054 26.7462 34.7889 26.0625 36.111 25.1444M32.7344 27.4986C32.5244 27.6489 32.2591 27.8401 31.9333 28.0758M36.111 25.1444L36.3963 25.555M36.111 25.1444C36.111 25.1444 36.1111 25.1444 36.1111 25.1443L36.3963 25.555M36.111 25.1444C38.5168 23.4729 42.0598 21.0127 46.7548 17.754M36.3963 25.555C38.802 23.8835 42.345 21.4233 47.0402 18.1646M47.0402 18.1646L46.7539 17.7547C46.7542 17.7545 46.7545 17.7542 46.7548 17.754M47.0402 18.1646C48.4522 17.1783 49.632 15.9881 50.5801 14.5957M47.0402 18.1646L46.7551 17.7538C46.755 17.7539 46.7549 17.754 46.7548 17.754M46.7548 17.754C48.1176 16.802 49.2536 15.6554 50.1666 14.3146M50.5801 14.5957L50.1666 14.3146M50.5801 14.5957C51.5266 13.2032 52.0011 11.7426 52.0011 10.2143C52.0011 8.93744 51.541 7.84485 50.6229 6.93484M50.5801 14.5957L50.1668 14.3142C50.1668 14.3144 50.1667 14.3145 50.1666 14.3146M50.1666 14.3146C51.0628 12.996 51.5011 11.632 51.5011 10.2143C51.5011 9.07324 51.096 8.10798 50.2713 7.29038M50.6229 6.93484L50.2713 7.29038M50.6229 6.93484L50.2709 7.28996C50.2711 7.2901 50.2712 7.29024 50.2713 7.29038M31.9333 28.0758L32.2264 28.4809M31.9333 28.0758C31.3071 28.5287 30.7897 28.8927 30.38 29.1693M31.9333 28.0758C31.9333 28.0758 31.9333 28.0758 31.9333 28.0759L32.2264 28.4809M32.2264 28.4809C31.5976 28.9357 31.0753 29.3032 30.6594 29.5839M30.38 29.1693C30.3801 29.1692 30.3802 29.1691 30.3804 29.169L30.6594 29.5839M30.38 29.1693C29.9736 29.4425 29.4798 29.7515 28.896 30.0963M30.38 29.1693C30.3798 29.1694 30.3797 29.1694 30.3796 29.1695L30.6594 29.5839M30.6594 29.5839C30.2426 29.8641 29.74 30.1785 29.1501 30.5269M28.896 30.0963L29.1501 30.5269M28.896 30.0963C28.3289 30.431 27.8052 30.6755 27.3235 30.836M28.896 30.0963C28.896 30.0963 28.8959 30.0963 28.8959 30.0964L29.1501 30.5269M29.1501 30.5269C28.5597 30.8753 28.0037 31.1364 27.4816 31.3104M27.3235 30.836C27.3235 30.836 27.3236 30.836 27.3236 30.836L27.4816 31.3104M27.3235 30.836C26.8402 30.9969 26.4105 31.0715 26.0307 31.0715H26.0018H25.9729C25.5929 31.0715 25.1633 30.9969 24.68 30.836M27.3235 30.836L27.4816 31.3104M27.4816 31.3104C26.9591 31.4843 26.4754 31.5715 26.0307 31.5715H26.0018H25.9729C25.528 31.5715 25.0445 31.4843 24.5221 31.3104M24.68 30.836C24.6801 30.836 24.6801 30.836 24.6801 30.836L24.5221 31.3104M24.68 30.836C24.1984 30.6755 23.6742 30.4305 23.1074 30.0962M24.68 30.836L24.5221 31.3104M24.5221 31.3104C23.9998 31.1364 23.4434 30.8748 22.8534 30.5269M23.1074 30.0962C23.1074 30.0962 23.1075 30.0962 23.1075 30.0963L22.8534 30.5269M23.1074 30.0962L22.8534 30.5269M23.1074 30.0962L21.3443 29.5839C21.7597 29.8648 22.263 30.1785 22.8534 30.5269" stroke="#F3B917"/>
</g>
<defs>
<clipPath id="clip0">
<rect width="52" height="52" fill="white"/>
</clipPath>
</defs>
</svg>
