<svg width="30" height="30" viewBox="0 0 30 30" fill="none" xmlns="http://www.w3.org/2000/svg">
<path d="M24.6829 19.426L29.0058 24.0687L27.7318 28.0344C27.2501 28.4392 26.6927 28.7791 26.0957 29.0296C25.5388 29.2618 24.9945 29.4074 24.4269 29.4806C24.2106 29.5046 17.8631 30.1461 9.91672 21.6133C4.08017 15.3456 2.03886 10.8412 2.58524 5.97716L2.58561 5.97366C2.64777 5.38282 2.78386 4.78933 3.00571 4.16099C3.24467 3.50676 3.56433 2.90377 3.94325 2.38457L4.17234 2.07066L5.09072 1.07879C5.09087 1.07863 5.09102 1.07847 5.09117 1.07831C5.79953 0.317918 6.88956 0.318626 7.53779 1.0146L11.8617 5.65892C12.5323 6.37991 12.5282 7.61363 11.8039 8.39164L11.8037 8.39182L11.0853 9.1642L11.0849 9.16469L9.62323 10.732L9.37984 10.9929L9.54754 11.3079C9.61126 11.4277 9.67568 11.5528 9.74422 11.6859C9.75561 11.7081 9.76711 11.7304 9.77873 11.753L9.77911 11.7537L9.7867 11.7684C10.5534 13.2508 11.6247 15.3219 13.6549 17.5019C15.6868 19.6854 17.621 20.837 19.0041 21.6599C19.1545 21.7506 19.2976 21.8361 19.436 21.918L19.7823 22.1229L20.0566 21.8285L22.2351 19.4896L22.2352 19.4895C22.9418 18.7304 24.032 18.7299 24.6829 19.426Z" stroke="#F3B917"/>
</svg>
