<svg width="52" height="42" viewBox="0 0 52 42" fill="none" xmlns="http://www.w3.org/2000/svg">
<path d="M46.5354 40.6432C47.6593 40.6432 48.6332 40.2721 49.4611 39.5393L35.2953 25.373C34.9554 25.6163 34.626 25.853 34.3148 26.078C33.2547 26.8591 32.3943 27.4686 31.7336 27.9053C31.073 28.343 30.1941 28.7892 29.0969 29.2447C27.9991 29.7008 26.9763 29.9281 26.0275 29.9281H25.9997H25.9719C25.023 29.9281 24.0002 29.7009 22.9024 29.2447C21.8047 28.7892 20.9258 28.343 20.2658 27.9053C19.6052 27.4686 18.7453 26.8592 17.6846 26.078C17.389 25.8613 17.0612 25.6236 16.7069 25.3691L2.53833 39.5393C3.36613 40.2721 4.34063 40.6432 5.46446 40.6432H46.5354V40.6432Z" stroke="#F3B917"/>
<path d="M3.81838 16.4522C2.75837 15.7455 1.81836 14.9361 1 14.0244V35.5774L13.4857 23.0917C10.9878 21.3478 7.76949 19.1372 3.81838 16.4522Z" stroke="#F3B917"/>
<path d="M48.2099 16.4522C44.4095 19.0245 41.1794 21.2389 38.5193 23.0967L51.0001 35.5779V14.0244C50.1999 14.9178 49.2699 15.7266 48.2099 16.4522Z" stroke="#F3B917"/>
<path d="M46.5354 1.35718H5.46455C4.03171 1.35718 2.93012 1.84102 2.15842 2.80772C1.38608 3.77486 1.00055 4.98439 1.00055 6.43493C1.00055 7.6066 1.51217 8.87613 2.53497 10.2439C3.55776 11.6111 4.6461 12.685 5.79943 13.4661C6.4317 13.9128 8.3384 15.2384 11.5195 17.4423C13.2368 18.6323 14.7302 19.6695 16.0135 20.5646C17.1074 21.3268 18.0507 21.9868 18.8296 22.5346C18.919 22.5973 19.0596 22.6979 19.2463 22.8313C19.4473 22.9757 19.7018 23.159 20.0157 23.3857C20.6202 23.8229 21.1224 24.1763 21.5224 24.4463C21.9218 24.7163 22.4057 25.018 22.9734 25.3529C23.5407 25.6875 24.0758 25.939 24.5779 26.1063C25.0802 26.2735 25.5452 26.3574 25.9729 26.3574H26.0007H26.0285C26.4561 26.3574 26.9212 26.2735 27.4236 26.1063C27.9256 25.939 28.4602 25.688 29.028 25.3529C29.5951 25.018 30.0784 24.7157 30.4791 24.4463C30.8791 24.1763 31.3813 23.823 31.9859 23.3857C32.2991 23.159 32.5536 22.9757 32.7547 22.8318C32.9414 22.6978 33.0819 22.5978 33.1719 22.5346C33.7786 22.1124 34.7242 21.455 35.9954 20.5723C38.3086 18.9651 41.7154 16.5995 46.2299 13.4661C47.5877 12.5178 48.7221 11.3733 49.6337 10.0345C50.5438 8.69557 51 7.29115 51 5.82163C51 4.59386 50.5577 3.54329 49.6749 2.66828C48.791 1.79436 47.7445 1.35718 46.5354 1.35718Z" stroke="#F3B917"/>
</svg>
