<svg width="50" height="50" viewBox="0 0 50 50" fill="none" xmlns="http://www.w3.org/2000/svg">
<path d="M31.2173 26.3801H31.6685L31.7146 25.9313L32.2413 20.8086L32.298 20.2575H31.7439H27.652V17.7465C27.652 17.3008 27.7934 17.1063 27.9097 17.0112C28.045 16.9005 28.2376 16.8508 28.4299 16.8508H28.433H28.4362H28.4394H28.4426H28.446H28.4493H28.4527H28.4562H28.4597H28.4633H28.4669H28.4705H28.4742H28.478H28.4818H28.4856H28.4895H28.4934H28.4974H28.5014H28.5055H28.5096H28.5138H28.518H28.5222H28.5265H28.5309H28.5353H28.5397H28.5442H28.5487H28.5532H28.5578H28.5625H28.5672H28.5719H28.5767H28.5815H28.5863H28.5912H28.5962H28.6012H28.6062H28.6112H28.6163H28.6215H28.6267H28.6319H28.6371H28.6424H28.6478H28.6532H28.6586H28.664H28.6695H28.6751H28.6806H28.6862H28.6919H28.6976H28.7033H28.709H28.7148H28.7207H28.7265H28.7324H28.7384H28.7443H28.7503H28.7564H28.7624H28.7686H28.7747H28.7809H28.7871H28.7933H28.7996H28.8059H28.8123H28.8186H28.8251H28.8315H28.838H28.8445H28.851H28.8576H28.8642H28.8708H28.8775H28.8842H28.8909H28.8977H28.9044H28.9113H28.9181H28.925H28.9319H28.9388H28.9458H28.9527H28.9598H28.9668H28.9739H28.981H28.9881H28.9952H29.0024H29.0096H29.0169H29.0241H29.0314H29.0387H29.046H29.0534H29.0608H29.0682H29.0756H29.0831H29.0906H29.0981H29.1056H29.1132H29.1207H29.1283H29.136H29.1436H29.1513H29.159H29.1667H29.1744H29.1822H29.19H29.1978H29.2056H29.2134H29.2213H29.2292H29.2371H29.245H29.2529H29.2609H29.2689H29.2769H29.2849H29.2929H29.301H29.309H29.3171H29.3252H29.3334H29.3415H29.3497H29.3578H29.366H29.3742H29.3825H29.3907H29.399H29.4072H29.4155H29.4238H29.4321H29.4405H29.4488H29.4572H29.4655H29.4739H29.4823H29.4907H29.4992H29.5076H29.5161H29.5245H29.533H29.5415H29.55H29.5585H29.567H29.5756H29.5841H29.5927H29.6012H29.6098H29.6184H29.627H29.6356H29.6442H29.6528H29.6615H29.6701H29.6788H29.6874H29.6961H29.7047H29.7134H29.7221H29.7308H29.7395H29.7482H29.7569H29.7657H29.7744H29.7831H29.7919H29.8006H29.8094H29.8181H29.8269H29.8356H29.8444H29.8532H29.8619H29.8707H29.8795H29.8883H29.8971H29.9059H29.9147H29.9235H29.9323H29.9411H29.9499H29.9587H29.9675H29.9763H29.9851H29.9939H30.0027H30.0115H30.0203H30.0291H30.0379H30.0467H30.0555H30.0643H30.0731H30.0819H30.0907H30.0995H30.1083H30.1171H30.1259H30.1347H30.1435H30.1523H30.161H30.1698H30.1786H30.1873H30.1961H30.2048H30.2136H30.2223H30.2311H30.2398H30.2485H30.2573H30.266H30.2747H30.2834H30.2921H30.3008H30.3094H30.3181H30.3268H30.3354H30.3441H30.3527H30.3613H30.37H30.3786H30.3872H30.3958H30.4044H30.4129H30.4215H30.4301H30.4386H30.4471H30.4557H30.4642H30.4727H30.4812H30.4896H30.4981H30.5065H30.515H30.5234H30.5318H30.5402H30.5486H30.557H30.5653H30.5737H30.582H30.5903H30.5986H30.6069H30.6152H30.6234H30.6317H30.6399H30.6481H30.6563H30.6645H30.6726H30.6807H30.6889H30.697H30.7051H30.7131H30.7212H30.7292H30.7372H30.7452H30.7532H30.7612H30.7691H30.777H30.7849H30.7928H30.8007H30.8085H30.8163H30.8241H30.8319H30.8396H30.8474H30.8551H30.8628H30.8704H30.8781H30.8857H30.8933H30.9009H30.9084H30.9159H30.9235H30.9309H30.9384H30.9458H30.9532H30.9606H30.968H30.9753H30.9826H30.9899H30.9971H31.0044H31.0116H31.0187H31.0259H31.033H31.0401H31.0472H31.0542H31.0612H31.0682H31.0752H31.0821H31.089H31.0958H31.1027H31.1095H31.1163H31.123H31.1297H31.1364H31.1431H31.1497H31.1563H31.1629H31.1694H31.1759H31.1824H31.1888H31.1952H31.2016H31.2079H31.2142H31.2205H31.2268H31.233H31.2391H31.2453H31.2514H31.2575H31.2635H31.2695H31.2755H31.2814H31.2873H31.2931H31.299H31.3048H31.3105H31.3162H31.3219H31.3275H31.3331H31.3387H31.3442H31.3497H31.3552H31.3606H31.3659H31.3713H31.3766H31.3818H31.3871H31.3922H31.3974H31.4025H31.4075H31.4125H31.4175H31.4224H31.4273H31.4322H31.437H31.4418H31.4465H31.4512H31.4558H31.4604H31.465H31.4695H31.4739H31.4784H31.4827H31.4871H31.4914H31.4956H31.4998H31.504H31.5081H31.5121H31.5162H31.5201H31.5241H31.5279H31.5318H31.5356H31.5393H31.543H31.5466H31.5502H31.5538H31.5573H31.5607H31.5642H31.5675H31.5708H31.5741H31.5773H31.5804H31.5836H31.5866H31.5896H31.5926H31.5955H31.5984H31.6012H31.6039H31.6066H31.6093H31.6119H31.6144H31.6169H31.6194H31.6217H31.6241H31.6264H31.6286H31.6308H31.6329H31.635H31.637H31.6389H31.6408H31.6427H31.6445H31.6462H31.6479H31.6495H31.6511H31.6526H31.654H31.6554H31.6568H31.6581H31.6593H31.6605H31.6616H31.6626H31.6636H31.6646H31.6654H31.6663H31.667H31.6677H31.6684H31.6689H31.6695H31.6699H31.6703H31.6707H31.6709H31.6712H31.6713H31.6714L31.6714 16.3508V16.8508H32.1714V16.3508V11.3772V10.8791L31.6734 10.8772L27.2073 10.8601H27.2054C24.5851 10.8601 22.9082 11.8505 21.9036 13.2147C20.9182 14.5529 20.623 16.1906 20.623 17.4424V20.2565H18.2581H17.7581V20.7565V25.8801V26.3801H18.2581H20.623V26.3835V26.4224V26.4613V26.5003V26.5392V26.5783V26.6173V26.6563V26.6954V26.7345V26.7736V26.8128V26.8519V26.8911V26.9303V26.9695V27.0088V27.048V27.0873V27.1266V27.1659V27.2052V27.2446V27.2839V27.3233V27.3627V27.4021V27.4415V27.481V27.5204V27.5599V27.5994V27.6389V27.6784V27.7179V27.7574V27.7969V27.8365V27.876V27.9156V27.9552V27.9948V28.0344V28.074V28.1136V28.1532V28.1928V28.2324V28.2721V28.3117V28.3514V28.391V28.4307V28.4703V28.51V28.5496V28.5893V28.629V28.6687V28.7083V28.748V28.7877V28.8273V28.867V28.9067V28.9464V28.986V29.0257V29.0654V29.105V29.1447V29.1844V29.224V29.2637V29.3033V29.3429V29.3826V29.4222V29.4618V29.5014V29.541V29.5806V29.6202V29.6598V29.6994V29.7389V29.7785V29.818V29.8576V29.8971V29.9366V29.9761V30.0156V30.0551V30.0945V30.134V30.1734V30.2128V30.2522V30.2916V30.331V30.3703V30.4097V30.449V30.4883V30.5276V30.5669V30.6061V30.6454V30.6846V30.7238V30.7629V30.8021V30.8412V30.8803V30.9194V30.9585V30.9975V31.0366V31.0755V31.1145V31.1535V31.1924V31.2313V31.2702V31.309V31.3478V31.3866V31.4254V31.4641V31.5029V31.5415V31.5802V31.6188V31.6574V31.696V31.7345V31.773V31.8115V31.8499V31.8883V31.9267V31.9651V32.0034V32.0416V32.0799V32.1181V32.1563V32.1944V32.2325V32.2706V32.3086V32.3466V32.3845V32.4225V32.4603V32.4982V32.536V32.5737V32.6114V32.6491V32.6868V32.7244V32.7619V32.7994V32.8369V32.8743V32.9117V32.949V32.9863V33.0236V33.0608V33.098V33.1351V33.1721V33.2092V33.2461V33.2831V33.3199V33.3568V33.3936V33.4303V33.467V33.5036V33.5402V33.5767V33.6132V33.6496V33.686V33.7223V33.7586V33.7948V33.831V33.8671V33.9032V33.9392V33.9751V34.011V34.0468V34.0826V34.1183V34.154V34.1896V34.2251V34.2606V34.2961V34.3314V34.3667V34.402V34.4372V34.4723V34.5074V34.5424V34.5773V34.6122V34.647V34.6818V34.7165V34.7511V34.7856V34.8201V34.8546V34.8889V34.9232V34.9574V34.9916V35.0257V35.0597V35.0937V35.1276V35.1614V35.1951V35.2288V35.2624V35.2959V35.3294V35.3628V35.3961V35.4294V35.4625V35.4956V35.5287V35.5616V35.5945V35.6273V35.66V35.6927V35.7252V35.7577V35.7902V35.8225V35.8548V35.8869V35.919V35.9511V35.983V36.0149V36.0467V36.0784V36.11V36.1415V36.173V36.2044V36.2357V36.2669V36.298V36.329V36.36V36.3909V36.4216V36.4524V36.483V36.5135V36.5439V36.5743V36.6045V36.6347V36.6648V36.6948V36.7247V36.7545V36.7842V36.8139V36.8434V36.8729V36.9022V36.9315V36.9607V36.9898V37.0187V37.0476V37.0764V37.1051V37.1337V37.1622V37.1907V37.219V37.2472V37.2753V37.3033V37.3313V37.3591V37.3868V37.4145V37.442V37.4694V37.4967V37.524V37.5511V37.5781V37.605V37.6318V37.6586V37.6852V37.7117V37.7381V37.7644V37.7905V37.8166V37.8426V37.8685V37.8942V37.9199V37.9454V37.9709V37.9962V38.0214V38.0465V38.0715V38.0964V38.1212V38.1459V38.1704V38.1949V38.2192V38.2434V38.2675V38.2915V38.3154V38.3392V38.3628V38.3864V38.4098V38.4331V38.4563V38.4793V38.5023V38.5251V38.5478V38.5704V38.5929V38.6152V38.6375V38.6596V38.6816V38.7035V38.7252V38.7468V38.7683V38.7897V38.811V38.8321V38.8531V38.874V38.8948V38.9154V38.9359V38.9563V38.9766V38.9967V39.0167V39.0366V39.0564V39.076V39.0955V39.1148V39.1341V39.1532V39.1721V39.191V39.2097V39.2282V39.2467V39.265V39.2832V39.3012V39.3191V39.3369V39.3545V39.3721V39.3894V39.4067V39.4237V39.4407V39.4575V39.4742V39.4908V39.5072V39.5234V39.5396V39.5556V39.5714V39.5871V39.6027V39.6181V39.6334V39.6485V39.6635V39.6784V39.6931V39.7077V39.7221V39.7364V39.7505V39.7645V39.7783V39.792V39.8056V39.819V39.8322V39.8453V39.8583V39.8711V39.8837V39.8962V39.9086V39.9208V39.9329V39.9448V39.9565V39.9681V39.9796V39.9909V40.002V40.013V40.0238V40.0345V40.045V40.0554V40.0656V40.0757V40.0855V40.0953V40.1049V40.1143V40.1236V40.1327V40.1416V40.1504V40.159V40.1675V40.1758V40.1839V40.1919V40.1997V40.2074V40.2149V40.2222V40.2294V40.2364V40.2432V40.2499V40.2564V40.2628V40.2689V40.2749V40.2808V40.2865V40.292V40.2973V40.3025V40.3075V40.3123V40.317V40.3214V40.3258V40.3299V40.3339V40.3377V40.3413V40.3448V40.3481V40.3512V40.3541V40.3569V40.3594V40.3619V40.3641V40.3661V40.368V40.3697V40.3713V40.3726V40.3738V40.3748V40.3756V40.3762V40.3767V40.3769L21.123 40.377H20.623V40.877H21.123H27.15H27.65V40.377H27.15L27.65 40.3769V40.3767V40.3762V40.3756V40.3747V40.3737V40.3726V40.3712V40.3697V40.3679V40.366V40.364V40.3617V40.3593V40.3567V40.3539V40.3509V40.3478V40.3445V40.341V40.3373V40.3335V40.3295V40.3253V40.3209V40.3164V40.3117V40.3068V40.3018V40.2966V40.2912V40.2856V40.2799V40.274V40.2679V40.2617V40.2553V40.2487V40.242V40.2351V40.228V40.2208V40.2134V40.2058V40.1981V40.1902V40.1822V40.174V40.1656V40.157V40.1483V40.1395V40.1304V40.1212V40.1119V40.1024V40.0927V40.0829V40.0729V40.0628V40.0525V40.042V40.0314V40.0206V40.0097V39.9986V39.9874V39.976V39.9645V39.9528V39.9409V39.9289V39.9168V39.9044V39.892V39.8794V39.8666V39.8537V39.8406V39.8274V39.8141V39.8005V39.7869V39.7731V39.7591V39.745V39.7308V39.7164V39.7019V39.6872V39.6723V39.6574V39.6422V39.627V39.6116V39.596V39.5803V39.5645V39.5485V39.5324V39.5162V39.4998V39.4832V39.4666V39.4498V39.4328V39.4157V39.3985V39.3811V39.3636V39.346V39.3282V39.3103V39.2923V39.2741V39.2558V39.2373V39.2187V39.2V39.1812V39.1622V39.1431V39.1239V39.1045V39.085V39.0653V39.0456V39.0257V39.0057V38.9855V38.9653V38.9449V38.9243V38.9037V38.8829V38.862V38.8409V38.8198V38.7985V38.7771V38.7556V38.7339V38.7121V38.6902V38.6682V38.6461V38.6238V38.6014V38.5789V38.5563V38.5336V38.5107V38.4877V38.4646V38.4414V38.4181V38.3946V38.371V38.3474V38.3236V38.2996V38.2756V38.2515V38.2272V38.2028V38.1784V38.1538V38.1291V38.1042V38.0793V38.0543V38.0291V38.0038V37.9785V37.953V37.9274V37.9017V37.8759V37.85V37.824V37.7978V37.7716V37.7453V37.7188V37.6923V37.6656V37.6389V37.612V37.585V37.558V37.5308V37.5035V37.4761V37.4487V37.4211V37.3934V37.3656V37.3378V37.3098V37.2817V37.2535V37.2253V37.1969V37.1684V37.1399V37.1112V37.0825V37.0536V37.0247V36.9957V36.9665V36.9373V36.908V36.8786V36.8491V36.8195V36.7898V36.76V36.7302V36.7002V36.6702V36.64V36.6098V36.5795V36.5491V36.5186V36.488V36.4574V36.4266V36.3958V36.3649V36.3339V36.3028V36.2716V36.2404V36.209V36.1776V36.1461V36.1145V36.0828V36.0511V36.0193V35.9874V35.9554V35.9233V35.8911V35.8589V35.8266V35.7942V35.7618V35.7292V35.6966V35.6639V35.6312V35.5983V35.5654V35.5324V35.4994V35.4662V35.433V35.3997V35.3664V35.3329V35.2994V35.2659V35.2322V35.1985V35.1647V35.1309V35.097V35.063V35.0289V34.9948V34.9606V34.9264V34.8921V34.8577V34.8232V34.7887V34.7541V34.7195V34.6848V34.65V34.6151V34.5802V34.5453V34.5103V34.4752V34.44V34.4048V34.3696V34.3342V34.2989V34.2634V34.2279V34.1923V34.1567V34.1211V34.0853V34.0495V34.0137V33.9778V33.9419V33.9058V33.8698V33.8337V33.7975V33.7613V33.725V33.6887V33.6523V33.6159V33.5794V33.5429V33.5063V33.4697V33.433V33.3963V33.3595V33.3227V33.2858V33.2489V33.212V33.175V33.1379V33.1008V33.0637V33.0265V32.9893V32.952V32.9147V32.8773V32.8399V32.8025V32.765V32.7275V32.6899V32.6523V32.6147V32.577V32.5393V32.5015V32.4637V32.4259V32.388V32.3501V32.3122V32.2742V32.2362V32.1981V32.16V32.1219V32.0838V32.0456V32.0074V31.9691V31.9308V31.8925V31.8542V31.8158V31.7774V31.7389V31.7005V31.662V31.6235V31.5849V31.5463V31.5077V31.4691V31.4304V31.3918V31.3531V31.3143V31.2756V31.2368V31.198V31.1591V31.1203V31.0814V31.0425V31.0036V30.9647V30.9257V30.8867V30.8477V30.8087V30.7696V30.7306V30.6915V30.6524V30.6133V30.5742V30.535V30.4958V30.4567V30.4175V30.3783V30.339V30.2998V30.2606V30.2213V30.182V30.1427V30.1034V30.0641V30.0248V29.9854V29.9461V29.9067V29.8674V29.828V29.7886V29.7492V29.7098V29.6704V29.631V29.5916V29.5522V29.5127V29.4733V29.4339V29.3944V29.355V29.3155V29.2761V29.2366V29.1971V29.1577V29.1182V29.0788V29.0393V28.9998V28.9604V28.9209V28.8814V28.842V28.8025V28.7631V28.7236V28.6842V28.6447V28.6053V28.5658V28.5264V28.487V28.4476V28.4081V28.3687V28.3293V28.2899V28.2506V28.2112V28.1718V28.1325V28.0931V28.0538V28.0145V27.9751V27.9358V27.8965V27.8573V27.818V27.7787V27.7395V27.7003V27.661V27.6218V27.5827V27.5435V27.5043V27.4652V27.4261V27.387V27.3479V27.3088V27.2698V27.2308V27.1918V27.1528V27.1138V27.0749V27.0359V26.997V26.9582V26.9193V26.8805V26.8416V26.8029V26.7641V26.7253V26.6866V26.6479V26.6093V26.5706V26.532V26.4934V26.4549V26.4164V26.3801H31.2173ZM0.5 25C0.5 11.4912 11.4912 0.5 25 0.5C38.5098 0.5 49.5 11.4912 49.5 25C49.5 38.5078 38.5078 49.5 25 49.5C11.4912 49.5 0.5 38.5078 0.5 25Z" stroke="#F3B917"/>
</svg>
