<svg width="187" height="188" viewBox="0 0 187 188" fill="none" xmlns="http://www.w3.org/2000/svg">
<g style="mix-blend-mode:luminosity">
<path d="M164.897 134.858V109.135C164.897 103.122 160.037 98.2467 154.042 98.2467H34.1782C28.1826 98.2467 23.3224 103.122 23.3224 109.135V134.858H164.897Z" fill="#B25C1E"/>
<path d="M168.058 134.858H161.738V109.135C161.738 104.879 158.286 101.416 154.042 101.416H34.1782C29.9344 101.416 26.4818 104.879 26.4818 109.135V134.858H20.1626V109.135C20.1626 101.384 26.4497 95.0781 34.1782 95.0781H154.042C161.769 95.0781 168.058 101.384 168.058 109.135V134.858Z" fill="#2B1C14"/>
<path d="M39.8468 15.3475C39.3613 15.5508 38.9918 15.9157 38.8069 16.374C38.6406 16.7871 38.6438 17.2356 38.8153 17.6359C39.0839 18.2599 39.685 18.6479 40.3854 18.6479C40.6451 18.6479 40.9033 18.5945 41.1542 18.4893C42.0901 18.0978 42.5464 17.1026 42.193 16.223C41.8511 15.373 40.7673 14.9611 39.8468 15.3475Z" fill="#6F6F6F"/>
<path d="M50.7981 18.0348L49.9227 15.4919C50.2652 15.3752 50.6078 15.2584 50.9504 15.1439C51.6374 14.9156 52.2356 14.8 52.7273 14.8C53.237 14.8 53.8842 14.9272 54.0695 15.5361C54.3923 16.5964 53.3027 17.1988 52.3304 17.5178C51.8186 17.6874 51.3081 17.8594 50.7981 18.0348ZM50.4359 12.8631C50.0116 13.0048 49.5881 13.1471 49.1654 13.293L48.3122 10.818C48.8568 10.631 49.4018 10.448 49.9481 10.2667C51.2235 9.8484 52.084 10.0105 52.3039 10.7233C52.5655 11.5739 51.8337 12.4134 50.4359 12.8631ZM54.5039 12.6481C55.389 11.7342 55.6825 10.6693 55.3522 9.52771C54.7096 7.28749 52.3537 6.56245 48.9704 7.675C47.5562 8.14384 46.1237 8.6429 44.7132 9.15764L44.3592 9.28719L48.855 21.6636L49.2086 21.534C50.4951 21.0646 51.8007 20.6091 53.0897 20.1821C56.2493 19.1346 57.8866 17.0303 57.263 14.8198C57.0046 13.9204 56.3111 12.8677 54.5039 12.6481Z" fill="#6F6F6F"/>
<path d="M64.8403 10.4036C64.3948 10.5024 63.95 10.604 63.5051 10.708L62.5679 6.7156C63.029 6.60754 63.49 6.50239 63.9505 6.39956C65.6848 6.01612 66.6857 6.47391 66.9533 7.82641C67.2233 9.18646 66.5322 10.0289 64.8403 10.4036ZM71.2409 12.7513C70.401 12.9047 69.9515 12.523 69.3607 12.0123C69.1788 11.8554 68.9928 11.6951 68.7884 11.5458C70.0963 10.3269 70.4624 8.53519 70.2214 7.2007C69.7065 4.28714 67.0947 2.87248 63.526 3.65795C62.079 3.97923 60.6147 4.32723 59.173 4.69266L58.808 4.78562L62.0292 17.5559L62.3941 17.4629C63.1216 17.2782 63.8498 17.0998 64.5796 16.9279L64.9457 16.8413L64.1226 13.334C64.4655 13.2544 64.8096 13.176 65.153 13.0975L65.2411 13.0778C65.4114 13.0389 65.5747 13.0017 65.734 12.9575C66.2258 13.1359 66.6069 13.5542 67.0443 14.0341C67.7683 14.8277 68.5879 15.727 70.1571 15.727C70.4369 15.727 70.7358 15.6968 71.0428 15.6381C72.4092 15.3842 72.4747 15.1722 72.5106 15.0583L72.5378 14.9712L72.1213 12.5944L71.2409 12.7513Z" fill="#6F6F6F"/>
<path d="M84.359 10.9971C82.4574 11.1545 80.5343 11.3532 78.6379 11.5903L78.3592 9.39535C80.0894 9.17923 81.8509 8.99333 83.6002 8.84112L83.975 8.80916L83.7445 6.12102L83.3697 6.15297C81.5966 6.30693 79.7998 6.49633 78.021 6.71884L77.6786 4.01617C79.6811 3.76635 81.7159 3.55546 83.734 3.38872L84.1094 3.35676L83.8829 0.597742L83.5075 0.628535C80.5181 0.875446 77.4956 1.21822 74.5241 1.64698L74.1516 1.69984L76.0209 14.7385L76.3933 14.6845C79.0984 14.2941 81.8555 13.9821 84.5867 13.7561L84.962 13.7253L84.7338 10.9663L84.359 10.9971Z" fill="#6F6F6F"/>
<path d="M103.542 0.327175L103.269 0.313232L103.17 0.567108C102.289 2.83812 101.434 5.13933 100.625 7.42021C99.6353 5.00629 98.5869 2.59121 97.5026 0.226086L97.4029 0.00880513L96.1136 8.21897e-05L96.0116 0.218527C94.9076 2.57377 93.8394 4.97782 92.8304 7.37955C92.0438 5.07659 91.2143 2.76026 90.3599 0.479381L90.2644 0.224923L89.9933 0.235377C89.0914 0.270235 88.1895 0.313225 87.2882 0.36435L86.7605 0.395143L86.9627 0.885477C88.6355 4.954 90.2134 9.11549 91.6517 13.2526L91.7432 13.5134L93.0135 13.4826L93.1108 13.2613C94.2333 10.6853 95.4382 8.09241 96.6963 5.54428C97.937 8.10751 99.125 10.7172 100.231 13.3112L100.325 13.5309L101.614 13.5808L101.708 13.32C103.189 9.20379 104.81 5.06322 106.525 1.01503L106.731 0.527606L106.205 0.490416C105.317 0.428253 104.43 0.373071 103.542 0.327175Z" fill="#6F6F6F"/>
<path d="M125.318 2.87444C124.745 2.75767 124.163 2.69899 123.59 2.69899C119.948 2.69899 116.978 5.02462 116.531 8.22866C115.98 12.1386 118.553 15.3676 122.936 16.2629C123.635 16.4064 124.349 16.479 125.056 16.479C126.509 16.479 127.511 16.1717 127.605 16.1089L127.799 15.9794L127.77 15.7487C127.687 15.0864 127.602 14.4241 127.513 13.7618L127.456 13.3365L127.042 13.4481C127.034 13.4492 126.282 13.6479 125.167 13.6479C124.55 13.6479 123.941 13.5875 123.355 13.4678C120.921 12.9729 119.416 10.9999 119.776 8.77768C120.096 6.80412 121.644 5.57886 123.814 5.57886C124.244 5.57886 124.699 5.62707 125.162 5.72177C126.608 6.01691 127.947 6.92555 128.268 7.15503L128.484 7.65524L128.874 7.13876C129.284 6.59498 129.699 6.05235 130.117 5.51205L130.428 5.10828L130.013 4.95024C129.623 4.62664 128.04 3.42753 125.318 2.87444Z" fill="#6F6F6F"/>
<path d="M142.627 14.6811C142.03 16.3566 140.498 17.4384 138.724 17.4384C138.271 17.4384 137.816 17.3675 137.372 17.2275C135.15 16.5245 133.929 14.3296 134.531 12.1225C135.014 10.3529 136.52 9.20955 138.368 9.20955C138.846 9.20955 139.334 9.28682 139.818 9.43961C141.031 9.82305 141.975 10.5946 142.478 11.6113C142.944 12.553 142.998 13.6429 142.627 14.6811ZM140.618 6.827C139.75 6.55278 138.87 6.41394 138.001 6.41394C134.741 6.41394 132.068 8.34855 131.349 11.2284C130.42 14.9356 132.607 18.5312 136.552 19.778C137.409 20.0487 138.279 20.1858 139.14 20.1858C142.18 20.1858 144.711 18.4969 145.742 15.778C146.365 14.1402 146.294 12.3805 145.544 10.8235C144.649 8.96787 142.899 7.54856 140.618 6.827Z" fill="#6F6F6F"/>
<path d="M152.708 16.3774C152.524 15.9208 152.147 15.5461 151.672 15.3474C150.741 14.9575 149.67 15.3665 149.326 16.2229C148.967 17.117 149.414 18.0907 150.365 18.4893C150.61 18.5921 150.866 18.6438 151.123 18.6438C151.83 18.6438 152.435 18.258 152.703 17.6358C152.874 17.2396 152.876 16.7928 152.708 16.3774Z" fill="#6F6F6F"/>
<path d="M131.4 63.7475C131.4 60.1838 130.858 56.6846 129.785 53.3487C129.236 51.6418 128.239 50.1464 126.916 48.9688C127.999 43.2375 126.468 37.978 122.441 34.0896C117.706 29.5185 110.197 27.728 104.035 29.4564C100.92 25.2455 95.4277 23.104 89.355 23.904C83.2028 24.7151 78.387 28.2264 76.4188 33.1258C72.1758 32.9404 67.7933 34.505 64.7505 37.4377C61.5351 40.5378 60.1062 44.8218 60.6483 49.6079C59.6509 50.671 58.8886 51.9369 58.4345 53.3487C57.3626 56.6875 56.8191 60.1855 56.8191 63.7475C56.8191 73.187 60.2168 84.5398 63.8139 96.5594C67.6792 109.473 71.6765 130.268 71.6765 142.006C71.6765 148.328 69.8444 153.389 68.0719 158.284C66.1505 163.591 64.3358 168.604 64.9747 174.585C66.2861 186.862 92.9746 187.003 94.1099 187.003C97.9746 187.003 104.51 186.477 110.212 184.992C118.349 182.874 122.734 179.372 123.245 174.585C123.884 168.604 122.068 163.592 120.149 158.284C118.376 153.389 116.544 148.328 116.544 142.006C116.544 130.268 120.541 109.473 124.405 96.5594C128.003 84.5398 131.4 73.187 131.4 63.7475Z" fill="#2B1C14"/>
<path d="M62.4972 63.7477C62.4972 60.051 63.2277 57.0021 63.8399 55.0953C64.3027 53.6539 65.6275 52.4978 67.2962 52.0789C71.6788 50.9763 80.9889 49.1288 94.1099 49.1288C107.23 49.1288 116.541 50.9763 120.924 52.0789C122.593 52.4978 123.917 53.6539 124.38 55.0959C124.993 57.0003 125.722 60.0481 125.722 63.7477C125.722 64.2752 125.709 64.812 125.685 65.3564C123.838 64.6064 121.631 63.9406 119.054 63.373C117.96 63.1307 116.814 63.3712 115.912 64.0301C115.023 64.679 114.452 65.6788 114.347 66.7722L113.414 76.3762C113.216 77.7473 112.237 78.8808 110.909 79.2706C107.527 80.2635 105.059 83.1712 104.622 86.6786L104.255 89.6241C104.165 90.3497 103.547 90.897 102.818 90.897C102.244 90.897 101.782 90.4461 101.766 89.8803L101.162 65.0531C101.109 62.8873 99.4001 61.1519 97.2714 61.1037C86.0712 60.8522 71.3359 61.7445 62.5221 64.8399C62.5111 64.4739 62.4972 64.1056 62.4972 63.7477Z" fill="#F3E9C1"/>
<path d="M77.8275 39.0384C78.5857 39.2139 79.3804 39.0675 80.028 38.637C80.6756 38.2065 81.1193 37.5291 81.2554 36.7616C82.0658 32.1934 86.5242 30.0224 90.0952 29.5512C93.5753 29.0928 98.3193 30.0195 100.243 34.1426C100.562 34.8281 101.141 35.3568 101.849 35.6142C102.559 35.871 103.34 35.8349 104.023 35.5131C108.431 33.4332 114.79 34.6103 118.503 38.1937C120.221 39.8529 121.854 42.4899 121.561 46.3726C115.829 44.9893 106.605 43.4329 94.1099 43.4329C81.3371 43.4329 71.9835 45.0602 66.2826 46.4644C66.5155 44.5286 67.3218 42.8594 68.6859 41.5441C70.993 39.3202 74.6648 38.3128 77.8275 39.0384Z" fill="#F3E9C1"/>
<path d="M117.598 173.979C117.375 176.074 114.163 178.079 108.787 179.479C103.242 180.922 96.9517 181.308 94.1099 181.308C91.2676 181.308 84.9782 180.922 79.4343 179.479C74.0577 178.079 70.8459 176.074 70.6217 173.979C70.4636 172.499 70.5099 171.066 70.701 169.644C73.3007 171.131 76.7727 172.31 81.0805 173.16C85.9878 174.127 91.0278 174.471 94.1099 174.471C99.6735 174.471 110.856 173.413 117.518 169.634C117.711 171.059 117.757 172.496 117.598 173.979Z" fill="#B25C1E"/>
<path d="M110.866 142.006C110.866 149.329 112.962 155.12 114.811 160.228C115.252 161.449 115.679 162.627 116.062 163.782C111.598 167.416 100.272 168.776 94.11 168.776C87.3357 168.776 76.369 167.221 72.1573 163.783C72.5407 162.628 72.9677 161.449 73.4096 160.228C75.2591 155.12 77.3542 149.329 77.3542 142.006C77.3542 129.431 73.2358 108.229 69.253 94.9216C66.6597 86.2559 64.1748 77.9497 63.0812 70.7161C69.0914 68.1575 81.7519 66.5924 95.5233 66.7696L96.0898 90.0275C96.1906 93.7091 99.1453 96.5925 102.818 96.5925C106.404 96.5925 109.445 93.9002 109.891 90.3296L110.257 87.3847C110.413 86.1315 111.296 85.091 112.504 84.7366C116.001 83.7095 118.57 80.7059 119.049 77.0824L119.796 69.4066C122.308 70.0654 123.959 70.7347 125.041 71.3081C123.905 78.4029 121.49 86.4894 118.966 94.9216C114.984 108.229 110.866 129.431 110.866 142.006Z" fill="#EEB40D"/>
<path d="M75.9803 75.3617C75.6472 73.8245 74.1319 72.8496 72.6021 73.1849C71.07 73.5195 70.0981 75.037 70.4317 76.5736C71.4199 81.1226 73.0887 86.3688 74.856 91.9234C80.1375 108.53 86.7107 136.638 81.2519 156.351C80.832 157.866 81.7159 159.436 83.2271 159.858C83.482 159.929 83.7369 159.962 83.9888 159.962C85.2325 159.962 86.3742 159.136 86.7229 157.876C92.6358 136.527 85.7764 107.52 80.2661 90.1927C78.5405 84.77 76.9117 79.647 75.9803 75.3617Z" fill="#F3E9C1"/>
<path d="M18.4138 51.0134C16.9564 53.5371 15.4927 55.3288 17.8782 60.4605C31.2415 89.5735 37.7536 121.43 36.897 153.547C36.5881 163.076 41.5425 167.945 46.1074 174.255C45.7764 177.014 45.3856 179.771 44.9498 182.524L49.471 183.317C49.9211 180.476 50.3241 177.634 50.6651 174.789C56.3145 169.806 62.543 165.088 62.8917 154.164C63.8423 118.065 56.5132 82.2387 41.4653 49.4848C38.771 43.699 36.5388 43.9401 33.3921 43.3272C36.8959 50.232 40.0401 57.2902 42.8193 64.4756C42.8197 64.475 42.4906 65.3883 41.9835 66.7205C41.3359 65.3569 40.5338 64.0288 39.6489 62.7751C36.9135 55.9475 33.8429 49.2397 30.4421 42.6759C27.5556 37.1747 25.3477 37.5372 22.2004 37.1212C25.4081 42.7607 28.3591 48.5205 31.0505 54.3847C30.071 53.7922 29.351 53.5295 29.0655 53.6643C28.7801 53.7991 28.5247 54.5253 28.3328 55.6484C25.6785 49.8636 22.7672 44.1812 19.6026 38.6178C18.3163 41.554 16.9329 43.143 19.6569 48.3363C22.874 54.548 25.7783 60.8951 28.3661 67.3566C28.5627 68.8032 28.8367 70.2411 29.2223 71.6099C27.9859 71.0144 27.1495 70.6205 27.1499 70.6205C24.5746 63.9579 21.6605 57.4139 18.4138 51.0134Z" fill="#2B1C14"/>
<path d="M50.987 151.643C52.1048 145.573 55.1082 141.074 59.444 138.519C58.6754 144.904 55.4431 149.457 50.987 151.643Z" fill="#EEB40D"/>
<path d="M50.8067 138.208C51.56 132.099 54.2906 127.439 58.4663 124.632C58.0794 131.039 55.1232 135.766 50.8067 138.208Z" fill="#EEB40D"/>
<path d="M49.8258 124.843C50.2143 118.713 52.6632 113.902 56.6645 110.854C56.6586 117.264 53.9894 122.15 49.8258 124.843Z" fill="#EEB40D"/>
<path d="M48.0522 111.582C48.075 105.447 50.2336 100.5 54.046 97.2177C54.4218 103.615 52.0478 108.648 48.0522 111.582Z" fill="#EEB40D"/>
<path d="M45.4922 98.4614C45.1503 92.3398 47.0095 87.2696 50.6189 83.7635C51.3758 90.1292 49.3068 95.294 45.4922 98.4614Z" fill="#EEB40D"/>
<path d="M42.1545 85.5186C41.4468 79.4248 42.9983 74.2489 46.39 70.5272C47.5297 76.8435 45.7723 82.1269 42.1545 85.5186Z" fill="#EEB40D"/>
<path d="M38.0453 75.9619C32.9045 73.4574 32.3112 65.2977 32.073 60.4094C35.4183 63.7715 40.6141 70.7628 38.0453 75.9619Z" fill="#EEB40D"/>
<path d="M40.1385 139.355C44.6471 141.303 47.9741 145.542 48.8972 151.613C44.509 149.299 41.3888 145.093 40.1385 139.355Z" fill="#EEB40D"/>
<path d="M39.2449 126.626C43.8619 128.294 47.4344 132.317 48.7187 138.305C44.2002 136.265 40.8349 132.266 39.2449 126.626Z" fill="#EEB40D"/>
<path d="M37.5962 113.996C42.3048 115.383 46.1094 119.178 47.7476 125.064C43.1148 123.303 39.5192 119.524 37.5962 113.996Z" fill="#EEB40D"/>
<path d="M35.1998 101.499C39.9814 102.6 44.0054 106.157 45.9906 111.927C41.2621 110.451 37.4479 106.898 35.1998 101.499Z" fill="#EEB40D"/>
<path d="M32.0617 89.1695C36.9006 89.9817 41.1304 93.2932 43.4556 98.9309C38.6483 97.7417 34.6287 94.4267 32.0617 89.1695Z" fill="#EEB40D"/>
<path d="M28.1896 77.0399C33.0693 77.5616 37.4905 80.6181 40.1496 86.1094C35.2785 85.2095 31.0684 82.139 28.1896 77.0399Z" fill="#EEB40D"/>
<path d="M50.3601 165.109C51.8419 159.095 55.1094 154.773 59.5906 152.473C58.4408 158.82 54.9386 163.19 50.3601 165.109Z" fill="#EEB40D"/>
<path d="M40.269 152.148C44.6536 154.371 47.7202 158.816 48.2759 164.955C44.0345 162.373 41.1736 157.969 40.269 152.148Z" fill="#EEB40D"/>
<path d="M169.806 51.0134C171.263 53.5371 172.727 55.3288 170.341 60.4605C156.978 89.5735 150.466 121.43 151.322 153.547C151.632 163.076 146.678 167.945 142.113 174.255C142.443 177.014 142.834 179.771 143.27 182.524L138.749 183.317C138.299 180.476 137.896 177.634 137.555 174.789C131.905 169.806 125.677 165.088 125.328 154.164C124.378 118.065 131.706 82.2387 146.754 49.4848C149.449 43.699 151.68 43.9401 154.828 43.3272C151.323 50.232 148.179 57.2902 145.4 64.4756C145.4 64.4756 145.729 65.3883 146.236 66.7205C146.884 65.3569 147.686 64.0288 148.571 62.7751C151.305 55.9475 154.377 49.2397 157.777 42.6759C160.664 37.1747 162.872 37.5372 166.019 37.1212C162.812 42.7607 159.86 48.5205 157.168 54.3847C158.147 53.7922 158.869 53.5295 159.155 53.6643C159.44 53.7991 159.694 54.5253 159.886 55.6484C162.541 49.8636 165.453 44.1812 168.616 38.6178C169.903 41.554 171.287 43.143 168.564 48.3363C165.346 54.548 162.441 60.8951 159.854 67.3566C159.657 68.8032 159.383 70.2411 158.997 71.6099C160.234 71.0144 161.07 70.6205 161.069 70.6205C163.645 63.9579 166.56 57.4139 169.806 51.0134Z" fill="#2B1C14"/>
<path d="M128.775 138.519C133.112 141.074 136.115 145.573 137.232 151.643C132.777 149.457 129.544 144.904 128.775 138.519Z" fill="#EEB40D"/>
<path d="M129.754 124.632C133.929 127.439 136.66 132.099 137.413 138.208C133.096 135.766 130.141 131.039 129.754 124.632Z" fill="#EEB40D"/>
<path d="M131.554 110.854C135.557 113.902 138.005 118.713 138.394 124.843C134.23 122.15 131.561 117.264 131.554 110.854Z" fill="#EEB40D"/>
<path d="M134.174 97.2177C137.986 100.5 140.145 105.447 140.168 111.582C136.173 108.648 133.797 103.615 134.174 97.2177Z" fill="#EEB40D"/>
<path d="M137.602 83.7635C141.21 87.2696 143.07 92.3398 142.727 98.4614C138.913 95.294 136.843 90.1292 137.602 83.7635Z" fill="#EEB40D"/>
<path d="M141.83 70.5272C145.222 74.2489 146.772 79.4248 146.065 85.5186C142.447 82.1269 140.69 76.8435 141.83 70.5272Z" fill="#EEB40D"/>
<path d="M156.146 60.4094C155.907 65.2977 155.314 73.4574 150.175 75.9619C147.605 70.7628 152.802 63.7715 156.146 60.4094Z" fill="#EEB40D"/>
<path d="M139.321 151.613C140.245 145.542 143.572 141.303 148.081 139.355C146.831 145.093 143.711 149.299 139.321 151.613Z" fill="#EEB40D"/>
<path d="M139.5 138.305C140.785 132.317 144.358 128.294 148.975 126.626C147.384 132.266 144.019 136.265 139.5 138.305Z" fill="#EEB40D"/>
<path d="M140.472 125.064C142.11 119.178 145.914 115.383 150.623 113.996C148.7 119.524 145.105 123.303 140.472 125.064Z" fill="#EEB40D"/>
<path d="M142.229 111.927C144.214 106.157 148.238 102.6 153.021 101.499C150.772 106.898 146.958 110.451 142.229 111.927Z" fill="#EEB40D"/>
<path d="M144.764 98.9309C147.089 93.2932 151.319 89.9817 156.158 89.1695C153.591 94.4267 149.571 97.7417 144.764 98.9309Z" fill="#EEB40D"/>
<path d="M148.07 86.1094C150.73 80.6181 155.15 77.5616 160.03 77.0399C157.151 82.139 152.941 85.2095 148.07 86.1094Z" fill="#EEB40D"/>
<path d="M128.629 152.473C133.11 154.773 136.378 159.095 137.859 165.109C133.281 163.19 129.78 158.82 128.629 152.473Z" fill="#EEB40D"/>
<path d="M139.944 164.955C140.499 158.816 143.566 154.371 147.95 152.148C147.046 157.969 144.185 162.373 139.944 164.955Z" fill="#EEB40D"/>
<path d="M164.897 109.135C164.897 115.149 160.037 120.025 154.042 120.025H34.1782C28.1826 120.025 23.3224 115.149 23.3224 109.135L23.3586 110.625V143.973C23.3586 151.38 29.3449 157.385 36.7289 157.385C42.5111 157.385 145.706 157.385 151.49 157.385C158.875 157.385 164.861 151.38 164.861 143.973V110.625L164.897 109.135Z" fill="#F3E9C1"/>
<path d="M26.5182 120.903V143.973C26.5182 149.621 31.0992 154.215 36.7289 154.215H151.49C157.12 154.215 161.702 149.621 161.702 143.973V120.903C159.498 122.351 156.866 123.193 154.042 123.193H34.1782C31.353 123.193 28.7214 122.351 26.5182 120.903ZM151.49 160.553H36.7289C27.6145 160.553 20.1991 153.116 20.1991 143.973V110.663L20.1776 109.791C20.1681 109.573 20.1626 109.355 20.1626 109.135L26.4811 109.058L26.4929 109.552C26.7096 113.616 30.0736 116.855 34.1782 116.855H154.042C158.286 116.855 161.738 113.392 161.738 109.135H168.058C168.058 109.638 168.031 110.134 167.979 110.625H168.021V143.973C168.021 153.116 160.606 160.553 151.49 160.553Z" fill="#2B1C14"/>
<path d="M6.15312 134.143L6.01532 134.127L5.77025 134.157L5.663 134.127H5.38718L5.29487 134.157L5.14168 134.143L5.0195 134.127H4.89664L4.78939 134.157L4.66698 134.127L4.54366 134.143H4.17621L4.08389 134.127H3.83884L3.7015 134.157L3.59402 134.143H3.47139L3.33291 134.127L3.2415 134.143L3.10302 134.157H2.99668L2.72064 134.127L2.61316 134.143L2.49052 134.127H2.01582L1.89273 134.157H1.76987L1.64723 134.127L1.53998 134.143L1.4178 134.127L1.26484 134.143L1.15736 134.127H0.911639L0.774069 134.143H0.651432L0.57518 134.018L0.651432 133.866L0.666591 133.758L0.712976 133.619L0.759136 133.496L0.789002 133.281L0.805064 133.158L0.789002 133.02L0.805064 132.912V132.666L0.789002 132.544L0.805064 132.42L0.774069 132.298V132.159L0.789002 132.052L0.805064 131.914L0.789002 131.775L0.774069 131.668L0.789002 131.545L0.774069 131.421L0.805064 131.314L0.789002 131.191V131.053L0.805064 130.945V130.822L0.789002 130.684L0.805064 130.561L0.789002 130.438L0.805064 130.33L0.774069 130.191L0.789002 130.053L0.805064 129.961L0.774069 129.838L0.805064 129.699L0.789002 129.577L0.774069 129.439L0.805064 129.347L0.789002 129.207L0.774069 129.1L0.805064 128.962L0.789002 128.839V128.593L0.774069 128.455L0.805064 128.363L0.774069 128.209V128.101L0.789002 127.963L0.774069 127.84L0.805064 127.717L0.774069 127.625L0.805064 127.487L0.774069 127.348L0.805064 127.225V126.979L0.789002 126.871V126.749L0.774069 126.64V126.379L0.805064 126.241V126.149L0.789002 126.01L0.805064 125.872L0.774069 125.657L0.789002 125.519L0.774069 125.396L0.789002 125.258V125.135L0.774069 125.042L0.789002 124.919L0.774069 124.797L0.805064 124.52L0.774069 124.428L0.805064 124.305L0.789002 124.151L0.774069 124.058L0.805064 123.921L0.774069 123.782V123.444L0.805064 123.305L0.774069 123.09L0.697366 122.952L0.681749 122.813L0.651432 122.691L0.605272 122.583L0.651432 122.476L0.789002 122.46H1.01912L1.15736 122.476H1.27954L1.4178 122.46L1.50943 122.476L1.66284 122.445L1.76987 122.476L1.90834 122.46H1.99998L2.13823 122.476L2.22986 122.445L2.3525 122.476L2.50591 122.445L2.59778 122.46L2.72064 122.445H3.08787L3.21073 122.46L3.36414 122.476H3.44061L3.5628 122.46L3.7015 122.445H4.06873L4.19137 122.476L4.32962 122.445H4.43687L4.54366 122.476H4.6973L4.80455 122.46L4.91157 122.476H5.14168L5.41796 122.445L5.50937 122.476L5.632 122.445H5.77025L5.90804 122.46L6.00014 122.445L6.13771 122.46H6.26011L6.41378 122.583V122.798L6.47506 122.952L6.45989 123.059L6.47506 123.153L6.52123 123.275L6.55135 123.428L6.5364 123.536L6.5667 123.643L6.59769 123.767V123.874L6.61286 124.012L6.62873 124.104L6.67397 124.243L6.68979 124.351V124.473L6.59769 124.581L6.52123 124.52L6.38296 124.504L6.26011 124.473L6.13771 124.458L6.06148 124.397L5.78541 124.366H5.54036L5.43312 124.397H5.29487L5.17223 124.366L5.04937 124.397H4.94234L4.82016 124.366L4.66698 124.381H4.29884L4.17621 124.397H4.06873L3.93139 124.366L3.82368 124.397L3.67028 124.381L3.57864 124.366H3.33291L3.21073 124.381L3.07293 124.366L2.87292 124.443L2.78173 124.55L2.7057 124.704V124.981L2.72064 125.073L2.73557 125.212L2.7057 125.35L2.73557 125.426L2.72064 125.55V125.687L2.73557 125.826V125.934L2.7057 126.057V126.165L2.73557 126.303V126.41L2.72064 126.548L2.73557 126.671L2.7057 126.795V126.886L2.78173 127.117L3.05777 127.257L3.21073 127.271H3.42545L3.57864 127.24H3.82368L4.03864 127.194L4.19137 127.148L4.29884 127.117L4.43687 127.086L4.5595 127.026L4.68236 127.133L4.6973 127.225L4.66698 127.471L4.68236 127.625L4.6973 127.717L4.66698 127.84L4.68236 127.994L4.66698 128.086L4.6973 128.224V128.363L4.66698 128.485V128.608L4.68236 128.716L4.66698 128.823L4.6973 128.962L4.66698 129.07L4.68236 129.192V129.33L4.52873 129.423L4.42125 129.362L4.31378 129.33L4.16127 129.3L4.03864 129.254L3.80875 129.207L3.7015 129.224L3.54786 129.207L3.456 129.192L3.30259 129.224L3.19534 129.207H3.05777L2.85798 129.285L2.81182 129.347L2.7057 129.546L2.73557 129.639L2.72064 129.791V129.915L2.7057 130.023L2.73557 130.13V130.252L2.7057 130.392V130.514L2.72064 130.607V130.836L2.7057 130.975V131.344L2.72064 131.437L2.73557 131.575V131.836L2.79689 132.021L2.85798 132.112L3.08787 132.175L3.21073 132.159L3.30259 132.19L3.456 132.159L3.54786 132.19L3.67028 132.175L3.80875 132.19L3.96148 132.159L4.08389 132.19L4.2072 132.175L4.31378 132.19L4.45225 132.159L4.5595 132.19L4.66698 132.175L4.80455 132.159L4.95818 132.19L5.06475 132.175L5.18807 132.19L5.29487 132.159L5.44827 132.19L5.54036 132.159L5.663 132.19H5.78541L6.0302 132.129L6.15312 132.112L6.26011 132.083L6.36784 132.036L6.52123 132.005L6.59769 131.975L6.68979 132.036V132.313L6.65903 132.406L6.64362 132.558L6.59769 132.682L6.61286 132.789L6.55135 132.897L6.5667 133.02L6.5364 133.158L6.49024 133.266V133.419L6.45989 133.527V133.635L6.41378 133.758L6.39883 133.912L6.38296 134.003L6.24516 134.111L6.15312 134.143Z" fill="#B25C1E"/>
<path d="M13.6299 125.657L13.6762 125.794L13.7217 125.903L13.7525 126.041L13.6914 126.165L13.5842 126.134L13.4461 126.148L13.3386 126.165L13.2165 126.148H12.8481L12.7106 126.134L12.5877 126.165H12.4499L12.327 126.134L12.2356 126.165L12.1129 126.134H11.9899L11.8369 126.165L11.7297 126.148H11.607L11.4688 126.134L11.3923 126.041L11.4534 125.903L11.4688 125.794L11.5457 125.657V125.519L11.5916 125.288L11.6222 125.149V124.889L11.5916 124.75L11.5457 124.566L11.4688 124.504L11.2547 124.427H11.1162L10.9941 124.443L10.8862 124.427L10.7339 124.443H10.4879L10.3653 124.412L10.258 124.443H10.1515L10.0132 124.427L9.79824 124.473L9.72225 124.566L9.66044 124.75L9.64555 124.903V125.026L9.67562 125.119L9.66044 125.258L9.64555 125.38L9.67562 125.502L9.64555 125.611V125.749L9.66044 125.872V125.98L9.67562 126.103L9.64555 126.256L9.67562 126.502L9.66044 126.594L9.64555 126.748L9.66044 126.871V126.979L9.72225 127.163L9.82923 127.256L10.0132 127.347L10.1515 127.332L10.2431 127.347H10.3653L10.4879 127.332L10.6264 127.317L10.8712 127.347L10.9941 127.317L11.1321 127.347H11.4688L11.5916 127.332L11.7451 127.317L11.8369 127.347L11.9747 127.332L12.0822 127.317L12.2356 127.332L12.3578 127.347L12.4655 127.317L12.6494 127.41L12.7567 127.487L12.8329 127.579L12.9094 127.685L13.0015 127.778L13.0938 127.839L13.2165 127.963L13.2925 128.009L13.3848 128.1L13.4615 128.208L13.5226 128.424V128.516L13.5378 128.67V128.763L13.5529 128.915V129.131L13.5378 129.284L13.5529 129.392L13.5226 129.515L13.5529 129.622L13.5226 129.776V130.375L13.5378 130.483L13.5226 130.622V130.713L13.5529 130.852L13.5378 130.975L13.5226 131.113V131.329L13.5378 131.483L13.5529 131.559V131.713L13.5226 131.82V131.96L13.5378 132.082L13.5529 132.175L13.5378 132.327L13.5529 132.45L13.5226 132.573V132.804L13.5378 132.912L13.5529 133.065L13.4615 133.265L13.3543 133.342L13.2617 133.434L13.2004 133.527L13.0938 133.603L13.0318 133.711L12.9094 133.787L12.8481 133.865L12.7716 133.973L12.6494 134.034L12.4807 134.126L12.3578 134.11L12.0822 134.142L11.9899 134.126H11.8369L11.7451 134.11L11.607 134.126L11.4998 134.11L11.3617 134.126L11.2699 134.142H11.1162L11.009 134.11L10.9024 134.142L10.7488 134.126L10.6413 134.11L10.5189 134.126L10.3811 134.11L10.2739 134.142L10.1664 134.126H9.92156L9.81435 134.142L9.69149 134.11L9.55322 134.126H9.41565L9.30838 134.11L9.17058 134.142H9.07848L8.92486 134.11H8.81764L8.60356 134.049L8.51128 133.942L8.41959 133.865L8.32755 133.773L8.23499 133.696L8.17388 133.618L8.06666 133.527L7.88292 133.358L7.80646 133.235L7.71413 133.019L7.68378 132.912L7.71413 132.804V132.65L7.69896 132.544L7.68378 132.42L7.71413 132.297L7.69896 132.175V131.79L7.71413 131.668L7.69896 131.575V131.436L7.71413 131.314L7.66797 131.083L7.62273 130.945L7.60686 130.806L7.53016 130.713L7.49987 130.591L7.59174 130.437L7.69896 130.453H7.97502L8.08247 130.437H8.22004L8.32755 130.467H8.44994L8.57234 130.437L8.71083 130.467L8.78729 130.453H9.4306L9.55322 130.467L9.66044 130.437L9.79824 130.467L9.85958 130.561L9.81435 130.713L9.78312 130.822L9.75254 130.945L9.70661 131.067L9.67562 131.314V131.559L9.64555 131.728L9.66044 131.851L9.75254 132.052L9.82923 132.112L10.0281 132.158L10.1515 132.175L10.2431 132.189H10.3811L10.5189 132.158H10.8712L11.009 132.175L11.1011 132.158L11.2389 132.175L11.4534 132.097L11.5301 132.02L11.5916 131.82L11.6222 131.605V131.466L11.607 131.329V131.221L11.6222 131.097L11.5916 130.991V130.713L11.607 130.606L11.5916 130.483V130.237L11.6222 130.115L11.5916 129.992L11.6222 129.868L11.5916 129.761L11.6222 129.638L11.5149 129.423L11.4534 129.362L11.2389 129.269L11.1321 129.284L11.0248 129.269H10.7488L10.6264 129.284L10.5341 129.269H10.3963L10.2893 129.254L10.1664 129.284H10.0281L9.93651 129.254H9.56857L9.4306 129.284L9.2928 129.254L9.17058 129.284H8.94073L8.81764 129.269L8.60356 129.192L8.52594 129.115L8.41959 129.008L8.34243 128.9L8.17388 128.746L8.06666 128.67L7.95985 128.546L7.86751 128.47L7.80646 128.362L7.71413 128.178L7.69896 128.07L7.71413 127.916V127.794L7.69896 127.671L7.71413 127.579L7.68378 127.44L7.71413 127.301L7.69896 127.179L7.71413 127.086V126.81L7.69896 126.687L7.71413 126.594L7.68378 126.44L7.71413 126.334L7.69896 126.194L7.68378 126.087L7.69896 125.949L7.71413 125.841V125.719L7.69896 125.626V125.473L7.68378 125.35L7.71413 125.258L7.68378 125.103V124.734L7.69896 124.642L7.68378 124.519L7.69896 124.397L7.68378 124.258L7.71413 124.135L7.68378 123.889L7.69896 123.751L7.71413 123.629L7.69896 123.536L7.79152 123.336L7.88292 123.213L7.95985 123.152L8.05148 123.075L8.14358 122.951L8.23499 122.906L8.34243 122.813L8.41959 122.721L8.5425 122.644L8.63391 122.551L8.80247 122.475L8.92486 122.46L9.07848 122.445L9.17058 122.475L9.30838 122.46L9.4306 122.445H9.55322L9.67562 122.475H9.93651L10.0281 122.445L10.1664 122.46H10.2739L10.3811 122.445L10.504 122.46L10.6569 122.475L10.764 122.46L10.9024 122.445L11.009 122.46H11.1472L11.2699 122.445L11.3617 122.475H11.4688L11.607 122.46L11.7147 122.445H11.867L11.9899 122.475L12.0971 122.445H12.3428L12.4655 122.46L12.6644 122.522L12.7567 122.613L12.8481 122.721L12.9094 122.782L13.0015 122.875L13.0938 122.966L13.2165 123.044L13.2925 123.167L13.4764 123.336L13.5685 123.551V123.643L13.5378 123.798V123.92L13.5685 124.028L13.5529 124.15V124.289L13.5378 124.397L13.5529 124.519V124.889L13.5378 125.026L13.5529 125.134L13.5378 125.258L13.5685 125.519L13.6299 125.657Z" fill="#B25C1E"/>
<path d="M6.62056 137.589L6.65178 137.696L6.63614 137.82L6.66672 137.958L6.68167 138.05L6.72777 138.189L6.71312 138.311L6.77417 138.434V138.664L6.8201 138.803V138.895L6.85046 139.05L6.88168 139.157L6.91151 139.265V139.402L6.83551 139.495L6.68167 139.48L6.55945 139.449L6.45223 139.402L6.32955 139.387L6.23814 139.356L6.0083 139.295L5.86957 139.311L5.76232 139.326L5.63969 139.311L5.48696 139.326H5.3797L5.25707 139.295H5.11859L5.02696 139.311L4.87377 139.295H4.75113L4.53664 139.434L4.42916 139.633L4.4441 139.756L4.45993 139.895L4.4441 140.018V140.248L4.42916 140.402L4.45993 140.525V140.74L4.42916 140.894V140.987L4.4441 141.139L4.42916 141.232L4.45993 141.371L4.42916 141.509L4.45993 141.601L4.4441 141.755L4.45993 141.877V141.985L4.4441 142.123V142.476L4.45993 142.616L4.42916 142.723V142.861L4.45993 143.107L4.42916 143.199L4.45993 143.445L4.42916 143.568V143.83L4.4441 143.952L4.42916 144.106L4.4441 144.199L4.45993 144.337L4.42916 144.46L4.4441 144.566L4.42916 144.691V144.952L4.4441 145.06L4.45993 145.213L4.4441 145.321V145.428L4.45993 145.551V145.935L4.42916 146.043V146.289L4.4441 146.443V146.673L4.42916 146.796L4.45993 146.919V147.026L4.42916 147.149L4.4441 147.288V147.411L4.42916 147.534L4.4441 147.672V147.887L4.45993 148.011L4.4441 148.164L4.47532 148.41L4.53664 148.502L4.55157 148.657L4.5828 148.749L4.65905 148.902L4.5828 148.994H4.45993L4.33775 149.009L4.18389 149.025H4.09202L3.96939 149.009H3.72434L3.58677 149.025L3.46323 149.009H3.32544L3.21841 149.025L3.11116 148.994H2.98853L2.85073 149.009L2.74348 148.994L2.62107 149.025L2.46744 148.994L2.34525 149.009L2.26855 148.886L2.3147 148.779L2.39141 148.657V148.502L2.46744 148.41L2.48259 148.134L2.51359 148.041L2.49866 147.917L2.48259 147.78V147.672L2.51359 147.518L2.49866 147.427L2.51359 147.273V147.165L2.48259 147.042L2.49866 146.934L2.48259 146.811L2.51359 146.688V146.166L2.48259 146.074L2.49866 145.95V145.797L2.48259 145.674L2.49866 145.551L2.48259 145.459V145.198L2.51359 145.06L2.48259 144.937V144.829L2.49866 144.705L2.48259 144.566L2.51359 144.321L2.49866 144.213V144.075L2.51359 143.983L2.48259 143.814L2.49866 143.722L2.51359 143.6L2.49866 143.445L2.48259 143.353L2.51359 143.215L2.49866 143.107L2.51359 142.984L2.48259 142.846V142.707L2.49866 142.6L2.51359 142.476V142.371L2.48259 142.246V141.877L2.51359 141.723L2.48259 141.616L2.49866 141.509V141.386L2.48259 141.262L2.51359 141.139L2.48259 141.017L2.51359 140.878L2.49866 140.755V140.632L2.48259 140.494V140.402L2.51359 140.248L2.49866 140.125L2.51359 140.033L2.49866 139.895L2.48259 139.772V139.664L2.42128 139.434L2.32964 139.372L2.14614 139.326L1.9925 139.311H1.90041L1.778 139.326L1.64043 139.311L1.51779 139.326L1.37932 139.295L1.27275 139.326L1.16505 139.295L1.01163 139.326L0.904387 139.311L0.552089 139.356L0.42968 139.387L0.306817 139.434L0.214953 139.449L0.0769308 139.495L0 139.387L0.0158387 139.295V139.157L0.0461583 139.034L0.0769308 138.926V138.788L0.0923166 138.649L0.153635 138.542L0.168794 138.434L0.184633 138.327V138.204L0.229886 138.08V137.82L0.290978 137.696V137.466L0.42968 137.343L0.582862 137.328H0.797135L0.919546 137.312L1.05779 137.328L1.19559 137.312L1.318 137.328L1.42548 137.312L1.54789 137.343L1.67052 137.312H1.80877L1.90041 137.343L2.05359 137.312L2.17645 137.343H2.26855L2.40634 137.328L2.51359 137.343H2.63623L2.75841 137.312L2.89711 137.328L3.01952 137.312H3.127L3.26434 137.328H3.40214L3.49445 137.343H3.64787L3.73928 137.312H3.89291L4.01532 137.328L4.13818 137.312H4.24521L4.383 137.343L4.62873 137.312L4.73598 137.328L4.87377 137.312L4.98102 137.343L5.22652 137.312H5.57859L5.732 137.328H5.83951L5.9619 137.343L6.0997 137.328L6.20669 137.312L6.32955 137.343L6.46804 137.328L6.57439 137.435L6.62056 137.589Z" fill="#B25C1E"/>
<path d="M11.6604 144.152L11.4606 144.044L11.3692 144.06H11.2463L11.1085 144.044L11.0013 144.06H10.8637L10.7409 144.075L10.6336 144.044L10.4797 144.075H10.2505L10.051 144.137L9.97401 144.199L9.88261 144.383L9.86726 144.505V144.645L9.89778 144.767V144.875L9.86726 145.028L9.89778 145.136L9.86726 145.244L9.89778 145.366V145.597L9.86726 145.736V145.859L9.88261 145.967L9.86726 146.074L9.89778 146.198V146.32L9.88261 146.458V146.704L9.94395 146.904L10.0351 146.996L10.2505 147.072H10.4952L10.6184 147.042L10.7409 147.058H10.9707L11.1085 147.042L11.2158 147.072L11.3384 147.058L11.4919 147.042L11.6755 146.996L11.7366 146.919L11.8292 146.704V146.473L11.8442 146.336L11.8292 146.212V146.089L11.8442 145.967L11.8133 145.843L11.8292 145.736L11.8442 145.597L11.8133 145.505L11.8442 145.366L11.8133 145.258L11.8442 145.136L11.8292 144.998L11.8442 144.905L11.8133 144.783V144.629L11.8442 144.505L11.8133 144.414L11.7518 144.199L11.6604 144.152ZM9.89778 139.74L9.86726 139.863L9.89778 139.987L9.86726 140.079V140.448L9.89778 140.571L9.86726 140.679V140.909L9.89778 141.155L9.86726 141.293L9.89778 141.401L9.86726 141.539V141.631L9.89778 141.785L9.97401 141.955L10.051 142.047L10.2655 142.107H10.3725L10.511 142.123H10.6336L10.7409 142.107L10.8483 142.123L11.0013 142.107L11.1085 142.123L11.3536 142.093H11.4919L11.6905 142.016L11.7366 141.969L11.8442 141.77L11.8292 141.662L11.8442 141.539V141.386L11.8133 141.308L11.8442 141.171V141.047L11.8133 140.909L11.8442 140.818L11.8133 140.694L11.8442 140.448L11.8133 140.325L11.8292 140.187V140.109L11.8133 139.957V139.849L11.8292 139.726V139.587L11.7366 139.402L11.6755 139.341L11.4762 139.249H11.3692L11.2463 139.265L11.1085 139.28L11.0013 139.249L10.8483 139.28H10.6026L10.511 139.249H10.3886L10.2655 139.265L10.051 139.356L9.95889 139.434L9.88261 139.618L9.89778 139.74ZM7.89013 137.85L7.82856 137.727L7.81367 137.604L7.75256 137.481L7.82856 137.343L7.9363 137.359H8.08991L8.18109 137.343H8.33453L8.45738 137.328H8.54925L8.79427 137.359H8.9169L9.03935 137.328L9.16221 137.343H9.26919L9.40792 137.328L9.54572 137.359L9.65277 137.343L9.79051 137.359L9.91296 137.343H10.0204L10.1277 137.328L10.2808 137.359L10.3725 137.343L10.511 137.328H10.6026L10.7409 137.343H10.8483L10.9707 137.328L11.1235 137.343L11.2158 137.328L11.3692 137.359L11.4606 137.328H11.5681L11.7217 137.343H11.9356L12.0894 137.328L12.1967 137.359L12.3342 137.343H12.4571L12.5643 137.359L12.6716 137.328L12.8711 137.419L12.9777 137.527L13.0852 137.589L13.1777 137.696L13.2538 137.788L13.3461 137.835L13.4072 137.958L13.5149 138.035L13.6221 138.112L13.6832 138.219L13.7749 138.404L13.8059 138.557L13.7749 138.664V138.803L13.7907 138.895L13.8059 139.018L13.7907 139.172L13.8059 139.295L13.7907 139.402L13.7749 139.542L13.8059 139.786V139.895L13.7907 140.033L13.8059 140.141V140.248L13.7749 140.386V140.51L13.7907 140.648L13.8059 140.771V140.894L13.7907 141.002V141.139L13.7749 141.247V141.877L13.7907 141.985L13.7138 142.2L13.5909 142.277L13.4993 142.354L13.4072 142.431L13.3151 142.538L13.2388 142.646L13.1621 142.707L13.0701 142.785L12.9478 142.877L12.8711 143V143.169L12.9478 143.261L13.0399 143.323L13.1463 143.43L13.2388 143.507L13.3309 143.614L13.4228 143.676L13.5149 143.798L13.6063 143.86L13.7138 143.952L13.7749 144.184V144.306L13.8059 144.398L13.7907 144.521V144.645L13.8059 144.767V144.905L13.7907 145.028L13.8059 145.151L13.7749 145.258L13.8059 145.398L13.7907 145.52L13.8059 145.613V145.889L13.7749 145.997V146.581L13.8059 146.735L13.7749 146.98L13.8059 147.181L13.7907 147.303L13.8059 147.457L13.7749 147.58L13.8059 147.702L13.7749 147.811V147.917L13.6832 148.134L13.6063 148.226L13.4993 148.318L13.4228 148.41L13.3151 148.472L13.2696 148.565L13.1621 148.687L13.0701 148.764L12.9628 148.825L12.9014 148.933L12.7024 149.041L12.549 149.025L12.4265 149.009H12.3041L12.2116 149.025L12.0894 149.041L11.9516 149.025H11.7061L11.5835 149.009L11.4919 149.041L11.3536 149.009H11.1235L10.9857 149.041H10.8787L10.7409 149.009L10.6026 149.041L10.511 149.025L10.3576 149.041L10.2655 149.025H10.1426L10.0051 149.009H9.91296L9.79051 149.041L9.66765 149.009L9.53008 149.041L9.39187 149.025L9.26919 149.041H9.1468L9.03935 149.009H8.93207L8.79427 149.025L8.68729 149.041L8.54925 149.025L8.44198 149.009H7.81367L7.76751 148.902L7.78239 148.764L7.8442 148.625L7.89013 148.518L7.90595 148.41L7.98223 148.134L7.95124 148.041L7.98223 147.917V147.78L7.95124 147.657L7.96706 147.518L7.98223 147.411L7.96706 147.303V147.181L7.98223 147.058L7.95124 146.904V146.781L7.98223 146.673L7.95124 146.551L7.96706 146.412V146.289L7.95124 146.198L7.96706 146.043L7.95124 145.95V145.797L7.96706 145.674L7.95124 145.566L7.96706 145.428L7.98223 145.336L7.95124 145.213L7.98223 145.06V144.952L7.96706 144.813V144.721L7.95124 144.598L7.96706 144.46V144.337L7.98223 144.23L7.95124 144.091V143.983L7.96706 143.86L7.98223 143.722V143.491L7.96706 143.369V143.215L7.98223 143.107L7.95124 142.968L7.96706 142.846V142.753L7.98223 142.616V142.354L7.96706 142.262V142L7.98223 141.877L7.95124 141.755L7.96706 141.631L7.98223 141.493V141.371L7.96706 141.262L7.95124 141.124V140.878L7.96706 140.786L7.95124 140.632L7.98223 140.418L7.95124 140.264L7.98223 140.155L7.96706 140.048L7.95124 139.895L7.96706 139.802L7.95124 139.664V139.402L7.96706 139.295V139.034L7.95124 138.926L7.96706 138.788L7.95124 138.695V138.434L7.98223 138.327V138.173L7.9363 137.943L7.89013 137.85Z" fill="#B25C1E"/>
<path d="M177.807 133.635L177.853 133.742L177.884 133.88L177.945 133.988L177.838 134.126L177.73 134.11L177.608 134.126H177.363L177.255 134.142H177.102L176.995 134.126L176.873 134.142L176.749 134.126L176.611 134.142L176.519 134.126L176.381 134.11H176.259L176.137 134.126L176.029 134.142L175.908 134.11H175.631L175.585 134.018L175.631 133.895L175.646 133.773L175.707 133.618L175.753 133.527L175.769 133.265L175.784 133.112L175.8 133.005L175.769 132.865V132.742L175.784 132.65L175.769 132.497L175.8 132.251L175.769 132.129L175.8 131.913L175.784 131.775L175.769 131.668L175.8 131.529L175.784 131.39L175.8 131.267L175.769 131.16L175.8 131.021L175.769 130.898L175.8 130.791L175.769 130.668V130.561L175.784 130.407V130.284L175.8 130.16L175.784 130.052V129.808L175.769 129.699L175.8 129.546L175.784 129.423L175.8 129.3L175.769 129.192L175.8 129.054L175.769 128.915L175.784 128.793V128.684L175.769 128.577V128.193L175.8 128.086L175.784 127.947L175.769 127.824V127.716L175.784 127.562V127.455L175.769 127.332V127.21L175.784 127.071L175.769 126.963L175.784 126.825L175.8 126.702L175.784 126.61V126.456L175.769 126.363L175.784 126.226L175.769 126.103V125.872L175.784 125.733L175.769 125.626V125.473L175.8 125.38V125.226L175.692 125.026L175.616 124.965L175.447 124.858L175.325 124.889H175.079L174.941 124.872L174.849 124.781L174.911 124.627L174.926 124.519L174.957 124.427L175.034 124.166L175.064 124.074L175.095 123.951L175.11 123.844L175.171 123.735L175.186 123.613L175.248 123.49V123.397L175.309 123.243L175.325 123.167L175.37 123.044L175.401 122.921L175.416 122.813L175.463 122.706L175.509 122.551L175.678 122.46H176.029L176.167 122.445L176.275 122.46L176.413 122.429H176.519L176.643 122.46L176.78 122.445L176.903 122.429H176.995L177.133 122.46L177.24 122.445H177.378L177.516 122.429H177.622L177.745 122.551L177.73 122.69V122.951L177.762 123.059L177.745 123.167L177.762 123.29L177.745 123.428V123.536L177.73 123.658V123.798L177.762 123.935L177.745 124.043L177.762 124.15V124.273L177.73 124.397L177.745 124.55L177.762 124.642V124.781L177.73 124.903L177.762 125.011L177.73 125.288L177.745 125.38V125.765L177.73 125.903V126.01L177.762 126.148L177.73 126.256L177.745 126.379L177.762 126.487L177.745 126.626L177.762 126.732L177.73 126.886L177.745 126.994V127.117L177.73 127.256V127.363L177.745 127.501L177.73 127.609V127.716L177.762 127.87L177.745 127.978L177.73 128.1L177.745 128.239V128.331L177.762 128.455V128.607L177.745 128.699L177.73 128.839L177.745 128.976L177.73 129.069L177.762 129.224V129.33L177.745 129.454L177.762 129.561L177.745 129.699V129.822L177.762 129.96V130.052L177.73 130.207L177.762 130.299V130.683L177.73 130.822L177.762 130.928L177.73 131.052L177.762 131.19L177.745 131.282V131.406L177.73 131.544L177.745 131.668L177.762 131.805V131.928L177.745 132.052L177.73 132.158L177.745 132.282L177.73 132.42V132.666L177.745 132.774L177.73 132.897L177.745 133.034V133.158L177.762 133.281L177.776 133.511L177.807 133.635Z" fill="#B25C1E"/>
<path d="M183.201 124.473L183.017 124.412L182.894 124.397H182.771L182.633 124.427L182.511 124.397L182.387 124.412H182.158L182.005 124.427L181.914 124.412L181.76 124.427L181.56 124.504L181.515 124.566L181.422 124.766L181.407 124.858L181.422 124.996L181.407 125.134L181.437 125.258L181.422 125.35L181.407 125.473V125.626L181.422 125.749L181.407 125.872L181.437 125.98L181.407 126.118L181.437 126.21L181.422 126.334V126.456L181.407 126.579V126.732L181.422 126.857L181.437 126.963L181.498 127.148L181.575 127.225L181.79 127.332H182.02L182.158 127.301L182.25 127.332H182.617L182.771 127.301L182.879 127.317L183.001 127.332L183.215 127.24L183.292 127.179L183.354 126.948L183.369 126.857L183.354 126.732V126.594L183.338 126.471L183.369 126.349V126.226L183.354 126.087L183.338 125.994L183.354 125.857L183.338 125.733L183.354 125.611L183.369 125.473V125.119L183.354 124.981L183.369 124.872L183.338 124.734L183.277 124.55L183.201 124.473ZM184.502 122.629L184.595 122.736L184.702 122.813L184.81 122.921L184.871 122.998L184.947 123.059L185.055 123.181L185.131 123.275L185.238 123.336L185.316 123.536L185.331 123.658L185.299 123.812L185.316 123.904L185.331 124.058V124.15L185.316 124.289V124.412L185.331 124.55L185.316 124.642L185.299 124.766V125.011L185.316 125.149V125.258L185.331 125.395L185.316 125.534L185.331 125.626V125.749L185.316 125.872L185.299 126.026L185.331 126.148L185.316 126.256V126.379L185.331 126.487L185.316 126.626V126.748L185.299 126.871L185.331 126.994V127.117L185.299 127.256L185.316 127.379L185.299 127.487V127.625L185.316 127.731L185.299 127.87L185.316 127.963L185.331 128.1L185.316 128.208L185.299 128.331L185.331 128.485V128.577L185.316 128.731L185.331 128.839L185.316 128.947L185.331 129.069L185.316 129.224V129.346L185.331 129.454L185.299 129.561L185.316 129.699L185.299 129.822L185.316 129.93V130.052L185.299 130.191V130.437L185.316 130.576L185.331 130.668L185.316 130.822L185.331 130.945L185.316 131.052V131.529L185.331 131.668L185.316 131.775L185.331 131.928L185.299 132.02V132.266L185.316 132.42L185.299 132.528L185.331 132.635L185.299 132.788L185.331 132.897V133.005L185.223 133.235L185.161 133.327L185.069 133.418L184.947 133.527L184.856 133.603L184.81 133.681L184.717 133.773L184.595 133.865L184.519 133.942L184.441 134.049L184.211 134.126L184.105 134.11L183.997 134.126L183.875 134.142L183.751 134.126L183.614 134.142H183.124L183.031 134.126H182.894L182.755 134.11L182.664 134.142L182.525 134.126L182.418 134.142L182.296 134.11L182.143 134.142L182.02 134.126L181.928 134.11L181.79 134.126L181.699 134.11L181.56 134.126H181.315L181.177 134.142L181.07 134.11L180.963 134.142H180.825L180.703 134.11L180.565 134.126L180.38 134.034L180.288 133.957L180.197 133.865L180.12 133.757L180.043 133.665L179.936 133.588L179.859 133.511L179.783 133.404L179.661 133.327L179.599 133.249L179.491 133.005L179.507 132.881V132.666L179.522 132.528L179.507 132.405L179.522 132.297V132.144L179.491 132.036L179.522 131.913L179.491 131.79L179.507 131.65V131.421L179.522 131.297L179.445 131.052L179.414 130.945L179.368 130.822L179.277 130.576L179.368 130.437H179.476L179.615 130.453L179.752 130.437H179.859L179.997 130.421L180.105 130.437L180.243 130.421H180.349L180.488 130.437L180.578 130.421H180.733L180.855 130.437L180.963 130.421L181.085 130.437H181.208L181.345 130.453L181.453 130.421H181.575L181.667 130.561L181.606 130.668L181.575 130.791L181.515 130.928L181.469 131.037L181.422 131.329L181.407 131.421V131.544L181.422 131.668V131.805L181.515 132.02L181.575 132.097L181.79 132.158L181.882 132.175L182.036 132.144H182.127L182.281 132.175L182.373 132.144H182.511L182.633 132.175L182.74 132.144L182.894 132.175H183.001L183.215 132.082L183.292 132.02L183.369 131.805L183.354 131.683L183.369 131.59V131.344L183.384 131.19V131.067L183.354 130.975L183.369 130.852L183.384 130.699V130.222L183.369 130.115L183.384 129.992L183.369 129.883L183.384 129.761L183.354 129.638L183.277 129.438L183.201 129.346L183.031 129.269H182.909L182.787 129.284L182.54 129.254H182.265L182.158 129.269L182.036 129.284L181.897 129.269H181.79L181.699 129.254L181.545 129.269H181.422L181.315 129.254L181.208 129.269L181.055 129.254L180.808 129.284L180.718 129.254H180.565L180.38 129.177L180.303 129.115L180.181 129.023L180.105 128.9L180.043 128.808L179.952 128.731L179.828 128.67L179.752 128.562L179.675 128.47L179.568 128.362L179.507 128.178L179.522 128.07L179.491 127.947L179.522 127.809L179.507 127.701V127.579L179.522 127.44L179.491 127.301V127.086L179.507 126.948L179.522 126.84L179.507 126.717V126.594L179.491 126.487L179.507 126.349L179.491 126.226L179.507 126.103V125.841L179.522 125.765L179.491 125.611L179.522 125.519V125.365L179.507 125.258L179.522 125.149V124.889L179.507 124.781L179.522 124.627L179.507 124.535L179.491 124.397L179.522 124.305L179.507 124.166V124.043L179.522 123.92V123.798L179.491 123.674V123.551L179.583 123.351L179.675 123.259L179.783 123.167L179.936 122.998L180.043 122.89L180.12 122.798L180.211 122.721L180.288 122.629L180.38 122.537L180.578 122.46H180.703L180.825 122.445H181.208L181.315 122.429L181.437 122.46L181.575 122.445L181.667 122.46L181.774 122.429L181.928 122.445L182.05 122.46L182.158 122.445H182.387L182.525 122.46H182.633L182.755 122.429L182.909 122.445L183.031 122.429H183.124L183.23 122.445L183.369 122.46H183.476L183.629 122.445L183.721 122.46H183.981L184.119 122.429H184.211L184.441 122.551L184.502 122.629Z" fill="#B25C1E"/>
<path d="M177.317 144.152L177.118 144.075L176.98 144.106H176.766L176.643 144.075L176.475 144.106H176.352L176.26 144.091L176.138 144.075L175.984 144.091L175.892 144.075L175.678 144.168L175.601 144.26L175.54 144.429L175.509 144.583L175.54 144.829L175.509 144.952L175.54 145.044L175.523 145.151V145.275L175.509 145.413L175.54 145.551V145.658L175.523 145.751L175.509 145.889V146.119L175.523 146.227V146.366L175.509 146.473L175.54 146.627L175.523 146.75L175.632 146.966L175.862 147.058L176.015 147.088H176.122L176.245 147.058H176.352L176.506 147.072L176.628 147.088H176.734L176.874 147.058L176.996 147.072H177.103L177.349 146.966L177.471 146.72V146.366L177.455 146.227L177.44 146.151V145.658L177.471 145.551L177.455 145.413L177.44 145.29V145.151L177.455 145.044L177.471 144.921V144.813L177.44 144.691L177.455 144.553V144.429L177.394 144.244L177.317 144.152ZM177.134 139.295L177.01 139.28L176.874 139.311L176.75 139.295H176.628L176.475 139.311H176.352L176.106 139.28L176 139.311L175.877 139.28L175.632 139.418L175.523 139.633L175.509 139.756L175.523 139.863V140.234L175.509 140.371L175.54 140.479V140.709L175.509 140.832L175.54 140.955L175.523 141.094V141.2L175.54 141.293L175.523 141.431L175.509 141.555L175.523 141.694L175.509 141.785L175.617 142L175.663 142.061L175.892 142.154H176L176.122 142.139H176.26L176.352 142.154L176.475 142.123L176.643 142.139H176.857L176.996 142.154H177.103L177.302 142.077L177.394 141.985L177.471 141.785L177.455 141.662L177.44 141.555L177.471 141.448L177.455 141.324L177.471 141.2V141.063L177.44 140.94V140.694L177.471 140.586V140.494L177.44 140.34L177.471 140.234V140.125L177.455 139.987V139.863L177.471 139.772L177.455 139.649L177.349 139.418L177.134 139.295ZM178.636 137.527L178.696 137.619L178.819 137.696L178.896 137.788L178.988 137.85L179.049 137.958L179.217 138.142L179.311 138.249L179.386 138.434L179.402 138.573V138.681L179.386 138.803L179.402 138.926L179.386 139.064L179.417 139.187V139.571L179.386 139.694L179.417 139.786L179.402 139.91L179.386 140.064L179.417 140.187L179.402 140.294L179.386 140.418L179.402 140.556V140.771L179.386 140.894L179.402 141.047L179.417 141.171L179.402 141.262L179.417 141.386L179.386 141.509L179.402 141.648V141.77L179.386 141.909L179.402 142.016L179.325 142.231L179.217 142.324L179.156 142.431L179.049 142.493L178.957 142.568L178.88 142.692L178.804 142.785L178.728 142.831L178.543 143.03L178.528 143.184L178.696 143.399L178.804 143.445L178.88 143.538L178.973 143.66L179.08 143.722L179.141 143.814L179.249 143.891L179.311 143.999L179.417 144.23L179.386 144.337L179.417 144.475L179.386 144.566V144.705L179.417 144.813L179.402 144.967L179.417 145.09V145.213L179.402 145.336L179.386 145.428L179.417 145.551L179.386 145.674L179.402 145.812L179.417 145.92L179.386 146.058L179.417 146.181L179.386 146.289L179.417 146.443V146.551L179.386 146.688V146.811L179.402 146.934V147.042L179.417 147.149V147.288L179.402 147.411L179.417 147.55V147.657L179.386 147.796V147.917L179.325 148.134L179.217 148.195L179.156 148.303L179.08 148.395L178.988 148.486L178.911 148.548L178.804 148.641L178.712 148.749L178.65 148.825L178.528 148.948L178.344 149.009L178.222 148.994H177.992L177.869 149.025L177.747 149.009L177.608 148.994L177.486 149.025L177.363 148.994L177.24 149.025H177.118L177.01 149.009L176.888 148.994L176.766 149.025L176.628 148.994L176.49 149.009L176.398 148.994L176.29 149.009L176.138 148.994H175.892L175.769 149.025L175.678 149.009H175.417L175.31 149.025H175.172L175.034 149.009H174.943L174.804 149.025L174.697 148.994L174.467 148.933L174.39 148.841L174.222 148.67L174.114 148.579L174.023 148.472L173.946 148.379L173.854 148.288L173.746 148.209L173.655 148.103L173.548 147.917L173.562 147.765L173.578 147.642L173.562 147.55V147.395L173.578 147.303L173.548 147.181L173.562 147.042L173.548 146.934V146.781L173.578 146.658L173.562 146.535V146.443L173.548 146.289L173.578 146.166V145.95L173.562 145.812V145.704L173.578 145.582V145.459L173.562 145.321L173.578 145.182V144.952L173.548 144.829L173.578 144.705L173.548 144.566L173.578 144.46L173.548 144.353L173.562 144.213L173.67 144.015L173.762 143.891L173.824 143.814L173.9 143.737L174.008 143.66L174.084 143.538L174.191 143.445L174.252 143.384L174.436 143.184V143.015L174.329 142.954L174.252 142.846L174.191 142.785L174.084 142.692L174.023 142.568L173.9 142.493L173.838 142.416L173.746 142.339L173.655 142.231L173.578 142L173.562 141.892V141.77L173.578 141.631L173.562 141.509L173.578 141.416L173.548 141.262L173.578 141.155L173.562 141.047L173.548 140.909L173.562 140.801L173.548 140.679L173.578 140.525L173.562 140.432V140.279L173.548 140.155V140.064L173.562 139.925V139.802L173.548 139.68L173.578 139.556L173.562 139.449L173.578 139.295V139.064L173.562 138.926L173.548 138.803L173.562 138.711L173.578 138.588L173.548 138.451L173.655 138.234L173.746 138.142L173.824 138.035L173.931 137.943L174.114 137.774L174.191 137.681L174.283 137.619L174.406 137.527L174.498 137.405L174.682 137.343L174.788 137.328L174.912 137.343L175.05 137.312L175.188 137.328L175.294 137.312H175.646L175.769 137.328L175.908 137.343L176.045 137.328H176.153L176.26 137.343L176.383 137.312L176.52 137.343L176.612 137.328L176.734 137.343L176.888 137.312H176.996L177.103 137.343L177.24 137.312L177.349 137.328H177.502L177.594 137.343L177.731 137.312L177.854 137.328H177.96L178.084 137.312L178.222 137.343L178.36 137.312L178.543 137.405L178.636 137.527Z" fill="#B25C1E"/>
<path d="M186.908 140.525L186.939 140.648L186.969 140.786L187 140.909L186.924 141.047L186.801 141.032L186.709 141.047H186.555L186.448 141.032L186.326 141.017L186.188 141.047L186.08 141.017H185.943L185.821 141.032H185.712L185.606 141.017L185.452 141.047H185.207L185.115 141.032L184.978 141.017H184.87L184.747 141.032L184.67 140.924L184.716 140.801V140.663L184.778 140.556L184.839 140.432L184.87 140.155L184.855 140.033V139.925L184.87 139.772L184.839 139.633L184.747 139.402L184.532 139.326L184.38 139.295L184.288 139.326L184.134 139.311H184.012L183.904 139.326H183.399L183.246 139.311L183.046 139.356L182.97 139.449L182.893 139.633L182.908 139.756V140.002L182.879 140.279L182.908 140.402L182.879 140.494L182.893 140.632L182.879 140.755V141.002L182.908 141.109L182.893 141.247L182.879 141.371L182.908 141.493L182.879 141.616L182.908 141.755V141.877L182.97 142.061L183.046 142.139L183.246 142.231H183.368L183.49 142.2H183.598L183.72 142.216L183.859 142.231L183.981 142.216H184.104L184.226 142.2L184.334 142.216H184.594L184.733 142.231H185.084L185.207 142.2L185.33 142.216L185.467 142.231L185.59 142.2L185.698 142.216L185.897 142.277L185.989 142.384L186.096 142.462L186.204 142.538L186.264 142.631L186.464 142.846L186.525 142.907L186.632 142.984L186.724 143.107L186.786 143.276L186.801 143.415L186.786 143.538V143.768L186.817 143.891L186.786 144.029L186.817 144.137V144.275L186.786 144.414L186.801 144.49L186.817 144.613L186.786 144.737V144.998L186.801 145.136L186.817 145.244L186.786 145.366L186.817 145.505L186.786 145.597L186.817 145.704V145.828L186.786 145.967L186.801 146.089L186.817 146.198L186.786 146.35L186.801 146.458V146.566L186.817 146.704V146.811L186.786 146.95L186.801 147.042V147.181L186.817 147.319L186.786 147.441L186.817 147.55L186.801 147.688L186.786 147.796V147.902L186.74 148.103L186.632 148.209L186.555 148.318L186.432 148.41L186.342 148.502L186.295 148.579L186.204 148.67L186.096 148.749L186.004 148.841L185.927 148.933L185.698 149.025L185.59 149.009L185.452 149.025L185.361 149.009H185.1L184.962 149.025L184.87 149.041L184.747 149.025H184.611L184.502 149.041H184.395L184.272 149.025L184.134 149.009H183.874L183.782 149.025L183.644 149.009L183.522 149.041L183.399 149.009L183.292 149.041H183.184L183.046 149.025L182.939 149.009L182.786 149.041H182.678L182.556 149.009H182.31L182.188 149.041L182.05 149.025L181.851 148.948L181.76 148.841L181.683 148.749L181.514 148.565L181.421 148.472L181.33 148.379L181.268 148.318L181.162 148.195L181.07 148.118L180.993 147.902V147.796L180.962 147.657V147.565L180.978 147.427L180.993 147.303L180.962 147.196L180.978 147.058V146.688L180.993 146.581V146.212L180.931 145.967L180.886 145.812L180.87 145.69L180.793 145.475L180.855 145.321L181.1 145.351L181.208 145.321H181.33L181.484 145.336H181.728L181.835 145.351L181.942 145.336L182.096 145.321L182.188 145.351L182.327 145.321L182.463 145.351L182.586 145.321L182.694 145.351H182.816L182.955 145.336L183.062 145.321L183.108 145.459L183.077 145.582L183.03 145.72L183.001 145.843L182.955 145.967L182.908 146.181L182.879 146.427L182.908 146.551L182.893 146.673L182.955 146.904L183.046 146.996L183.26 147.042H183.399L183.506 147.072L183.644 147.042H183.782L183.874 147.072L184.012 147.058L184.134 147.072L184.257 147.058L184.395 147.042L184.532 147.058L184.702 146.98L184.809 146.919L184.87 146.704V146.597L184.839 146.458L184.855 146.35L184.839 146.198L184.87 146.089V145.475L184.855 145.366V145.258L184.87 145.106L184.839 144.982V144.86L184.855 144.752L184.839 144.613L184.87 144.521L184.809 144.306L184.702 144.244L184.518 144.152H184.41L184.257 144.168L184.15 144.184H184.042L183.89 144.152H183.522L183.43 144.168H183.275L183.184 144.184H183.03L182.924 144.152H182.786L182.663 144.168L182.556 144.184L182.449 144.168L182.295 144.152L182.173 144.168L182.05 144.152L181.866 144.06L181.698 143.891L181.606 143.798L181.514 143.707L181.407 143.646L181.33 143.521L181.268 143.461L181.162 143.337L181.07 143.276L180.962 143.061L180.978 142.923V142.8L180.962 142.692L180.993 142.584L180.962 142.431L180.978 142.339L180.962 142.184L180.993 142.077L180.962 141.969L180.978 141.832L180.962 141.708L180.978 141.586L180.962 141.493L180.993 141.339L180.962 141.216V141.094L180.993 140.97L180.978 140.863V140.51L180.993 140.386L180.962 140.279L180.978 140.155V140.033L180.962 139.879L180.978 139.772V139.649L180.993 139.542L180.978 139.387L180.962 139.295V139.142L180.978 139.018V138.926L180.962 138.803L180.993 138.681L180.978 138.557L180.962 138.419L180.993 138.173L180.962 138.08L180.993 137.943V137.835L180.978 137.696L180.993 137.574V137.435L181.084 137.343H181.468L181.59 137.328L181.698 137.343L181.835 137.328H182.081L182.218 137.343L182.341 137.312L182.434 137.343H182.571L182.678 137.328H182.816L182.939 137.312H183.169L183.292 137.328L183.399 137.343L183.537 137.312H183.674L183.797 137.343L183.874 137.328H184.134L184.257 137.312H184.364L184.518 137.343L184.625 137.312L184.762 137.328L184.87 137.312L184.992 137.343H185.131L185.237 137.328H185.467L185.59 137.343H185.729L185.821 137.312H185.958L186.066 137.328L186.204 137.343L186.326 137.328H186.586L186.695 137.343L186.817 137.466V137.712L186.801 137.804V138.327L186.832 138.419L186.817 138.573L186.832 138.681L186.817 138.818V138.912L186.832 139.064V139.157L186.817 139.295V139.434L186.801 139.525L186.832 139.664L186.801 139.772L186.832 139.91L186.817 140.048L186.801 140.155L186.847 140.402L186.908 140.525Z" fill="#B25C1E"/>
<path d="M48.0902 146.092V130.495H54.5326V132.723H50.5336V146.092H48.0902Z" fill="#2B1C14"/>
<path d="M55.4853 143.886C56.596 143.886 56.9515 143.73 56.9956 142.282L57.3956 130.495H64.3045V146.092H61.8161V132.723H59.6839L59.4175 142.148C59.3283 145 58.3065 146.115 55.8629 146.115H55.4853V143.886Z" fill="#2B1C14"/>
<path d="M68.5005 141.145H70.8551L69.6781 133.258L68.5005 141.145ZM74.0763 146.092H71.6105L71.1882 143.262H68.1895L67.7672 146.092H65.5238L68.0122 130.495H71.5879L74.0763 146.092Z" fill="#2B1C14"/>
<path d="M77.6503 139.073V143.864H79.0503C79.8722 143.864 80.3165 143.486 80.3165 142.326V140.968C80.3165 139.519 79.8502 139.073 78.7392 139.073H77.6503ZM77.6503 132.723V136.845H78.606C79.5166 136.845 80.0721 136.444 80.0721 135.196V134.328C80.0721 133.214 79.6944 132.723 78.8279 132.723H77.6503ZM82.5159 134.082V134.639C82.5159 136.244 82.027 137.269 80.9386 137.781C82.2488 138.293 82.7597 139.474 82.7597 141.123V142.393C82.7597 144.799 81.4941 146.092 79.0503 146.092H75.207V130.495H78.8945C81.4269 130.495 82.5159 131.676 82.5159 134.082Z" fill="#2B1C14"/>
<path d="M86.6667 146.092H84.2234V130.495H91.932V146.092H89.4441V132.723H86.6667V146.092Z" fill="#2B1C14"/>
<path d="M96.216 146.092H93.7056V130.495H95.883V140.365L96.7715 136.934L98.7711 130.495H101.459V146.092H99.2594V135.107L98.2602 138.939L96.216 146.092Z" fill="#2B1C14"/>
<path d="M105.632 139.073V143.864H107.032C107.854 143.864 108.299 143.486 108.299 142.326V140.968C108.299 139.519 107.832 139.073 106.721 139.073H105.632ZM105.632 132.723V136.845H106.589C107.499 136.845 108.055 136.444 108.055 135.196V134.328C108.055 133.214 107.677 132.723 106.81 132.723H105.632ZM110.498 134.082V134.639C110.498 136.244 110.01 137.269 108.921 137.781C110.231 138.293 110.743 139.474 110.743 141.123V142.393C110.743 144.799 109.476 146.092 107.032 146.092H103.19V130.495H106.877C109.409 130.495 110.498 131.676 110.498 134.082Z" fill="#2B1C14"/>
<path d="M117.381 141.569L119.047 130.495H122.446V146.092H120.136V134.907L118.448 146.092H116.138L114.316 135.063V146.092H112.183V130.495H115.582L117.381 141.569Z" fill="#2B1C14"/>
<path d="M126.553 141.145H128.908L127.731 133.258L126.553 141.145ZM132.128 146.092H129.663L129.241 143.262H126.242L125.82 146.092H123.577L126.064 130.495H129.641L132.128 146.092Z" fill="#2B1C14"/>
<path d="M133.281 146.092V130.495H139.724V132.723H135.724V146.092H133.281Z" fill="#2B1C14"/>
</g>
</svg>
