<svg width="50" height="50" viewBox="0 0 50 50" fill="none" xmlns="http://www.w3.org/2000/svg">
<path d="M20.3571 24.8256L20.3571 24.8255C20.358 23.8534 20.6728 22.9558 21.2025 22.2206C22.0187 21.0916 23.3384 20.356 24.8281 20.356C26.3166 20.356 27.6371 21.0925 28.4512 22.2211C28.9799 22.9574 29.2971 23.8553 29.2971 24.826C29.2971 27.2905 27.2883 29.296 24.8251 29.296C22.361 29.296 20.3544 27.2898 20.3571 24.8256Z" stroke="#F3B917"/>
<path d="M31.4053 18.2603L31.3927 14.4735L35.0566 14.462L35.0566 14.462L35.178 14.4616V14.58V18.2477L31.4053 18.2603Z" stroke="#F3B917"/>
<path d="M0.5 25C0.5 11.4912 11.4912 0.5 25 0.5C38.5098 0.5 49.5 11.4912 49.5 25C49.5 38.5078 38.5078 49.5 25 49.5C11.4912 49.5 0.5 38.5078 0.5 25ZM39.718 33.7237V22.0827V16.2783C39.718 12.9709 37.0288 10.2831 33.7217 10.2831H16.2773C12.9701 10.2831 10.282 12.9711 10.282 16.2783V22.0827V33.7237C10.282 37.0319 12.97 39.72 16.2773 39.72H33.7227C37.0289 39.72 39.718 37.032 39.718 33.7237Z" stroke="#F3B917"/>
<path d="M24.826 33.049C29.3613 33.049 33.049 29.3591 33.049 24.826C33.049 23.9923 32.9203 23.1869 32.6855 22.429H35.692V33.489C35.692 34.706 34.7017 35.693 33.486 35.693H16.163C14.9456 35.693 13.957 34.7063 13.957 33.489V22.429H16.9636C16.7309 23.1872 16.604 23.9926 16.604 24.826C16.604 29.359 20.2907 33.049 24.826 33.049Z" stroke="#F3B917"/>
</svg>
