<svg width="109" height="110" viewBox="0 0 109 110" fill="none" xmlns="http://www.w3.org/2000/svg">
<path d="M96.1165 79.3542V64.2371C96.1165 60.7032 93.2834 57.8379 89.7889 57.8379H19.9219C16.4272 57.8379 13.5942 60.7032 13.5942 64.2371V79.3542H96.1165Z" fill="#B25C1E"/>
<path d="M97.9588 79.3542H94.2749V64.2371C94.2749 61.7357 92.2629 59.7004 89.7891 59.7004H19.9222C17.4485 59.7004 15.436 61.7357 15.436 64.2371V79.3542H11.7526V64.2371C11.7526 59.6816 15.4173 55.9757 19.9222 55.9757H89.7891C94.2935 55.9757 97.9588 59.6816 97.9588 64.2371V79.3542Z" fill="#2B1C14"/>
<path d="M23.2263 9.11805C22.9432 9.23755 22.7279 9.45197 22.6201 9.72136C22.5232 9.96412 22.525 10.2277 22.625 10.463C22.7815 10.8297 23.132 11.0577 23.5402 11.0577C23.6916 11.0577 23.8421 11.0263 23.9883 10.9645C24.5338 10.7344 24.7998 10.1495 24.5938 9.63259C24.3946 9.13307 23.7628 8.891 23.2263 9.11805Z" fill="#F3E9C1"/>
<path d="M29.6097 10.6972L29.0994 9.20273C29.299 9.1341 29.4987 9.06548 29.6984 8.99821C30.0988 8.86403 30.4475 8.79608 30.7341 8.79608C31.0313 8.79608 31.4085 8.87086 31.5165 9.22868C31.7047 9.8518 31.0695 10.2059 30.5028 10.3933C30.2045 10.493 29.9069 10.5941 29.6097 10.6972ZM29.3985 7.65774C29.1512 7.74105 28.9043 7.8247 28.6579 7.9104L28.1606 6.45588C28.4781 6.34593 28.7958 6.23838 29.1142 6.13185C29.8576 5.88602 30.3592 5.98128 30.4874 6.40023C30.6398 6.90009 30.2133 7.39347 29.3985 7.65774ZM31.7697 7.5314C32.2856 6.99432 32.4567 6.36847 32.2642 5.69755C31.8896 4.38097 30.5164 3.95487 28.5443 4.60871C27.72 4.88425 26.885 5.17755 26.0628 5.48006L25.8565 5.5562L28.477 12.8298L28.6831 12.7537C29.433 12.4778 30.194 12.2101 30.9454 11.9591C32.7871 11.3435 33.7414 10.1069 33.3779 8.80769C33.2273 8.27915 32.8231 7.66046 31.7697 7.5314Z" fill="#F3E9C1"/>
<path d="M37.7945 6.21245C37.5349 6.27049 37.2756 6.33024 37.0163 6.39136L36.47 4.04501C36.7388 3.98151 37.0075 3.91971 37.2759 3.85927C38.2868 3.63393 38.8702 3.90297 39.0262 4.69783C39.1836 5.49713 38.7808 5.99222 37.7945 6.21245ZM41.5254 7.59218C41.0358 7.68232 40.7738 7.458 40.4294 7.15788C40.3234 7.06569 40.215 6.97145 40.0959 6.88371C40.8582 6.16737 41.0716 5.11438 40.9312 4.33011C40.631 2.61781 39.1086 1.78641 37.0285 2.24803C36.1851 2.43685 35.3315 2.64137 34.4912 2.85613L34.2784 2.91077L36.156 10.4159L36.3687 10.3612C36.7928 10.2527 37.2172 10.1478 37.6426 10.0468L37.856 9.9959L37.3762 7.93464C37.5761 7.88787 37.7767 7.84177 37.9769 7.79568L38.0282 7.78407C38.1275 7.7612 38.2227 7.73934 38.3155 7.7134C38.6022 7.81822 38.8243 8.06405 39.0792 8.34608C39.5013 8.81248 39.979 9.34102 40.8937 9.34102C41.0568 9.34102 41.231 9.32327 41.4099 9.28878C42.2064 9.13958 42.2445 9.01494 42.2655 8.94802L42.2814 8.89681L42.0386 7.5L41.5254 7.59218Z" fill="#F3E9C1"/>
<path d="M49.1717 6.56141C48.0633 6.65394 46.9424 6.77071 45.8369 6.91002L45.6745 5.62007C46.6831 5.49306 47.7098 5.3838 48.7294 5.29435L48.9479 5.27557L48.8135 3.69574L48.5951 3.71452C47.5616 3.80501 46.5142 3.91631 45.4774 4.04708L45.2778 2.45872C46.445 2.31191 47.6311 2.18796 48.8074 2.08997L49.0262 2.07119L48.8942 0.449713L48.6754 0.46781C46.9329 0.61292 45.1711 0.814368 43.4391 1.06635L43.222 1.09742L44.3115 8.76025L44.5286 8.7285C46.1054 8.49906 47.7125 8.31571 49.3044 8.18289L49.5232 8.16479L49.3902 6.54331L49.1717 6.56141Z" fill="#F3E9C1"/>
<path d="M60.3533 0.290515L60.1943 0.282321L60.1369 0.431524C59.6233 1.7662 59.125 3.11862 58.6533 4.4591C58.0763 3.04043 57.4652 1.62109 56.8331 0.231106L56.775 0.103409L56.0235 0.0982823L55.9641 0.226662C55.3205 1.61084 54.6979 3.0237 54.1098 4.4352C53.6513 3.08175 53.1678 1.72044 52.6698 0.379967L52.6141 0.230422L52.456 0.236565C51.9304 0.257052 51.4047 0.282317 50.8793 0.312363L50.5717 0.33046L50.6895 0.61863C51.6646 3.0097 52.5843 5.45541 53.4227 7.88677L53.476 8.04008L54.2165 8.02198L54.2732 7.89189C54.9275 6.37797 55.6298 4.85414 56.3631 3.35661C57.0863 4.86302 57.7788 6.39675 58.4237 7.92126L58.4784 8.05032L59.2296 8.07968L59.2843 7.92638C60.1477 5.50731 61.0924 3.07389 62.0921 0.694769L62.2123 0.408308L61.9054 0.386452C61.3878 0.349918 60.8709 0.317488 60.3533 0.290515Z" fill="#F3E9C1"/>
<path d="M73.0461 1.78743C72.7122 1.7188 72.3732 1.68432 72.0389 1.68432C69.9162 1.68432 68.1852 3.05109 67.9242 4.93411C67.6031 7.23197 69.1032 9.12967 71.6577 9.65582C72.0653 9.74016 72.4816 9.78284 72.8935 9.78284C73.7403 9.78284 74.3247 9.60221 74.3791 9.56534L74.4922 9.4892L74.4753 9.35365C74.4273 8.96441 74.3774 8.57518 74.3257 8.18594L74.2923 7.93601L74.0509 8.00156C74.0465 8.00224 73.6079 8.11902 72.9583 8.11902C72.5987 8.11902 72.2435 8.08351 71.9018 8.01317C70.4835 7.72227 69.6063 6.56276 69.8156 5.25676C70.0027 4.09691 70.9048 3.37682 72.1696 3.37682C72.4201 3.37682 72.6852 3.40516 72.9556 3.46081C73.798 3.63426 74.5786 4.16827 74.7656 4.30314L74.8916 4.59711L75.1188 4.29358C75.3582 3.97399 75.5999 3.65509 75.8434 3.33756L76.0247 3.10026L75.7829 3.00738C75.5557 2.8172 74.6326 2.11248 73.0461 1.78743Z" fill="#F3E9C1"/>
<path d="M83.1353 8.72641C82.7875 9.71112 81.8948 10.3469 80.8606 10.3469C80.5966 10.3469 80.3312 10.3052 80.0723 10.2229C78.7774 9.80979 78.0654 8.51985 78.4165 7.22274C78.6977 6.18273 79.5759 5.51078 80.653 5.51078C80.9319 5.51078 81.2158 5.55619 81.4981 5.64598C82.2051 5.87133 82.7554 6.32476 83.0485 6.92227C83.3203 7.47574 83.3517 8.11627 83.1353 8.72641ZM81.9643 4.11055C81.4586 3.94939 80.9454 3.86779 80.4389 3.86779C78.5391 3.86779 76.9809 5.00477 76.5616 6.69727C76.02 8.87597 77.2952 10.9891 79.5942 11.7218C80.0939 11.8809 80.6013 11.9615 81.1027 11.9615C82.8749 11.9615 84.3501 10.969 84.9514 9.37105C85.3143 8.40854 85.2728 7.37433 84.8359 6.45929C84.3139 5.36874 83.2939 4.53461 81.9643 4.11055Z" fill="#F3E9C1"/>
<path d="M89.0118 9.72342C88.904 9.45505 88.6846 9.23482 88.4077 9.11805C87.8651 8.88895 87.2409 9.12931 87.0403 9.63259C86.831 10.1581 87.0913 10.7303 87.646 10.9645C87.7888 11.025 87.9381 11.0554 88.0876 11.0554C88.4999 11.0554 88.8524 10.8286 89.0087 10.463C89.1083 10.2301 89.1093 9.96754 89.0118 9.72342Z" fill="#F3E9C1"/>
<path d="M76.5916 37.5627C76.5916 35.4684 76.2753 33.4119 75.6503 31.4514C75.3303 30.4482 74.7492 29.5694 73.9777 28.8773C74.6091 25.509 73.7167 22.418 71.3691 20.1328C68.6093 17.4464 64.2326 16.3941 60.6405 17.4098C58.8247 14.9351 55.6236 13.6766 52.0839 14.1467C48.4979 14.6234 45.6908 16.687 44.5436 19.5664C42.0704 19.4574 39.5159 20.3769 37.7423 22.1005C35.8681 23.9224 35.0351 26.4401 35.3512 29.2529C34.7698 29.8777 34.3254 30.6217 34.0607 31.4514C33.4359 33.4136 33.1191 35.4694 33.1191 37.5627C33.1191 43.1104 35.0996 49.7824 37.1963 56.8463C39.4494 64.4358 41.7794 76.6568 41.7794 83.5554C41.7794 87.2707 40.7114 90.2449 39.6783 93.1222C38.5583 96.2408 37.5005 99.187 37.8729 102.702C38.6373 109.917 54.1938 110 54.8555 110C57.1082 110 60.9177 109.691 64.2414 108.818C68.9841 107.573 71.54 105.516 71.8381 102.702C72.2105 99.187 71.152 96.2415 70.0331 93.1222C68.9996 90.2449 67.932 87.2707 67.932 83.5554C67.932 76.6568 70.262 64.4358 72.5144 56.8463C74.6114 49.7824 76.5916 43.1104 76.5916 37.5627Z" fill="#2B1C14"/>
<path d="M36.4288 37.5627C36.4288 35.3902 36.8545 33.5983 37.2114 32.4777C37.4812 31.6306 38.2533 30.9511 39.2261 30.705C41.7806 30.0569 47.2074 28.9712 54.8554 28.9712C62.5028 28.9712 67.9302 30.0569 70.4848 30.705C71.4578 30.9511 72.2297 31.6306 72.4994 32.478C72.8566 33.5973 73.2817 35.3884 73.2817 37.5627C73.2817 37.8727 73.274 38.1882 73.2601 38.5081C72.1834 38.0673 70.8974 37.6761 69.3952 37.3425C68.7571 37.2001 68.0896 37.3415 67.5636 37.7286C67.0456 38.11 66.7127 38.6976 66.6513 39.3402L66.1074 44.9845C65.9919 45.7903 65.4216 46.4564 64.6474 46.6855C62.6763 47.269 61.2377 48.9779 60.9828 51.0392L60.769 52.7703C60.7164 53.1967 60.3565 53.5183 59.931 53.5183C59.5965 53.5183 59.3274 53.2534 59.3182 52.9208L58.9657 38.3299C58.9354 37.057 57.939 36.0372 56.6982 36.0088C50.1697 35.861 41.5807 36.3854 36.4433 38.2046C36.4369 37.9895 36.4288 37.773 36.4288 37.5627Z" fill="#F3E9C1"/>
<path d="M45.3647 23.041C45.8067 23.1442 46.2699 23.0581 46.6474 22.8051C47.0249 22.5521 47.2835 22.154 47.3628 21.703C47.8352 19.0182 50.4339 17.7423 52.5154 17.4654C54.5439 17.196 57.3092 17.7406 58.4304 20.1638C58.6161 20.5667 58.9538 20.8774 59.3667 21.0286C59.7803 21.1795 60.2358 21.1584 60.6338 20.9692C63.2032 19.7469 66.9097 20.4386 69.074 22.5446C70.0754 23.5197 71.0275 25.0695 70.8567 27.3513C67.5154 26.5384 62.139 25.6237 54.8556 25.6237C47.4104 25.6237 41.9584 26.58 38.6354 27.4053C38.7711 26.2676 39.2411 25.2867 40.0362 24.5137C41.381 23.2066 43.5213 22.6146 45.3647 23.041Z" fill="#F3E9C1"/>
<path d="M68.5466 102.346C68.4163 103.577 66.5441 104.755 63.4106 105.578C60.1784 106.426 56.512 106.653 54.8556 106.653C53.1989 106.653 49.5328 106.426 46.3014 105.578C43.1675 104.755 41.2953 103.577 41.1646 102.346C41.0724 101.476 41.0995 100.634 41.2109 99.7979C42.7262 100.672 44.7499 101.365 47.2609 101.865C50.1213 102.433 53.0591 102.635 54.8556 102.635C58.0986 102.635 64.6166 102.013 68.4997 99.7924C68.6121 100.63 68.6391 101.474 68.5466 102.346Z" fill="#B25C1E"/>
<path d="M64.6221 83.5554C64.6221 87.8593 65.844 91.2627 66.9217 94.2643C67.179 94.9819 67.4275 95.6744 67.651 96.3532C65.0489 98.4888 58.4472 99.2882 54.8554 99.2882C50.9068 99.2882 44.5144 98.3742 42.0595 96.3535C42.283 95.6751 42.5318 94.9819 42.7894 94.2643C43.8675 91.2624 45.0887 87.8593 45.0887 83.5554C45.0887 76.1651 42.6881 63.7044 40.3666 55.8838C38.855 50.791 37.4066 45.9095 36.7691 41.6583C40.2724 40.1546 47.652 39.2348 55.6792 39.3389L56.0094 53.0076C56.0682 55.1713 57.7905 56.8658 59.9311 56.8658C62.0213 56.8658 63.7939 55.2836 64.0539 53.1851L64.2673 51.4544C64.3581 50.7179 64.873 50.1064 65.5769 49.8981C67.6156 49.2945 69.113 47.5292 69.3919 45.3997L69.8274 40.8887C71.2917 41.2759 72.254 41.6692 72.885 42.0062C72.2226 46.1758 70.815 50.9282 69.3439 55.8838C67.0227 63.7044 64.6221 76.1651 64.6221 83.5554Z" fill="#EEB40D"/>
<path d="M44.288 44.3884C44.0939 43.485 43.2107 42.912 42.319 43.109C41.4259 43.3057 40.8594 44.1975 41.0539 45.1006C41.6299 47.7741 42.6026 50.8572 43.6327 54.1217C46.7112 63.8813 50.5427 80.4007 47.3608 91.9858C47.116 92.8764 47.6313 93.7989 48.5122 94.0472C48.6607 94.0885 48.8093 94.1082 48.9561 94.1082C49.681 94.1082 50.3465 93.6223 50.5498 92.8821C53.9963 80.335 49.9981 63.2879 46.7862 53.1046C45.7804 49.9176 44.8309 46.9068 44.288 44.3884Z" fill="#F3E9C1"/>
<path d="M10.7332 30.0788C9.88364 31.562 9.03048 32.615 10.4209 35.6309C18.2103 52.7406 22.0061 71.4625 21.5068 90.3377C21.3268 95.9383 24.2146 98.7996 26.8754 102.508C26.6825 104.129 26.4547 105.75 26.2007 107.368L28.836 107.834C29.0984 106.164 29.3333 104.494 29.532 102.822C32.825 99.8931 36.4555 97.1204 36.6588 90.7007C37.2128 69.4853 32.9408 48.43 24.1696 29.1805C22.5991 25.7802 21.298 25.9219 19.4638 25.5616C21.5061 29.6196 23.3388 33.7677 24.9588 37.9906C24.9591 37.9902 24.7672 38.527 24.4716 39.3099C24.0942 38.5085 23.6266 37.728 23.1108 36.9912C21.5164 32.9786 19.7266 29.0364 17.7443 25.1789C16.0618 21.9458 14.7749 22.1589 12.9403 21.9144C14.8101 25.2287 16.5301 28.6137 18.099 32.0602C17.528 31.7119 17.1083 31.5576 16.9419 31.6368C16.7756 31.716 16.6267 32.1428 16.5148 32.8028C14.9677 29.4031 13.2707 26.0635 11.4261 22.794C10.6763 24.5196 9.86993 25.4534 11.4577 28.5055C13.3329 32.1561 15.0258 35.8863 16.5342 39.6838C16.6488 40.5339 16.8086 41.379 17.0333 42.1834C16.3126 41.8334 15.8251 41.6019 15.8253 41.6019C14.3242 37.6864 12.6256 33.8404 10.7332 30.0788Z" fill="#2B1C14"/>
<path d="M29.7197 89.2189C30.3713 85.6516 32.1219 83.0075 34.6492 81.5059C34.2012 85.2582 32.3171 87.9344 29.7197 89.2189Z" fill="#EEB40D"/>
<path d="M29.6146 81.3231C30.0537 77.7333 31.6453 74.9943 34.0793 73.3448C33.8538 77.1099 32.1307 79.888 29.6146 81.3231Z" fill="#EEB40D"/>
<path d="M29.0428 73.4684C29.2692 69.8659 30.6967 67.0382 33.029 65.2473C33.0255 69.014 31.4697 71.8859 29.0428 73.4684Z" fill="#EEB40D"/>
<path d="M28.0091 65.6748C28.0224 62.0696 29.2806 59.1623 31.5028 57.2331C31.7219 60.9927 30.3381 63.9509 28.0091 65.6748Z" fill="#EEB40D"/>
<path d="M26.5169 57.9641C26.3176 54.3664 27.4013 51.3867 29.5052 49.3262C29.9463 53.0673 28.7403 56.1026 26.5169 57.9641Z" fill="#EEB40D"/>
<path d="M24.5713 50.3576C24.1587 46.7763 25.0631 43.7345 27.0401 41.5472C27.7044 45.2593 26.68 48.3643 24.5713 50.3576Z" fill="#EEB40D"/>
<path d="M22.1761 44.7411C19.1797 43.2692 18.8338 38.4737 18.6949 35.6009C20.6449 37.5768 23.6734 41.6856 22.1761 44.7411Z" fill="#EEB40D"/>
<path d="M23.3962 81.9973C26.0242 83.1424 27.9635 85.6336 28.5016 89.2016C25.9438 87.8416 24.1251 85.3699 23.3962 81.9973Z" fill="#EEB40D"/>
<path d="M22.8755 74.5162C25.5667 75.4968 27.649 77.8613 28.3976 81.3802C25.7638 80.1813 23.8023 77.8312 22.8755 74.5162Z" fill="#EEB40D"/>
<path d="M21.9143 67.0938C24.6589 67.9092 26.8766 70.1394 27.8315 73.5985C25.131 72.5636 23.0352 70.3426 21.9143 67.0938Z" fill="#EEB40D"/>
<path d="M20.5175 59.7495C23.3047 60.3962 25.6502 62.4872 26.8073 65.878C24.0512 65.0107 21.8279 62.9225 20.5175 59.7495Z" fill="#EEB40D"/>
<path d="M18.6884 52.5032C21.5089 52.9806 23.9744 54.9268 25.3297 58.2401C22.5276 57.5411 20.1846 55.5929 18.6884 52.5032Z" fill="#EEB40D"/>
<path d="M16.4314 45.3748C19.2757 45.6814 21.8528 47.4777 23.4027 50.7049C20.5634 50.176 18.1094 48.3716 16.4314 45.3748Z" fill="#EEB40D"/>
<path d="M29.3542 97.1329C30.2179 93.5981 32.1225 91.0581 34.7346 89.7066C34.0644 93.4366 32.0229 96.0048 29.3542 97.1329Z" fill="#EEB40D"/>
<path d="M23.4723 89.5159C26.028 90.8223 27.8155 93.4345 28.1394 97.0425C25.6672 95.5249 23.9996 92.9368 23.4723 89.5159Z" fill="#EEB40D"/>
<path d="M98.9777 30.0788C99.8272 31.562 100.68 32.615 99.2896 35.6309C91.5005 52.7406 87.7048 71.4625 88.2038 90.3377C88.3844 95.9383 85.4967 98.7996 82.8358 102.508C83.0282 104.129 83.2561 105.75 83.51 107.368L80.8748 107.834C80.6125 106.164 80.3778 104.494 80.1793 102.822C76.886 99.8931 73.2555 97.1204 73.0519 90.7007C72.4985 69.4853 76.7699 48.43 85.5409 29.1805C87.1119 25.7802 88.4125 25.9219 90.2472 25.5616C88.2045 29.6196 86.3718 33.7677 84.7519 37.9906C84.7519 37.9906 84.9436 38.527 85.2394 39.3099C85.6169 38.5085 86.0842 37.728 86.6001 36.9912C88.194 32.9786 89.9845 29.0364 91.9664 25.1789C93.6488 21.9458 94.9359 22.1589 96.7706 21.9144C94.9011 25.2287 93.1805 28.6137 91.6115 32.0602C92.1821 31.7119 92.6025 31.5576 92.7693 31.6368C92.9354 31.716 93.0836 32.1428 93.1957 32.8028C94.7431 29.4031 96.4404 26.0635 98.2842 22.794C99.0344 24.5196 99.841 25.4534 98.2538 28.5055C96.3782 32.1561 94.685 35.8863 93.1768 39.6838C93.062 40.5339 92.9023 41.379 92.6774 42.1834C93.3983 41.8334 93.8855 41.6019 93.8852 41.6019C95.3866 37.6864 97.0856 33.8404 98.9777 30.0788Z" fill="#2B1C14"/>
<path d="M75.0611 81.5059C77.5893 83.0075 79.3396 85.6516 79.9909 89.2189C77.3938 87.9344 75.5095 85.2582 75.0611 81.5059Z" fill="#EEB40D"/>
<path d="M75.6318 73.3448C78.0655 74.9943 79.6574 77.7333 80.0964 81.3231C77.5803 79.888 75.8574 77.1099 75.6318 73.3448Z" fill="#EEB40D"/>
<path d="M76.6815 65.2473C79.0146 67.0382 80.4417 69.8659 80.6683 73.4684C78.241 71.8859 76.6856 69.014 76.6815 65.2473Z" fill="#EEB40D"/>
<path d="M78.2083 57.2331C80.4306 59.1623 81.6886 62.0696 81.7021 65.6748C79.3735 63.9509 77.9888 60.9927 78.2083 57.2331Z" fill="#EEB40D"/>
<path d="M80.2062 49.3262C82.3093 51.3867 83.3935 54.3664 83.1939 57.9641C80.9703 56.1026 79.7643 53.0673 80.2062 49.3262Z" fill="#EEB40D"/>
<path d="M82.671 41.5472C84.6482 43.7345 85.5517 46.7763 85.1395 50.3576C83.0306 48.3643 82.0066 45.2593 82.671 41.5472Z" fill="#EEB40D"/>
<path d="M91.0156 35.6009C90.8765 38.4737 90.5308 43.2692 87.535 44.7411C86.0369 41.6856 89.0664 37.5768 91.0156 35.6009Z" fill="#EEB40D"/>
<path d="M81.2088 89.2016C81.7473 85.6336 83.6867 83.1424 86.3148 81.9973C85.5858 85.3699 83.7673 87.8416 81.2088 89.2016Z" fill="#EEB40D"/>
<path d="M81.3128 81.3802C82.062 77.8613 84.1445 75.4968 86.8355 74.5162C85.9083 77.8312 83.9467 80.1813 81.3128 81.3802Z" fill="#EEB40D"/>
<path d="M81.8792 73.5985C82.834 70.1394 85.0516 67.9092 87.7962 67.0938C86.6753 70.3426 84.5796 72.5636 81.8792 73.5985Z" fill="#EEB40D"/>
<path d="M82.9033 65.878C84.0607 62.4872 86.4059 60.3962 89.1937 59.7495C87.883 62.9225 85.6597 65.0107 82.9033 65.878Z" fill="#EEB40D"/>
<path d="M84.3811 58.2401C85.7364 54.9268 88.2018 52.9806 91.0223 52.5032C89.5263 55.5929 87.1831 57.5411 84.3811 58.2401Z" fill="#EEB40D"/>
<path d="M86.3084 50.7049C87.8585 47.4777 90.4349 45.6814 93.2795 45.3748C91.6014 48.3716 89.1475 50.176 86.3084 50.7049Z" fill="#EEB40D"/>
<path d="M74.976 89.7066C77.5883 91.0581 79.4929 93.5981 80.3566 97.1329C77.6879 96.0048 75.6469 93.4366 74.976 89.7066Z" fill="#EEB40D"/>
<path d="M81.5714 97.0425C81.8951 93.4345 83.6829 90.8223 86.2384 89.5159C85.7111 92.9368 84.0435 95.5249 81.5714 97.0425Z" fill="#EEB40D"/>
<path d="M96.1165 64.2371C96.1165 67.7713 93.2834 70.6369 89.7889 70.6369H19.9219C16.4272 70.6369 13.5942 67.7713 13.5942 64.2371L13.6153 65.1125V84.7112C13.6153 89.0641 17.1047 92.5933 21.4087 92.5933C24.7791 92.5933 84.9304 92.5933 88.3016 92.5933C92.6061 92.5933 96.0952 89.0641 96.0952 84.7112V65.1125L96.1165 64.2371Z" fill="#F3E9C1"/>
<path d="M15.4572 71.1527V84.7112C15.4572 88.0303 18.1274 90.7303 21.4089 90.7303H88.3018C91.5836 90.7303 94.254 88.0303 94.254 84.7112V71.1527C92.9696 72.0039 91.4354 72.4987 89.7891 72.4987H19.9222C18.2754 72.4987 16.7414 72.0039 15.4572 71.1527ZM88.3018 94.4554H21.4089C16.0962 94.4554 11.7739 90.0844 11.7739 84.7112V65.1349L11.7613 64.6224C11.7558 64.4944 11.7526 64.366 11.7526 64.237L15.4356 64.1916L15.4424 64.4821C15.5688 66.8701 17.5296 68.774 19.9222 68.774H89.7891C92.2629 68.774 94.2749 66.739 94.2749 64.237H97.9588C97.9588 64.5323 97.9433 64.8242 97.9129 65.1124H97.9372V84.7112C97.9372 90.0844 93.6152 94.4554 88.3018 94.4554Z" fill="#2B1C14"/>
<path d="M3.58652 78.9338L3.50619 78.9243L3.36335 78.9423L3.30083 78.9243H3.14006L3.08625 78.9423L2.99696 78.9338L2.92575 78.9243H2.85413L2.79161 78.9423L2.72026 78.9243L2.64838 78.9338H2.4342L2.38039 78.9243H2.23755L2.1575 78.9423L2.09485 78.9338H2.02337L1.94265 78.9243L1.88937 78.9338L1.80865 78.9423H1.74667L1.58577 78.9243L1.52312 78.9338L1.45164 78.9243H1.17493L1.10319 78.9423H1.03157L0.960089 78.9243L0.897573 78.9338L0.826356 78.9243L0.737198 78.9338L0.674553 78.9243H0.531323L0.451135 78.9338H0.379651L0.335205 78.8607L0.379651 78.7709L0.388487 78.7074L0.415525 78.6258L0.442431 78.5538L0.459839 78.4275L0.469202 78.3551L0.459839 78.2738L0.469202 78.2106V78.0662L0.459839 77.9941L0.469202 77.9214L0.451135 77.8494V77.7678L0.459839 77.705L0.469202 77.6238L0.459839 77.5424L0.451135 77.4793L0.459839 77.4069L0.451135 77.3345L0.469202 77.2714L0.459839 77.199V77.1177L0.469202 77.0545V76.9821L0.459839 76.9009L0.469202 76.8288L0.459839 76.7564L0.469202 76.6929L0.451135 76.6113L0.459839 76.5301L0.469202 76.4761L0.451135 76.4038L0.469202 76.3224L0.459839 76.2504L0.451135 76.1692L0.469202 76.1152L0.459839 76.0333L0.451135 75.9701L0.469202 75.8888L0.459839 75.8168V75.6724L0.451135 75.5911L0.469202 75.5368L0.451135 75.4464V75.3829L0.459839 75.3019L0.451135 75.2295L0.469202 75.1572L0.451135 75.1036L0.469202 75.0223L0.451135 74.9404L0.469202 74.8683V74.7239L0.459839 74.6604V74.5883L0.451135 74.5245V74.3712L0.469202 74.2899V74.2356L0.459839 74.1544L0.469202 74.0731L0.451135 73.9468L0.459839 73.8658L0.451135 73.7931L0.459839 73.7122V73.6398L0.451135 73.5855L0.459839 73.5131L0.451135 73.4411L0.469202 73.2782L0.451135 73.2243L0.469202 73.1522L0.459839 73.0614L0.451135 73.0071L0.469202 72.9262L0.451135 72.8446V72.6462L0.469202 72.5646L0.451135 72.438L0.406426 72.3567L0.397323 72.2754L0.379651 72.2034L0.352745 72.1399L0.379651 72.0771L0.459839 72.0678H0.59397L0.674553 72.0771H0.74577L0.826356 72.0678L0.87977 72.0771L0.969188 72.059L1.03157 72.0771L1.11229 72.0678H1.1657L1.24629 72.0771L1.2997 72.059L1.37118 72.0771L1.4606 72.059L1.51415 72.0678L1.58577 72.059H1.79982L1.87143 72.0678L1.96085 72.0771H2.00543L2.07665 72.0678L2.1575 72.059H2.37155L2.44304 72.0771L2.52362 72.059H2.58613L2.64838 72.0771H2.73794L2.80045 72.0678L2.86283 72.0771H2.99696L3.158 72.059L3.21128 72.0771L3.28277 72.059H3.36335L3.44366 72.0678L3.49735 72.059L3.57754 72.0678H3.64888L3.73845 72.1399V72.2666L3.77417 72.3567L3.76533 72.4199L3.77417 72.4748L3.80108 72.5469L3.81864 72.6367L3.80993 72.7002L3.82759 72.7634L3.84565 72.8357V72.8989L3.8545 72.9802L3.86375 73.0341L3.89012 73.1157L3.89933 73.1789V73.2509L3.84565 73.3144L3.80108 73.2782L3.72049 73.269L3.64888 73.2509L3.57754 73.242L3.5331 73.2062L3.37218 73.1881H3.22935L3.16684 73.2062H3.08625L3.01477 73.1881L2.94315 73.2062H2.88077L2.80955 73.1881L2.72026 73.197H2.50568L2.4342 73.2062H2.37155L2.2915 73.1881L2.22872 73.2062L2.1393 73.197L2.08588 73.1881H1.94265L1.87143 73.197L1.79111 73.1881L1.67453 73.2335L1.62137 73.2963L1.57706 73.3865V73.5493L1.58577 73.6036L1.59447 73.6849L1.57706 73.7665L1.59447 73.8112L1.58577 73.8836V73.9645L1.59447 74.0461V74.1096L1.57706 74.182V74.2452L1.59447 74.3261V74.3893L1.58577 74.4705L1.59447 74.5429L1.57706 74.6153V74.6692L1.62137 74.8048L1.78228 74.8867L1.87143 74.8953H1.99659L2.08588 74.8772H2.22872L2.35401 74.8502L2.44304 74.8229L2.50568 74.8048L2.58613 74.7867L2.65762 74.7512L2.72923 74.814L2.73794 74.8683L2.72026 75.0127L2.72923 75.1036L2.73794 75.1572L2.72026 75.2295L2.72923 75.32L2.72026 75.3743L2.73794 75.4556V75.5368L2.72026 75.6089V75.6809L2.72923 75.7448L2.72026 75.8076L2.73794 75.8888L2.72026 75.9523L2.72923 76.0243V76.1053L2.63968 76.16L2.57703 76.1241L2.51439 76.1053L2.42549 76.088L2.35401 76.0606L2.22001 76.0333L2.1575 76.0432L2.06795 76.0333L2.0144 76.0243L1.92498 76.0432L1.86247 76.0333H1.78228L1.66582 76.0788L1.63892 76.1152L1.57706 76.2323L1.59447 76.2867L1.58577 76.3764V76.4491L1.57706 76.5124L1.59447 76.5755V76.6475L1.57706 76.7295V76.8011L1.58577 76.8555V76.9906L1.57706 77.0722V77.2891L1.58577 77.3434L1.59447 77.4246V77.5783L1.63021 77.6866L1.66582 77.7405L1.79982 77.7774L1.87143 77.7678L1.92498 77.7859L2.0144 77.7678L2.06795 77.7859L2.1393 77.7774L2.22001 77.7859L2.30904 77.7678L2.38039 77.7859L2.45227 77.7774L2.51439 77.7859L2.5951 77.7678L2.65762 77.7859L2.72026 77.7774L2.80045 77.7678L2.89 77.7859L2.95212 77.7774L3.024 77.7859L3.08625 77.7678L3.17567 77.7859L3.22935 77.7678L3.30083 77.7859H3.37218L3.51487 77.7503L3.58652 77.7405L3.64888 77.723L3.71168 77.6958L3.80108 77.6776L3.84565 77.6595L3.89933 77.6958V77.8582L3.8814 77.9129L3.87242 78.0027L3.84565 78.0751L3.8545 78.1379L3.81864 78.2018L3.82759 78.2738L3.80993 78.3551L3.78302 78.4183V78.5083L3.76533 78.5719V78.6356L3.73845 78.7074L3.72974 78.7982L3.72049 78.8518L3.64017 78.9149L3.58652 78.9338Z" fill="#B25C1E"/>
<path d="M7.94468 73.9468L7.97169 74.0277L7.99823 74.0916L8.01616 74.1725L7.98054 74.2452L7.91804 74.2271L7.83758 74.2357L7.77492 74.2452L7.70371 74.2357H7.48901L7.40882 74.2271L7.33721 74.2452H7.25689L7.18528 74.2271L7.13197 74.2452L7.06049 74.2271H6.98874L6.89961 74.2452L6.83708 74.2357H6.7656L6.68501 74.2271L6.64044 74.1725L6.67603 74.0916L6.68501 74.0277L6.72985 73.9468V73.8659L6.75662 73.7303L6.77445 73.6484V73.4954L6.75662 73.4138L6.72985 73.3056L6.68501 73.269L6.56025 73.2243H6.47952L6.40832 73.2335L6.34542 73.2243L6.25665 73.2335H6.11329L6.04178 73.2151L5.97929 73.2335H5.91716L5.83657 73.2243L5.71127 73.2509L5.66698 73.3056L5.63095 73.4138L5.62227 73.504V73.5763L5.6398 73.631L5.63095 73.7122L5.62227 73.7843L5.6398 73.856L5.62227 73.9198V74.0007L5.63095 74.0731V74.1366L5.6398 74.209L5.62227 74.2992L5.6398 74.4436L5.63095 74.4975L5.62227 74.5884L5.63095 74.6604V74.7239L5.66698 74.8321L5.72934 74.8868L5.83657 74.9404L5.91716 74.9315L5.97058 74.9404H6.04178L6.11329 74.9315L6.19399 74.9226L6.33671 74.9404L6.40832 74.9226L6.48878 74.9404H6.68501L6.75662 74.9315L6.84606 74.9226L6.89961 74.9404L6.9799 74.9315L7.04256 74.9226L7.13197 74.9315L7.20321 74.9404L7.26597 74.9226L7.3732 74.9769L7.4357 75.0223L7.48017 75.0763L7.52473 75.1387L7.57842 75.1934L7.63224 75.2296L7.70371 75.302L7.74801 75.3289L7.80183 75.3829L7.84653 75.4464L7.88215 75.5731V75.627L7.891 75.7178V75.7721L7.89984 75.8615V75.9886L7.891 76.0788L7.89984 76.1419L7.88215 76.2143L7.89984 76.2771L7.88215 76.3679V76.7196L7.891 76.7834L7.88215 76.8647V76.9186L7.89984 77.0003L7.891 77.0723L7.88215 77.1535V77.2802L7.891 77.3708L7.89984 77.4154V77.5063L7.88215 77.5691V77.651L7.891 77.723L7.89984 77.7774L7.891 77.8672L7.89984 77.9395L7.88215 78.0116V78.1471L7.891 78.2106L7.89984 78.3008L7.84653 78.4183L7.78404 78.4636L7.73008 78.5176L7.69436 78.5719L7.63224 78.617L7.59607 78.6801L7.52473 78.7252L7.48901 78.7709L7.44441 78.8341L7.3732 78.8703L7.27482 78.9243L7.20321 78.915L7.04256 78.9338L6.98874 78.9243H6.89961L6.84606 78.915L6.7656 78.9243L6.70307 78.915L6.62261 78.9243L6.5691 78.9338H6.47952L6.41703 78.915L6.3549 78.9338L6.26533 78.9243L6.2027 78.915L6.13136 78.9243L6.05103 78.915L5.9885 78.9338L5.92587 78.9243H5.78316L5.72066 78.9338L5.64905 78.915L5.56846 78.9243H5.48827L5.42574 78.915L5.34542 78.9338H5.29173L5.20219 78.915H5.1397L5.01491 78.8792L4.96112 78.816L4.90767 78.7709L4.85403 78.7167L4.80007 78.6713L4.76445 78.6258L4.70196 78.5719L4.59486 78.4728L4.55029 78.4006L4.49647 78.2738L4.47878 78.2106L4.49647 78.1471V78.057L4.48763 77.9941L4.47878 77.9215L4.49647 77.8494L4.48763 77.7774V77.5514L4.49647 77.4793L4.48763 77.4247V77.3434L4.49647 77.2714L4.46956 77.1358L4.44319 77.0545L4.43394 76.9729L4.38924 76.9186L4.37158 76.8466L4.42513 76.7564L4.48763 76.7657H4.64854L4.71117 76.7564H4.79136L4.85403 76.7739H4.92537L4.99671 76.7564L5.07744 76.7739L5.122 76.7657H5.49698L5.56846 76.7739L5.63095 76.7564L5.71127 76.7739L5.74703 76.8289L5.72066 76.9186L5.70246 76.9821L5.68464 77.0545L5.65786 77.1266L5.6398 77.2714V77.4154L5.62227 77.5151L5.63095 77.5872L5.68464 77.705L5.72934 77.7405L5.84528 77.7678L5.91716 77.7774L5.97058 77.786H6.05103L6.13136 77.7678H6.33671L6.41703 77.7774L6.47068 77.7678L6.551 77.7774L6.67603 77.732L6.72076 77.6866L6.75662 77.5691L6.77445 77.4428V77.3612L6.7656 77.2802V77.2171L6.77445 77.1443L6.75662 77.0815V76.9186L6.7656 76.8556L6.75662 76.7834V76.6387L6.77445 76.5667L6.75662 76.4946L6.77445 76.4218L6.75662 76.359L6.77445 76.2867L6.71192 76.16L6.67603 76.1241L6.551 76.0698L6.48878 76.0788L6.42625 76.0698H6.26533L6.19399 76.0788L6.14017 76.0698H6.05985L5.99749 76.0606L5.92587 76.0788H5.84528L5.79187 76.0606H5.5774L5.49698 76.0788L5.41666 76.0606L5.34542 76.0788H5.21144L5.1397 76.0698L5.01491 76.0244L4.96966 75.9794L4.90767 75.9162L4.8627 75.853L4.76445 75.7622L4.70196 75.7178L4.6397 75.6451L4.58588 75.6004L4.55029 75.5369L4.49647 75.4283L4.48763 75.3651L4.49647 75.2746V75.2026L4.48763 75.1306L4.49647 75.0763L4.47878 74.9947L4.49647 74.9134L4.48763 74.8414L4.49647 74.7867V74.6245L4.48763 74.5522L4.49647 74.4975L4.47878 74.4074L4.49647 74.3446L4.48763 74.2626L4.47878 74.1998L4.48763 74.1185L4.49647 74.055V73.9833L4.48763 73.9287V73.8386L4.47878 73.7665L4.49647 73.7122L4.47878 73.6214V73.4046L4.48763 73.3503L4.47878 73.2783L4.48763 73.2062L4.47878 73.125L4.49647 73.0526L4.47878 72.9078L4.48763 72.8269L4.49647 72.7548L4.48763 72.7002L4.54158 72.5828L4.59486 72.5107L4.6397 72.4749L4.69311 72.4295L4.74679 72.3567L4.80007 72.3301L4.8627 72.2755L4.90767 72.2212L4.97932 72.1765L5.0326 72.1218L5.13085 72.0771L5.20219 72.0679L5.29173 72.059L5.34542 72.0771L5.42574 72.0679L5.49698 72.059H5.56846L5.6398 72.0771H5.79187L5.84528 72.059L5.92587 72.0679H5.9885L6.05103 72.059L6.12265 72.0679L6.21178 72.0771L6.27418 72.0679L6.3549 72.059L6.41703 72.0679H6.49759L6.5691 72.059L6.62261 72.0771H6.68501L6.7656 72.0679L6.82837 72.059H6.91713L6.98874 72.0771L7.05127 72.059H7.19449L7.26597 72.0679L7.38191 72.1044L7.4357 72.158L7.48901 72.2212L7.52473 72.2574L7.57842 72.312L7.63224 72.3656L7.70371 72.411L7.74801 72.4834L7.85524 72.5828L7.90893 72.7094V72.7634L7.891 72.8542V72.9262L7.90893 72.9894L7.89984 73.0615V73.1431L7.891 73.2062L7.89984 73.2783V73.4954L7.891 73.5763L7.89984 73.6398L7.891 73.7122L7.90893 73.8659L7.94468 73.9468Z" fill="#B25C1E"/>
<path d="M3.85904 80.9595L3.87724 81.0226L3.86812 81.0954L3.88595 81.1763L3.89466 81.2305L3.92154 81.3119L3.91299 81.3839L3.94858 81.4564V81.5915L3.97536 81.6731V81.7271L3.99305 81.8179L4.01125 81.8807L4.02863 81.9442V82.0251L3.98434 82.0797L3.89466 82.0705L3.82342 82.0524L3.76092 82.0251L3.68941 82.0162L3.63614 81.9981L3.50216 81.962L3.4213 81.9716L3.35879 81.9804L3.2873 81.9716L3.19828 81.9804H3.13576L3.06428 81.962H2.98357L2.93015 81.9716L2.84086 81.962H2.76938L2.64435 82.0436L2.5817 82.1609L2.59041 82.2331L2.59964 82.3146L2.59041 82.3868V82.5222L2.5817 82.6127L2.59964 82.6851V82.8114L2.5817 82.9016V82.9562L2.59041 83.046L2.5817 83.1006L2.59964 83.1819L2.5817 83.2632L2.59964 83.317L2.59041 83.4076L2.59964 83.4796V83.5431L2.59041 83.6241V83.8316L2.59964 83.9136L2.5817 83.9767V84.0581L2.59964 84.2025L2.5817 84.2564L2.59964 84.4012L2.5817 84.4732V84.6272L2.59041 84.6992L2.5817 84.7898L2.59041 84.844L2.59964 84.925L2.5817 84.9977L2.59041 85.0601L2.5817 85.1332V85.2865L2.59041 85.3501L2.59964 85.4402L2.59041 85.5037V85.5665L2.59964 85.6385V85.8642L2.5817 85.9281V86.0725L2.59041 86.1627V86.2982L2.5817 86.3702L2.59964 86.4429V86.5057L2.5817 86.5782L2.59041 86.6598V86.7318L2.5817 86.8042L2.59041 86.8855V87.0118L2.59964 87.0846L2.59041 87.1743L2.60861 87.3191L2.64435 87.3731L2.65305 87.4639L2.67126 87.5182L2.7157 87.6079L2.67126 87.6622H2.59964L2.52842 87.6711L2.43874 87.6804H2.38519L2.31371 87.6711H2.17087L2.09069 87.6804L2.01868 87.6711H1.93836L1.87597 87.6804L1.81346 87.6622H1.74198L1.66165 87.6711L1.59914 87.6622L1.52779 87.6804L1.43824 87.6622L1.36702 87.6711L1.32231 87.599L1.34921 87.5359L1.39392 87.4639V87.3731L1.43824 87.3191L1.44707 87.1566L1.46514 87.1023L1.45644 87.0295L1.44707 86.9487V86.8855L1.46514 86.795L1.45644 86.7414L1.46514 86.6506V86.5871L1.44707 86.5149L1.45644 86.4515L1.44707 86.3794L1.46514 86.307V86.0001L1.44707 85.9462L1.45644 85.8734V85.7832L1.44707 85.7112L1.45644 85.6385L1.44707 85.5845V85.4313L1.46514 85.3501L1.44707 85.2776V85.2144L1.45644 85.1417L1.44707 85.0601L1.46514 84.9161L1.45644 84.8525V84.7714L1.46514 84.7171L1.44707 84.6179L1.45644 84.5641L1.46514 84.4919L1.45644 84.4012L1.44707 84.3472L1.46514 84.2656L1.45644 84.2025L1.46514 84.1301L1.44707 84.0488V83.9675L1.45644 83.9044L1.46514 83.8316V83.7696L1.44707 83.6965V83.4796L1.46514 83.3892L1.44707 83.326L1.45644 83.2632V83.1907L1.44707 83.1181L1.46514 83.046L1.44707 82.974L1.46514 82.8924L1.45644 82.8204V82.7479L1.44707 82.6667V82.6127L1.46514 82.5222L1.45644 82.4498L1.46514 82.3956L1.45644 82.3146L1.44707 82.2426V82.1787L1.41133 82.0436L1.35792 82.0073L1.25096 81.9804L1.1614 81.9716H1.10773L1.03637 81.9804L0.956186 81.9716L0.884702 81.9804L0.803988 81.962L0.74187 81.9804L0.679091 81.962L0.589669 81.9804L0.527156 81.9716L0.321806 81.9981L0.250455 82.0162L0.17884 82.0436L0.125293 82.0524L0.044842 82.0797L0 82.0162L0.00923216 81.962V81.8807L0.0269051 81.8086L0.044842 81.7451V81.6643L0.0538102 81.5822L0.0895517 81.5194L0.0983882 81.4564L0.10762 81.3931V81.3211L0.133998 81.2483V81.0954L0.169608 81.0226V80.8871L0.250455 80.8151L0.339743 80.8059H0.46464L0.535992 80.7969L0.616575 80.8059L0.696894 80.7969L0.768246 80.8059L0.830894 80.7969L0.902246 80.8151L0.973726 80.7969H1.05431L1.10773 80.8151L1.19701 80.7969L1.26863 80.8151H1.32231L1.40263 80.8059L1.46514 80.8151H1.53662L1.60784 80.7969L1.68869 80.8059L1.76004 80.7969H1.82269L1.90275 80.8059H1.98307L2.03687 80.8151H2.1263L2.17958 80.7969H2.26913L2.34048 80.8059L2.4121 80.7969H2.47448L2.5548 80.8151L2.69803 80.7969L2.76054 80.8059L2.84086 80.7969L2.90338 80.8151L3.04648 80.7969H3.25169L3.34111 80.8059H3.40378L3.47512 80.8151L3.55544 80.8059L3.6178 80.7969L3.68941 80.8151L3.77014 80.8059L3.83213 80.869L3.85904 80.9595Z" fill="#B25C1E"/>
<path d="M6.7967 84.8167L6.68021 84.7532L6.62694 84.7624H6.55532L6.475 84.7532L6.41251 84.7624H6.33232L6.26071 84.7714L6.19818 84.7532L6.1085 84.7714H5.9749L5.85859 84.8078L5.81371 84.844L5.76044 84.9522L5.75149 85.0242V85.1062L5.76928 85.1783V85.2415L5.75149 85.3312L5.76928 85.3947L5.75149 85.4582L5.76928 85.5302V85.6659L5.75149 85.7475V85.8198L5.76044 85.883L5.75149 85.9462L5.76928 86.0189V86.0905L5.76044 86.1719V86.3166L5.79619 86.4337L5.84934 86.4877L5.9749 86.5328H6.11748L6.18933 86.5149L6.26071 86.5245H6.39468L6.475 86.5149L6.53753 86.5328L6.60901 86.5245L6.69845 86.5149L6.80551 86.4877L6.84113 86.4429L6.89508 86.3166V86.1807L6.9038 86.0999L6.89508 86.0271V85.9551L6.9038 85.883L6.88583 85.8103L6.89508 85.7475L6.9038 85.6659L6.88583 85.6119L6.9038 85.5302L6.88583 85.4668L6.9038 85.3947L6.89508 85.3135L6.9038 85.2592L6.88583 85.1872V85.0971L6.9038 85.0242L6.88583 84.9703L6.84998 84.844L6.7967 84.8167ZM5.76928 82.2238L5.75149 82.2962L5.76928 82.3686L5.75149 82.4229V82.6396L5.76928 82.7118L5.75149 82.7753V82.9108L5.76928 83.0552L5.75149 83.1365L5.76928 83.1999L5.75149 83.2809V83.3352L5.76928 83.4257L5.81371 83.5251L5.85859 83.5794L5.98361 83.6148H6.04597L6.1267 83.6241H6.19818L6.26071 83.6148L6.32334 83.6241L6.41251 83.6148L6.475 83.6241L6.61785 83.6066H6.69845L6.81422 83.5612L6.84113 83.5339L6.9038 83.4164L6.89508 83.3529L6.9038 83.2809V83.1908L6.88583 83.1454L6.9038 83.0644V82.992L6.88583 82.9108L6.9038 82.8569L6.88583 82.7841L6.9038 82.6396L6.88583 82.5674L6.89508 82.4864V82.4407L6.88583 82.3509V82.2874L6.89508 82.2152V82.1338L6.84113 82.0251L6.80551 81.9893L6.68933 81.9353H6.62694L6.55532 81.9442L6.475 81.953L6.41251 81.9353L6.32334 81.953H6.18011L6.1267 81.9353H6.05536L5.98361 81.9442L5.85859 81.9981L5.8049 82.0436L5.76044 82.1518L5.76928 82.2238ZM4.59905 81.1128L4.56316 81.0408L4.55448 80.9683L4.51886 80.8963L4.56316 80.8151L4.62596 80.8243H4.7155L4.76864 80.8151H4.85808L4.92969 80.8059H4.98324L5.12606 80.8243H5.19754L5.26891 80.8059L5.34052 80.8151H5.40288L5.48375 80.8059L5.56407 80.8243L5.62646 80.8151L5.70675 80.8243L5.77813 80.8151H5.84076L5.90329 80.8059L5.99256 80.8243L6.04597 80.8151L6.1267 80.8059H6.18011L6.26071 80.8151H6.32334L6.39468 80.8059L6.48371 80.8151L6.53753 80.8059L6.62694 80.8243L6.68021 80.8059H6.74288L6.83242 80.8151H6.95707L7.04675 80.8059L7.10928 80.8243L7.18947 80.8151H7.26108L7.32357 80.8243L7.3861 80.8059L7.50242 80.8598L7.56454 80.9232L7.62717 80.9595L7.68113 81.0226L7.72546 81.0766L7.77924 81.104L7.81486 81.1763L7.87763 81.2218L7.94016 81.2668L7.97578 81.3299L8.02919 81.4382L8.04726 81.5284L8.02919 81.5915V81.6731L8.03841 81.7271L8.04726 81.7994L8.03841 81.8899L8.04726 81.962L8.03841 82.0251L8.02919 82.1071L8.04726 82.2508V82.3146L8.03841 82.3956L8.04726 82.4595V82.5223L8.02919 82.6035V82.6759L8.03841 82.7571L8.04726 82.8295V82.9016L8.03841 82.9651V83.046L8.02919 83.1091V83.4796L8.03841 83.5431L7.99357 83.6694L7.92196 83.7145L7.86855 83.7596L7.81486 83.8051L7.76118 83.8681L7.71675 83.9314L7.67201 83.9675L7.61836 84.0132L7.54712 84.0673L7.50242 84.1393V84.2387L7.54712 84.2929L7.6008 84.3291L7.66279 84.3923L7.71675 84.4374L7.77043 84.5002L7.82395 84.5367L7.87763 84.6088L7.93091 84.6449L7.99357 84.6992L8.02919 84.8351V84.9071L8.04726 84.9614L8.03841 85.0335V85.1062L8.04726 85.1783V85.2592L8.03841 85.3312L8.04726 85.4039L8.02919 85.4668L8.04726 85.5488L8.03841 85.6208L8.04726 85.6751V85.8373L8.02919 85.9008V86.2439L8.04726 86.3344L8.02919 86.4785L8.04726 86.5966L8.03841 86.6686L8.04726 86.7591L8.02919 86.8312L8.04726 86.9032L8.02919 86.9671V87.0295L7.97578 87.1566L7.93091 87.2109L7.86855 87.2648L7.82395 87.3191L7.76118 87.3556L7.73468 87.4099L7.67201 87.4819L7.61836 87.527L7.55583 87.5628L7.52008 87.6261L7.40403 87.6895L7.31463 87.6804L7.24325 87.6711H7.17191L7.11796 87.6804L7.04675 87.6895L6.96643 87.6804H6.82334L6.75186 87.6711L6.69845 87.6895L6.61785 87.6711H6.48371L6.40339 87.6895H6.34103L6.26071 87.6711L6.18011 87.6895L6.1267 87.6804L6.0373 87.6895L5.98361 87.6804H5.912L5.83181 87.6711H5.77813L5.70675 87.6895L5.63514 87.6711L5.55495 87.6895L5.47439 87.6804L5.40288 87.6895H5.33154L5.26891 87.6711H5.20638L5.12606 87.6804L5.0637 87.6895L4.98324 87.6804L4.92071 87.6711H4.55448L4.52757 87.6079L4.53625 87.527L4.57227 87.4454L4.59905 87.3825L4.60827 87.3191L4.65273 87.1566L4.63467 87.1023L4.65273 87.0295V86.9487L4.63467 86.8767L4.64389 86.795L4.65273 86.7318L4.64389 86.6686V86.5966L4.65273 86.5245L4.63467 86.4337V86.3617L4.65273 86.2982L4.63467 86.2262L4.64389 86.1445V86.0725L4.63467 86.0189L4.64389 85.9281L4.63467 85.8734V85.7832L4.64389 85.7112L4.63467 85.6478L4.64389 85.5665L4.65273 85.5122L4.63467 85.4402L4.65273 85.3501V85.2866L4.64389 85.2052V85.1509L4.63467 85.0789L4.64389 84.9977V84.925L4.65273 84.8622L4.63467 84.7808V84.7171L4.64389 84.6449L4.65273 84.5641V84.4282L4.64389 84.3561V84.2656L4.65273 84.2025L4.63467 84.1209L4.64389 84.0488V83.9946L4.65273 83.9136V83.7596L4.64389 83.7057V83.5521L4.65273 83.4796L4.63467 83.4076L4.64389 83.3352L4.65273 83.2539V83.1819L4.64389 83.1181L4.63467 83.0371V82.8924L4.64389 82.8381L4.63467 82.7479L4.65273 82.6219L4.63467 82.5315L4.65273 82.4676L4.64389 82.4048L4.63467 82.3146L4.64389 82.2603L4.63467 82.1787V82.0251L4.64389 81.962V81.8086L4.63467 81.7451L4.64389 81.6643L4.63467 81.6096V81.4564L4.65273 81.3931V81.3027L4.62596 81.1675L4.59905 81.1128Z" fill="#B25C1E"/>
<path d="M103.642 78.6357L103.668 78.6985L103.686 78.7794L103.722 78.843L103.659 78.9243L103.597 78.915L103.525 78.9243H103.383L103.32 78.9338H103.231L103.168 78.9243L103.097 78.9338L103.025 78.9243L102.945 78.9338L102.891 78.9243L102.811 78.915H102.739L102.668 78.9243L102.605 78.9338L102.534 78.915H102.373L102.346 78.8607L102.373 78.7887L102.382 78.7167L102.418 78.6258L102.445 78.5719L102.453 78.4183L102.462 78.3281L102.472 78.2653L102.453 78.1833V78.111L102.462 78.057L102.453 77.9668L102.472 77.8224L102.453 77.7504L102.472 77.6238L102.462 77.5424L102.453 77.4793L102.472 77.3977L102.462 77.3161L102.472 77.2441L102.453 77.1808L102.472 77.0996L102.453 77.0272L102.472 76.9641L102.453 76.8917V76.8289L102.462 76.7383V76.666L102.472 76.5936L102.462 76.5301V76.3864L102.453 76.3224L102.472 76.2323L102.462 76.16L102.472 76.088L102.453 76.0244L102.472 75.9431L102.453 75.8615L102.462 75.7899V75.726L102.453 75.6629V75.4372L102.472 75.3743L102.462 75.2927L102.453 75.2204V75.1572L102.462 75.0667V75.0035L102.453 74.9315V74.8595L102.462 74.7779L102.453 74.7143L102.462 74.6334L102.472 74.5614L102.462 74.5068V74.4166L102.453 74.362L102.462 74.2811L102.453 74.209V74.0731L102.462 73.9919L102.453 73.9287V73.8386L102.472 73.7843V73.6938L102.409 73.5763L102.364 73.5405L102.266 73.4773L102.195 73.4954H102.052L101.971 73.4859L101.917 73.4319L101.953 73.3418L101.962 73.2783L101.98 73.2243L102.025 73.0707L102.042 73.0167L102.061 72.9443L102.069 72.8812L102.105 72.8173L102.114 72.7456L102.15 72.6732V72.619L102.185 72.5285L102.195 72.4834L102.221 72.411L102.239 72.339L102.248 72.2755L102.275 72.2127L102.302 72.1218L102.4 72.0679H102.605L102.686 72.059L102.748 72.0679L102.829 72.0498H102.891L102.963 72.0679L103.043 72.059L103.114 72.0498H103.168L103.249 72.0679L103.311 72.059H103.391L103.472 72.0498H103.534L103.606 72.1218L103.597 72.2034V72.3567L103.615 72.4199L103.606 72.4834L103.615 72.5558L103.606 72.6367V72.7002L103.597 72.7723V72.8542L103.615 72.9351L103.606 72.9983L103.615 73.0615V73.1335L103.597 73.2062L103.606 73.2964L103.615 73.3503V73.4319L103.597 73.504L103.615 73.5675L103.597 73.7303L103.606 73.7843V74.0106L103.597 74.0916V74.1544L103.615 74.2357L103.597 74.2992L103.606 74.3712L103.615 74.4347L103.606 74.5163L103.615 74.5788L103.597 74.6693L103.606 74.7328V74.8048L103.597 74.8868V74.9496L103.606 75.0309L103.597 75.094V75.1572L103.615 75.2477L103.606 75.3108L103.597 75.3829L103.606 75.4645V75.5184L103.615 75.5912V75.681L103.606 75.7349L103.597 75.8168L103.606 75.8978L103.597 75.9524L103.615 76.0432V76.1053L103.606 76.1784L103.615 76.2412L103.606 76.3224V76.3949L103.615 76.4761V76.5301L103.597 76.621L103.615 76.6748V76.9009L103.597 76.9821L103.615 77.045L103.597 77.1177L103.615 77.199L103.606 77.2529V77.3257L103.597 77.4069L103.606 77.4793L103.615 77.5601V77.6323L103.606 77.705L103.597 77.7678L103.606 77.8403L103.597 77.9215V78.0662L103.606 78.1294L103.597 78.2018L103.606 78.2827V78.3551L103.615 78.4275L103.624 78.563L103.642 78.6357Z" fill="#B25C1E"/>
<path d="M106.785 73.251L106.678 73.2151L106.606 73.2062H106.535L106.454 73.2243L106.383 73.2062L106.311 73.2151H106.178L106.088 73.2243L106.035 73.2151L105.945 73.2243L105.829 73.269L105.802 73.3056L105.749 73.423L105.74 73.4773L105.749 73.5582L105.74 73.6398L105.757 73.7122L105.749 73.7665L105.74 73.8386V73.9287L105.749 74.0007L105.74 74.0731L105.757 74.1366L105.74 74.2179L105.757 74.2718L105.749 74.3446V74.4166L105.74 74.489V74.5788L105.749 74.6522L105.757 74.7143L105.793 74.8229L105.838 74.8683L105.963 74.9315H106.097L106.178 74.9134L106.231 74.9315H106.445L106.535 74.9134L106.598 74.9226L106.669 74.9315L106.794 74.8772L106.839 74.8414L106.874 74.7058L106.883 74.6522L106.874 74.5788V74.4975L106.865 74.4255L106.883 74.3535V74.2811L106.874 74.1998L106.865 74.1452L106.874 74.0646L106.865 73.9919L106.874 73.9198L106.883 73.8386V73.631L106.874 73.5494L106.883 73.4859L106.865 73.4046L106.83 73.2964L106.785 73.251ZM107.544 72.1672L107.598 72.2301L107.66 72.2755L107.723 72.339L107.759 72.3841L107.803 72.4199L107.866 72.4919L107.91 72.5469L107.973 72.5828L108.018 72.7002L108.027 72.7723L108.009 72.8624L108.018 72.9167L108.027 73.0072V73.0615L108.018 73.1431V73.2151L108.027 73.2964L108.018 73.3503L108.009 73.423V73.5675L108.018 73.6484V73.7122L108.027 73.7932L108.018 73.8748L108.027 73.9287V74.0007L108.018 74.0731L108.009 74.1636L108.027 74.2357L108.018 74.2992V74.3712L108.027 74.4347L108.018 74.5163V74.5884L108.009 74.6604L108.027 74.7328V74.8048L108.009 74.8868L108.018 74.9588L108.009 75.0223V75.1036L108.018 75.1661L108.009 75.2477L108.018 75.302L108.027 75.3829L108.018 75.4464L108.009 75.5184L108.027 75.6089V75.6629L108.018 75.7533L108.027 75.8168L108.018 75.8803L108.027 75.9524L108.018 76.0432V76.1152L108.027 76.1784L108.009 76.2412L108.018 76.3224L108.009 76.3949L108.018 76.4584V76.5301L108.009 76.6113V76.7564L108.018 76.8377L108.027 76.8917L108.018 76.9821L108.027 77.0545L108.018 77.1177V77.3977L108.027 77.4793L108.018 77.5424L108.027 77.6323L108.009 77.6866V77.8313L108.018 77.9215L108.009 77.985L108.027 78.0482L108.009 78.1379L108.027 78.2018V78.2653L107.964 78.4006L107.928 78.4544L107.875 78.5083L107.803 78.5719L107.75 78.617L107.723 78.6627L107.669 78.7167L107.598 78.7709L107.554 78.816L107.508 78.8792L107.374 78.9243L107.312 78.915L107.25 78.9243L107.178 78.9338L107.106 78.9243L107.026 78.9338H106.741L106.686 78.9243H106.606L106.526 78.915L106.472 78.9338L106.392 78.9243L106.329 78.9338L106.258 78.915L106.169 78.9338L106.097 78.9243L106.044 78.915L105.963 78.9243L105.91 78.915L105.829 78.9243H105.686L105.606 78.9338L105.543 78.915L105.481 78.9338H105.401L105.329 78.915L105.249 78.9243L105.141 78.8703L105.087 78.8249L105.034 78.7709L104.989 78.7074L104.945 78.6531L104.882 78.6081L104.838 78.563L104.793 78.4998L104.722 78.4544L104.686 78.409L104.623 78.2653L104.632 78.1925V78.0662L104.641 77.985L104.632 77.9129L104.641 77.8494V77.7593L104.623 77.6958L104.641 77.6238L104.623 77.5514L104.632 77.4693V77.3345L104.641 77.2618L104.596 77.1177L104.578 77.0545L104.551 76.9821L104.498 76.8377L104.551 76.7564H104.614L104.695 76.7657L104.775 76.7564H104.838L104.918 76.7468L104.981 76.7564L105.061 76.7468H105.123L105.204 76.7564L105.257 76.7468H105.347L105.418 76.7564L105.481 76.7468L105.552 76.7564H105.624L105.704 76.7657L105.767 76.7468H105.838L105.891 76.8289L105.856 76.8917L105.838 76.9641L105.802 77.045L105.776 77.1088L105.749 77.2802L105.74 77.3345V77.4069L105.749 77.4793V77.5601L105.802 77.6866L105.838 77.732L105.963 77.7678L106.017 77.7774L106.106 77.7593H106.16L106.249 77.7774L106.303 77.7593H106.383L106.454 77.7774L106.517 77.7593L106.606 77.7774H106.669L106.794 77.723L106.839 77.6866L106.883 77.5601L106.874 77.4881L106.883 77.4338V77.2891L106.892 77.199V77.1266L106.874 77.0723L106.883 77.0003L106.892 76.9098V76.6297L106.883 76.5667L106.892 76.4946L106.883 76.4307L106.892 76.359L106.874 76.2867L106.83 76.1692L106.785 76.1152L106.686 76.0698H106.615L106.544 76.0788L106.4 76.0606H106.24L106.178 76.0698L106.106 76.0788L106.025 76.0698H105.963L105.91 76.0606L105.82 76.0698H105.749L105.686 76.0606L105.624 76.0698L105.534 76.0606L105.391 76.0788L105.338 76.0606H105.249L105.141 76.0158L105.096 75.9794L105.025 75.9251L104.981 75.853L104.945 75.7987L104.892 75.7533L104.82 75.7178L104.775 75.654L104.73 75.6004L104.668 75.5369L104.632 75.4283L104.641 75.3651L104.623 75.2927L104.641 75.2115L104.632 75.1483V75.0763L104.641 74.9947L104.623 74.9134V74.7867L104.632 74.7058L104.641 74.642L104.632 74.5699V74.4975L104.623 74.4347L104.632 74.3535L104.623 74.2811L104.632 74.209V74.055L104.641 74.0106L104.623 73.9198L104.641 73.8659V73.7751L104.632 73.7122L104.641 73.6484V73.4954L104.632 73.4319L104.641 73.3418L104.632 73.2875L104.623 73.2062L104.641 73.1523L104.632 73.0707V72.9983L104.641 72.9263V72.8542L104.623 72.7815V72.7094L104.676 72.592L104.73 72.5374L104.793 72.4834L104.882 72.3841L104.945 72.3205L104.989 72.2666L105.042 72.2212L105.087 72.1672L105.141 72.1133L105.257 72.0679H105.329L105.401 72.059H105.624L105.686 72.0498L105.757 72.0679L105.838 72.059L105.891 72.0679L105.954 72.0498L106.044 72.059L106.115 72.0679L106.178 72.059H106.311L106.392 72.0679H106.454L106.526 72.0498L106.615 72.059L106.686 72.0498H106.741L106.803 72.059L106.883 72.0679H106.946L107.035 72.059L107.089 72.0679H107.24L107.321 72.0498H107.374L107.508 72.1218L107.544 72.1672Z" fill="#B25C1E"/>
<path d="M103.356 84.8167L103.24 84.7714L103.159 84.7898H103.035L102.963 84.7714L102.865 84.7898H102.794L102.74 84.7808L102.669 84.7714L102.579 84.7808L102.526 84.7714L102.4 84.8259L102.355 84.8799L102.32 84.9793L102.302 85.0697L102.32 85.2144L102.302 85.2865L102.32 85.3408L102.31 85.4039V85.4768L102.302 85.5576L102.32 85.6385V85.7018L102.31 85.756L102.302 85.8373V85.9728L102.31 86.036V86.1179L102.302 86.1807L102.32 86.2713L102.31 86.3433L102.374 86.4702L102.508 86.5245L102.597 86.5423H102.66L102.731 86.5245H102.794L102.883 86.5328L102.954 86.5423H103.016L103.097 86.5245L103.169 86.5328H103.231L103.374 86.4702L103.446 86.3255V86.1179L103.436 86.036L103.428 85.9912V85.7018L103.446 85.6385L103.436 85.5576L103.428 85.4856V85.4039L103.436 85.3408L103.446 85.2687V85.2052L103.428 85.1332L103.436 85.0519V84.9793L103.401 84.8707L103.356 84.8167ZM103.249 81.962L103.177 81.953L103.097 81.9716L103.026 81.962H102.954L102.865 81.9716H102.794L102.65 81.953L102.588 81.9716L102.516 81.953L102.374 82.0346L102.31 82.1609L102.302 82.2331L102.31 82.2962V82.5137L102.302 82.5947L102.32 82.6578V82.793L102.302 82.8654L102.32 82.9377L102.31 83.0191V83.0819L102.32 83.1365L102.31 83.2174L102.302 83.2901L102.31 83.3717L102.302 83.4257L102.365 83.5521L102.392 83.5879L102.526 83.6425H102.588L102.66 83.6337H102.74L102.794 83.6425L102.865 83.6241L102.963 83.6337H103.088L103.169 83.6425H103.231L103.347 83.5971L103.401 83.5431L103.446 83.4257L103.436 83.3529L103.428 83.2901L103.446 83.2273L103.436 83.1546L103.446 83.0819V83.0009L103.428 82.9289V82.7841L103.446 82.721V82.6667L103.428 82.5762L103.446 82.5137V82.4498L103.436 82.3686V82.2962L103.446 82.2426L103.436 82.1699L103.374 82.0346L103.249 81.962ZM104.125 80.9232L104.16 80.9772L104.232 81.0226L104.276 81.0766L104.33 81.1128L104.365 81.1763L104.464 81.2845L104.518 81.3476L104.562 81.4564L104.571 81.5378V81.6011L104.562 81.6731L104.571 81.7451L104.562 81.8265L104.58 81.8988V82.1244L104.562 82.1966L104.58 82.2508L104.571 82.3235L104.562 82.414L104.58 82.4864L104.571 82.5492L104.562 82.6219L104.571 82.7032V82.8295L104.562 82.9016L104.571 82.992L104.58 83.0644L104.571 83.1181L104.58 83.1907L104.562 83.2632L104.571 83.3448V83.4164L104.562 83.4984L104.571 83.5612L104.526 83.6875L104.464 83.7422L104.428 83.8051L104.365 83.8416L104.312 83.8859L104.267 83.9587L104.223 84.0132L104.178 84.0399L104.071 84.157L104.062 84.2479L104.16 84.3739L104.223 84.4012L104.267 84.4555L104.321 84.5275L104.384 84.5641L104.419 84.6179L104.482 84.6631L104.518 84.7265L104.58 84.8622L104.562 84.925L104.58 85.0065L104.562 85.0601V85.1417L104.58 85.2052L104.571 85.2954L104.58 85.3681V85.4402L104.571 85.5122L104.562 85.5665L104.58 85.6385L104.562 85.7112L104.571 85.7922L104.58 85.8557L104.562 85.9369L104.58 86.0091L104.562 86.0725L104.58 86.1627V86.2262L104.562 86.307V86.3794L104.571 86.4515V86.5149L104.58 86.5782V86.6598L104.571 86.7318L104.58 86.8134V86.8767L104.562 86.9579V87.0295L104.526 87.1566L104.464 87.1928L104.428 87.256L104.384 87.3102L104.33 87.3638L104.285 87.4L104.223 87.4547L104.169 87.5182L104.133 87.5628L104.062 87.6349L103.955 87.6711L103.883 87.6622H103.749L103.678 87.6804L103.606 87.6711L103.526 87.6622L103.454 87.6804L103.383 87.6622L103.311 87.6804H103.24L103.177 87.6711L103.106 87.6622L103.035 87.6804L102.954 87.6622L102.874 87.6711L102.82 87.6622L102.757 87.6711L102.669 87.6622H102.526L102.454 87.6804L102.4 87.6711H102.249L102.186 87.6804H102.106L102.025 87.6711H101.972L101.891 87.6804L101.829 87.6622L101.695 87.6261L101.65 87.5721L101.552 87.472L101.489 87.4184L101.436 87.3556L101.391 87.301L101.337 87.247L101.275 87.2009L101.221 87.1388L101.159 87.0295L101.167 86.9397L101.176 86.8677L101.167 86.8134V86.7226L101.176 86.6686L101.159 86.5966L101.167 86.5149L101.159 86.4515V86.3617L101.176 86.2893L101.167 86.217V86.1627L101.159 86.0725L101.176 86.0001V85.8734L101.167 85.7922V85.7289L101.176 85.6569V85.5845L101.167 85.5037L101.176 85.4217V85.2865L101.159 85.2144L101.176 85.1417L101.159 85.0601L101.176 84.9977L101.159 84.9345L101.167 84.8525L101.23 84.7357L101.284 84.6631L101.32 84.6179L101.364 84.5729L101.427 84.5275L101.471 84.4555L101.534 84.4012L101.569 84.3649L101.677 84.2479V84.1482L101.614 84.1126L101.569 84.0488L101.534 84.0132L101.471 83.9587L101.436 83.8859L101.364 83.8416L101.328 83.7961L101.275 83.7508L101.221 83.6875L101.176 83.5521L101.167 83.4885V83.4164L101.176 83.3352L101.167 83.2632L101.176 83.2089L101.159 83.1181L101.176 83.0552L101.167 82.992L101.159 82.9108L101.167 82.8469L101.159 82.7753L101.176 82.6851L101.167 82.6304V82.5404L101.159 82.4676V82.414L101.167 82.3323V82.2603L101.159 82.1883L101.176 82.1156L101.167 82.0524L101.176 81.962V81.8265L101.167 81.7451L101.159 81.6731L101.167 81.6188L101.176 81.5468L101.159 81.4658L101.221 81.3388L101.275 81.2845L101.32 81.2218L101.382 81.1675L101.489 81.0681L101.534 81.0134L101.587 80.9772L101.659 80.9232L101.713 80.8512L101.82 80.8151L101.882 80.8059L101.954 80.8151L102.034 80.7969L102.115 80.8059L102.177 80.7969H102.382L102.454 80.8059L102.535 80.8151L102.615 80.8059H102.677L102.74 80.8151L102.811 80.7969L102.892 80.8151L102.945 80.8059L103.016 80.8151L103.106 80.7969H103.169L103.231 80.8151L103.311 80.7969L103.374 80.8059H103.463L103.518 80.8151L103.597 80.7969L103.669 80.8059H103.731L103.803 80.7969L103.883 80.8151L103.964 80.7969L104.071 80.8512L104.125 80.9232Z" fill="#B25C1E"/>
<path d="M108.947 82.6851L108.964 82.7571L108.982 82.8381L109 82.9108L108.956 82.992L108.884 82.9828L108.831 82.992H108.741L108.678 82.9828L108.607 82.974L108.527 82.992L108.464 82.974H108.384L108.313 82.9828H108.249L108.188 82.974L108.098 82.992H107.955L107.901 82.9828L107.821 82.974H107.758L107.687 82.9828L107.642 82.9197L107.669 82.8469V82.7661L107.705 82.7032L107.74 82.6304L107.758 82.4676L107.75 82.3956V82.3323L107.758 82.2426L107.74 82.1609L107.687 82.0251L107.562 81.9804L107.473 81.962L107.419 81.9804L107.33 81.9716H107.258L107.195 81.9804H106.901L106.812 81.9716L106.695 81.9981L106.651 82.0524L106.606 82.1609L106.615 82.2331V82.3778L106.598 82.5404L106.615 82.6127L106.598 82.6667L106.606 82.7479L106.598 82.8204V82.9651L106.615 83.0283L106.606 83.1091L106.598 83.1819L106.615 83.2539L106.598 83.326L106.615 83.4076V83.4796L106.651 83.5879L106.695 83.6337L106.812 83.6875H106.883L106.954 83.6694H107.017L107.088 83.6788L107.169 83.6875L107.24 83.6788H107.312L107.383 83.6694L107.446 83.6788H107.597L107.679 83.6875H107.883L107.955 83.6694L108.027 83.6788L108.107 83.6875L108.178 83.6694L108.241 83.6788L108.357 83.7145L108.41 83.7777L108.473 83.8231L108.536 83.8681L108.571 83.9224L108.688 84.0488L108.723 84.085L108.786 84.1301L108.839 84.2025L108.875 84.3019L108.884 84.3834L108.875 84.4555V84.591L108.893 84.6631L108.875 84.7443L108.893 84.8078V84.8891L108.875 84.9703L108.884 85.0154L108.893 85.0874L108.875 85.1601V85.3135L108.884 85.3947L108.893 85.4582L108.875 85.5302L108.893 85.6119L108.875 85.6659L108.893 85.729V85.8014L108.875 85.883L108.884 85.9551L108.893 86.0189L108.875 86.1084L108.884 86.1719V86.235L108.893 86.3166V86.3794L108.875 86.4606L108.884 86.5149V86.5966L108.893 86.6775L108.875 86.7495L108.893 86.8134L108.884 86.8944L108.875 86.9579V87.0207L108.848 87.1388L108.786 87.2009L108.741 87.2648L108.669 87.3191L108.616 87.3731L108.589 87.4184L108.536 87.472L108.473 87.5182L108.42 87.5721L108.375 87.6261L108.241 87.6804L108.178 87.6711L108.098 87.6804L108.045 87.6711H107.893L107.812 87.6804L107.758 87.6895L107.687 87.6804H107.607L107.544 87.6895H107.481L107.41 87.6804L107.33 87.6711H107.178L107.124 87.6804L107.044 87.6711L106.973 87.6895L106.901 87.6711L106.839 87.6895H106.776L106.695 87.6804L106.633 87.6711L106.544 87.6895H106.481L106.41 87.6711H106.267L106.195 87.6895L106.115 87.6804L105.999 87.6349L105.945 87.5721L105.901 87.5182L105.802 87.4099L105.748 87.3556L105.695 87.301L105.659 87.2648L105.597 87.1928L105.543 87.1474L105.498 87.0207V86.9579L105.481 86.8767V86.8222L105.49 86.7414L105.498 86.6686L105.481 86.6055L105.49 86.5245V86.307L105.498 86.2439V86.0271L105.463 85.883L105.436 85.7922L105.427 85.7204L105.382 85.5938L105.418 85.5037L105.561 85.5214L105.624 85.5037H105.695L105.785 85.5122H105.927L105.99 85.5214L106.052 85.5122L106.142 85.5037L106.195 85.5214L106.276 85.5037L106.356 85.5214L106.427 85.5037L106.49 85.5214H106.561L106.642 85.5122L106.704 85.5037L106.731 85.5845L106.714 85.6569L106.686 85.7379L106.669 85.8103L106.642 85.883L106.615 86.0091L106.598 86.1538L106.615 86.2262L106.606 86.2982L106.642 86.4337L106.695 86.4877L106.82 86.5149H106.901L106.963 86.5328L107.044 86.5149H107.124L107.178 86.5328L107.258 86.5245L107.33 86.5328L107.401 86.5245L107.481 86.5149L107.562 86.5245L107.66 86.4785L107.723 86.4429L107.758 86.3166V86.2535L107.74 86.1719L107.75 86.1084L107.74 86.0189L107.758 85.9551V85.5938L107.75 85.5302V85.4668L107.758 85.3774L107.74 85.3046V85.2325L107.75 85.1691L107.74 85.0874L107.758 85.0335L107.723 84.9071L107.66 84.8707L107.553 84.8167H107.49L107.401 84.8259L107.339 84.8351H107.276L107.187 84.8167H106.973L106.919 84.8259H106.829L106.776 84.8351H106.686L106.624 84.8167H106.544L106.472 84.8259L106.41 84.8351L106.347 84.8259L106.258 84.8167L106.186 84.8259L106.115 84.8167L106.008 84.7624L105.909 84.6631L105.856 84.6088L105.802 84.5548L105.74 84.519L105.695 84.4459L105.659 84.4104L105.597 84.3376L105.543 84.3019L105.481 84.1754L105.49 84.0942V84.0218L105.481 83.9587L105.498 83.8952L105.481 83.8051L105.49 83.7508L105.481 83.6602L105.498 83.5971L105.481 83.5339L105.49 83.4529L105.481 83.3802L105.49 83.3082L105.481 83.2539L105.498 83.1635L105.481 83.0914V83.0191L105.498 82.9462L105.49 82.8835V82.6759L105.498 82.6035L105.481 82.5404L105.49 82.4676V82.3956L105.481 82.3051L105.49 82.2426V82.1699L105.498 82.1071L105.49 82.0162L105.481 81.962V81.8722L105.49 81.7994V81.7451L105.481 81.6731L105.498 81.6011L105.49 81.5284L105.481 81.4474L105.498 81.3027L105.481 81.2483L105.498 81.1675V81.104L105.49 81.0226L105.498 80.9506V80.869L105.552 80.8151H105.775L105.847 80.8059L105.909 80.8151L105.99 80.8059H106.133L106.213 80.8151L106.284 80.7969L106.338 80.8151H106.418L106.481 80.8059H106.561L106.633 80.7969H106.767L106.839 80.8059L106.901 80.8151L106.981 80.7969H107.061L107.133 80.8151L107.178 80.8059H107.33L107.401 80.7969H107.463L107.553 80.8151L107.615 80.7969L107.696 80.8059L107.758 80.7969L107.83 80.8151H107.91L107.973 80.8059H108.107L108.178 80.8151H108.259L108.313 80.7969H108.393L108.455 80.8059L108.536 80.8151L108.607 80.8059H108.759L108.822 80.8151L108.893 80.8871V81.0315L108.884 81.0861V81.3931L108.902 81.4474L108.893 81.5378L108.902 81.6011L108.893 81.682V81.7369L108.902 81.8265V81.8807L108.893 81.962V82.0436L108.884 82.0975L108.902 82.1787L108.884 82.2426L108.902 82.3235L108.893 82.4048L108.884 82.4676L108.911 82.6127L108.947 82.6851Z" fill="#B25C1E"/>
<path d="M28.0311 85.9564V76.7903H31.7864V78.0996H29.4554V85.9564H28.0311Z" fill="#2B1C14"/>
<path d="M32.3416 84.66C32.989 84.66 33.1962 84.5681 33.2219 83.7173L33.4551 76.7903H37.4822V85.9564H36.0317V78.0996H34.7889L34.6336 83.6387C34.5816 85.3149 33.986 85.9697 32.5617 85.9697H32.3416V84.66Z" fill="#2B1C14"/>
<path d="M39.928 83.0494H41.3005L40.6144 78.4141L39.928 83.0494ZM43.1781 85.9564H41.7408L41.4946 84.2936H39.7467L39.5006 85.9564H38.1929L39.6434 76.7903H41.7276L43.1781 85.9564Z" fill="#2B1C14"/>
<path d="M45.2614 81.8315V84.6471H46.0774C46.5565 84.6471 46.8155 84.4247 46.8155 83.7432V82.9449C46.8155 82.0934 46.5437 81.8315 45.8961 81.8315H45.2614ZM45.2614 78.0996V80.5221H45.8185C46.3492 80.5221 46.673 80.2861 46.673 79.5531V79.0427C46.673 78.3879 46.4529 78.0996 45.9478 78.0996H45.2614ZM48.0975 78.8983V79.2257C48.0975 80.1688 47.8125 80.7711 47.1781 81.0723C47.9418 81.3733 48.2396 82.0671 48.2396 83.0364V83.7828C48.2396 85.1967 47.5019 85.9564 46.0774 85.9564H43.8372V76.7903H45.9866C47.4627 76.7903 48.0975 77.484 48.0975 78.8983Z" fill="#2B1C14"/>
<path d="M50.5169 85.9564H49.0928V76.7903H53.586V85.9564H52.1359V78.0996H50.5169V85.9564Z" fill="#2B1C14"/>
<path d="M56.0831 85.9564H54.6198V76.7903H55.8889V82.5908L56.4068 80.5744L57.5724 76.7903H59.139V85.9564H57.857V79.5008L57.2746 81.753L56.0831 85.9564Z" fill="#2B1C14"/>
<path d="M61.5717 81.8315V84.6471H62.3875C62.8669 84.6471 63.1262 84.4247 63.1262 83.7432V82.9449C63.1262 82.0934 62.8541 81.8315 62.2065 81.8315H61.5717ZM61.5717 78.0996V80.5221H62.1292C62.6599 80.5221 62.9837 80.2861 62.9837 79.5531V79.0427C62.9837 78.3879 62.7636 78.0996 62.2582 78.0996H61.5717ZM64.4082 78.8983V79.2257C64.4082 80.1688 64.1232 80.7711 63.4888 81.0723C64.2525 81.3733 64.5507 82.0671 64.5507 83.0364V83.7828C64.5507 85.1967 63.8123 85.9564 62.3875 85.9564H60.1479V76.7903H62.2973C63.7734 76.7903 64.4082 77.484 64.4082 78.8983Z" fill="#2B1C14"/>
<path d="M68.4199 83.2984L69.3912 76.7903H71.3725V85.9564H70.0256V79.3831L69.0418 85.9564H67.6953L66.6331 79.475V85.9564H65.3903V76.7903H67.3715L68.4199 83.2984Z" fill="#2B1C14"/>
<path d="M73.7659 83.0494H75.1391L74.4527 78.4141L73.7659 83.0494ZM77.016 85.9564H75.579L75.3329 84.2936H73.5846L73.3388 85.9564H72.0312L73.4813 76.7903H75.5658L77.016 85.9564Z" fill="#2B1C14"/>
<path d="M77.688 85.9564V76.7903H81.4435V78.0996H79.1121V85.9564H77.688Z" fill="#2B1C14"/>
</svg>
