<svg width="30" height="30" viewBox="0 0 30 30" fill="none" xmlns="http://www.w3.org/2000/svg">
<path d="M16.092 29.331L16.092 29.331C15.8801 29.1081 13.2163 26.284 10.6087 22.5966C9.30485 20.7529 8.02248 18.7036 7.06773 16.6638C6.10981 14.6171 5.5 12.6182 5.5 10.8648C5.5 5.17648 10.4079 0.5 16.5 0.5C22.5921 0.5 27.4999 5.17647 27.5 10.8648C27.5 12.6182 26.8902 14.6171 25.9323 16.6638C24.9775 18.7036 23.6952 20.7529 22.3913 22.5966C19.7837 26.284 17.1199 29.1081 16.908 29.331L16.908 29.3311C16.6941 29.5562 16.3062 29.5565 16.092 29.331ZM10.2141 10.8648C10.2141 14.1815 13.0606 16.8312 16.5 16.8312C19.9393 16.8312 22.7858 14.1816 22.7858 10.8649C22.7858 7.54818 19.9393 4.89848 16.5 4.89848C13.0607 4.89848 10.2141 7.5481 10.2141 10.8648Z" stroke="#F3B917"/>
</svg>
