<svg width="50" height="50" viewBox="0 0 50 50" fill="none" xmlns="http://www.w3.org/2000/svg">
<path d="M22.5 20.9021L29.0566 25L22.5 29.0979V20.9021Z" stroke="#F3B917"/>
<path d="M12.6451 35.751C13.3148 35.9324 14.4325 36.06 15.6909 36.1538C16.9631 36.2487 18.4221 36.3117 19.7991 36.3536C21.1769 36.3956 22.4768 36.4165 23.4319 36.427C23.9095 36.4323 24.3012 36.4349 24.5737 36.4362C24.7099 36.4368 24.8163 36.4372 24.8887 36.4373L24.9714 36.4375L24.9926 36.4375L24.9981 36.4375H24.9995H24.9999C24.9999 36.4375 25 36.4375 25 35.9375C25 36.4375 25.0001 36.4375 25.0001 36.4375H25.0005H25.0019L25.0074 36.4375L25.0287 36.4375L25.1115 36.4373C25.1841 36.4372 25.2908 36.4369 25.4273 36.4362C25.7003 36.435 26.0929 36.4325 26.5715 36.4274C27.5285 36.4173 28.8306 36.3972 30.2099 36.3568C31.5884 36.3165 33.0479 36.2559 34.3186 36.1647C35.5754 36.0745 36.6891 35.9518 37.3515 35.7775L37.3541 35.7768C38.8645 35.3704 40.054 34.1808 40.4608 32.6706L40.4616 32.6677C40.7978 31.3895 40.9598 29.4633 41.0401 27.8917C41.0807 27.0986 41.1009 26.383 41.111 25.8657C41.1161 25.607 41.1186 25.3976 41.1199 25.2526C41.1205 25.1801 41.1209 25.1236 41.121 25.0852L41.1212 25.0412L41.1212 25.0297L41.1212 25.028L41.1212 25.0277L41.1212 25.0269V25.0267V25.0259V25.0257L41.1212 25.0239L41.1212 25.0123L41.1213 24.9681C41.1213 24.9294 41.1213 24.8727 41.121 24.7998C41.1204 24.654 41.1188 24.4435 41.1147 24.1834C41.1066 23.6636 41.0888 22.9445 41.0499 22.1479C40.9729 20.5706 40.8111 18.6358 40.4606 17.3544C40.0536 15.8451 38.8648 14.6557 37.3552 14.2491C36.691 14.0675 35.5761 13.9399 34.32 13.8462C33.0489 13.7513 31.5891 13.6883 30.2105 13.6464C28.8311 13.6044 27.5288 13.5835 26.5717 13.573C26.093 13.5677 25.7004 13.5651 25.4274 13.5638C25.2908 13.5632 25.1842 13.5628 25.1116 13.5627L25.0287 13.5625L25.0074 13.5625L25.0019 13.5625H25.0005H25.0001C25.0001 13.5625 25 13.5625 25 14.0625C25 13.5625 24.9999 13.5625 24.9999 13.5625H24.9995H24.9981L24.9926 13.5625L24.9713 13.5625L24.8885 13.5627C24.8159 13.5628 24.7092 13.5631 24.5727 13.5638C24.2997 13.565 23.9071 13.5675 23.4285 13.5726C22.4715 13.5827 21.1694 13.6028 19.7901 13.6432C18.4116 13.6835 16.9521 13.7441 15.6814 13.8353C14.4246 13.9255 13.3109 14.0482 12.6485 14.2225L12.6485 14.2225L12.6435 14.2239C11.1592 14.6311 9.94517 15.8467 9.53914 17.3555L9.53844 17.3582C9.20199 18.6364 9.03989 20.5625 8.95953 22.134C8.91897 22.9271 8.89871 23.6426 8.88858 24.1599C8.88352 24.4186 8.88098 24.628 8.87971 24.773C8.87907 24.8455 8.87875 24.9019 8.87859 24.9404L8.87845 24.9844L8.87844 24.9958L8.87843 24.9988V24.9996V24.9999C8.87843 25 8.87843 25 9.37843 25C8.87843 25 8.87843 25 8.87843 25.0001V25.0004V25.0012L8.87844 25.0042L8.87845 25.0157L8.87859 25.0599C8.87875 25.0985 8.87907 25.1552 8.87971 25.228C8.88098 25.3737 8.88352 25.584 8.88858 25.8437C8.89871 26.363 8.91897 27.081 8.95953 27.8757C9.03986 29.4499 9.20193 31.377 9.53878 32.6431L9.53918 32.6446C9.94592 34.1545 11.135 35.3444 12.6451 35.751ZM12.6451 35.751L12.7758 35.2684L12.6459 35.7512C12.6456 35.7512 12.6454 35.7511 12.6451 35.751ZM0.5 25C0.5 11.4711 11.4711 0.5 25 0.5C38.5289 0.5 49.5 11.4711 49.5 25C49.5 38.5289 38.5289 49.5 25 49.5C11.4711 49.5 0.5 38.5289 0.5 25Z" stroke="#F3B917"/>
</svg>
